<mxfile host="Electron" modified="2024-03-13T14:47:55.869Z" agent="Mozilla/5.0 (Windows NT 10.0; Win64; x64) AppleWebKit/537.36 (KHTML, like Gecko) draw.io/24.0.4 Chrome/120.0.6099.109 Electron/28.1.0 Safari/537.36" etag="aS7k2cpfxP4dhrbLPvMC" version="24.0.4" type="device">
  <diagram name="第 1 页" id="34UhgVEW0im66hXtFUMA">
    <mxGraphModel dx="893" dy="524" grid="1" gridSize="1" guides="1" tooltips="1" connect="1" arrows="1" fold="1" page="1" pageScale="1" pageWidth="827" pageHeight="1169" math="0" shadow="0">
      <root>
        <mxCell id="0" />
        <mxCell id="1" parent="0" />
        <mxCell id="J1o6f_ijlUPL8cxEoB-2-1" value="" style="group" vertex="1" connectable="0" parent="1">
          <mxGeometry x="9" y="1" width="443" height="160" as="geometry" />
        </mxCell>
        <mxCell id="LUO2bR_xxj8n7OCwL066-4" value="" style="shape=image;verticalLabelPosition=bottom;labelBackgroundColor=default;verticalAlign=top;aspect=fixed;imageAspect=0;image=data:image/png,iVBORw0KGgoAAAANSUhEUgAAACAAAAAgCAIAAAD8GO2jAAAAB3RJTUUH2AcTCh43o14PhQAACFZJREFUSIltluluXMcRhU9Vd99l9hkuM0OK4iJaFEnRm2wECRAEyPsEeYE8VAIYSJwgNhzDie04sC2RSmhJJKUhxZ1Dznpn7u2q/CApG0GqgUajgK46VdUNfPTz3/0BMgJZhjOsakBEChXDDAOAiN7sAIiJQFBSAARlEiIjAABVIykgALGnDE7IW2PVw4IswTq1xJpZyTgzYHOd4CfrOgVBGSpgzwbERoWtClmChH4YZAOPcOzyFgQla5wBmEFMmjGFYtSo4TDyqiw32glQAArQdSkG4gnEhlQtMiGMyRhIXvty+VKDSZRLrN6oWmMcwQeSxpQ4bQepbbviyOScGjEpbrujUCiBYJgBZQiBDGkk41D6Y9jEBkbUdY/82QszFSaWWTKnsNY4VY3Ez8a4R4PLq85OMHES10E5CwMoEZSIbqdAxAQFgciQoGyy6RyfD0ZdcZaEuyfB8BwOPeesT52oNdazeBCPVSfCsJwfa3ffR3HiCqpwGDNU2AHMpAQQhAmeAs8ukDT2WT2ndZeetg+7o2QwvhQyGuZjayzYkrfOKBORDa5kvOdpphA2ccntg+NK0I1roIBuNIPATMoqTErIPDOsEykfDa+WC6ZWM0+fH1x2z1VtLojCQMHGebKRCQGyDIRBS7J8XKpHWm0n2tsxsRu6Sc9BhBHDCxkDvW49S+op8yZwXMo8H1/t5juvw6wzNVEBijZgb8eJNS4NbGQIMJZhjB2b6kWWNZxG8zLXTSVtu6g0tmGoIEAYDGIiBgSRY2ORmvGVDC67F6ehH95bmBuZ0AWTZyOodjqu7NTa2IIY1rBPBnmnrJqIG1I2NVOLhma3cza2gAuFWAmGYMgQBICOulHWq+e4WHLcWMg6vcPLi9rMTL3WcEct0zvLm8LQkI0DIoGzPEyHYfewXsyNNKvbUjEuhBj7NDnL2uOwnpCF+sCSJfXp2CXnzWK40GxU4uDs+HDryebR2bC0tJpG1UGaNWuFQprs9buulLeFAOrJOnax7e/sxOG9qNnsdruFILFWq6EfJm301BbrCKzzffQv8kYeLE7fmZpoty++/vvX29vbLl+ur7wbNpf6aeaTkdqwMlWfOh/Y5MTmHQszMaIoFzSWJKz6oNilJOgMyqXQBW6+UTy5HHXH50CY53RubuLudLXXbn/2yaf7R0eZ8tLKOxNz90ZhcQAbh87ZoOeHQFKo2qQzsnnHagwAG+ZG9cWDo+NmaezYdIZDWF1emFcv3e5hOjyfa9y925zNRv2tx9/vPH8xSNLpOwvTdxbDfCVVK8Q5kBExxOLyPmNVCStFm2dRAjNBpVgtJ5fHr7e/X2hOmsj2k+Tw9XE66MeR++BnG8V8/snm5ud/+zwZjRYWl1ffvp+vNcYUjoQtOcua+bHxSuAxGTIxVJyQLVgSVWZipcBRUglbL89rUaM4M/18Zy9NRveXV8q1/OnJ4Sd//svm06fdbv/hxsY7jz4klxurccyWLAiAwKp6UuEAIoCAjQh99OlX4j0RMYiNGWYdOT40ZEeRzkxUm7XZfnfw9IfNzaebw94wl881G81arba0ukE2UiKwUTCRgjJAUjHqyUqWAQJ4zWzsXMqWSULLRDYbc3vsa9XC2tr92JmvPvvH9989TtmTMSura8vL95jpsn2ZjcelfMFDwFAIgwhGYQIlNUreeFWBihgbMwcCa22a9k9OD5h1ff1BqRgf7bc2H2+dHhw2ZxpRpWisWbo7P07Tfn8wGA5f7u2sxGGhXMqgSmSESAmAqAgp2FhVEVFW+teX3zKZwbD/cn+30ZiemKh0O+2nW48PXu1PVesPHqzO3r3THSdbm1uT1Soxj5Ikl8u1O10bRqurD3KFgogQmJQUKiIqCiIVFVVVtTbCaND7+JM/wnAc0daTb/b3W17T9x6+92jjg/JE9eTiXLyfnZnZf9Uql0u5XK5YLI58dtXp7O3tPFxfd9aqEDGrqghEFFBliKiK2kJsP/v4r3/66PcTzeZZa2+iVr23eO/B2urC/KJjJ0wg2tt+Pj09nWXpyclJo9FQVRAKxcL56en203+vr60Z65QAJSZWVoWoQAjCsL3XR3vffvfWdL0+t7AwP7/x9sad+fm4UACRJ5AxgXOt5zsHL1/dWV6cnJy8urrqdrthITdMhrlcNOz3Wju791buC13jiFH1AAuJslFVOxqMpyeaK2vvLq6vzS8tlMsVMIkqMSvUEg96/UKlHOdyj959v9V6tXh3fnd3t9PuDH0aVEo5G7z45zdFP2i+/74fGgsoxANErFBAqfVkMx0mJgw4Do01NwxE9AaHRPXi4iIOo6nJyS+++KLb64nI9rMXtZl6c7ZeAPvTs/Ts9cYvfpm7vwJPRFDxemuszgSlAoXOq4gIiACo6ptEzrlSsUhM/cHgot1+8uTJxfn5+oOV1eXlcTJKocXZmbg6/cOXX/YOnkmQiYKJiYiZicj89re/yVSUyBhjmIlIVeknBsAYG4SBAF585rP7D1Y+fPTB3N05sub49NQYl5+sdrR3urXVaMzmC9VM/I/3Xz7fzlQY5Iivc97y242Em14ZBjMzt1qtRr3unPHi2QbHJ6fPnr/gAHGO+/95UU7dW7/+lS1XoHqtlVlBAAvYK92G/p/oAK5/jfe+Uql4Fc+qhkR8fWr64fp6FATa46nlt7uxfbW7bQ3j1mj/2XYmQoABGeeuAZSZiZn4duQgMF2P59qlrCrKSgCx4SQZtnZamReb52oQTjTvZN5fz9IqQAAzg27w9o1wvS3ox3elipsDiV6TK8T7OIoX7y9dXV4GQZDPF+S2PwAsbsBbAYiIMeYmFpHiR3vj/D9ATyQihrlSqVwHu9UGAP8FEmplMoV4t3AAAAAASUVORK5CYII=;fontFamily=Times New Roman;fontSize=10.5;" parent="J1o6f_ijlUPL8cxEoB-2-1" vertex="1">
          <mxGeometry x="185.5" width="32" height="32" as="geometry" />
        </mxCell>
        <mxCell id="LUO2bR_xxj8n7OCwL066-5" value="" style="shape=image;verticalLabelPosition=bottom;labelBackgroundColor=default;verticalAlign=top;aspect=fixed;imageAspect=0;image=data:image/png,iVBORw0KGgoAAAANSUhEUgAAACAAAAAgCAIAAAD8GO2jAAAAB3RJTUUH2AcTCh4AG+OqigAABoZJREFUSIltVk2TXVUVXWufc99HfzedTkhMSEwgDQEEQgxaCkSrHEAFsKwCFCdCWeXfsJw4dOTYKQ6caBWlE50IVAJUSkJikKD57E6TdJJOmtfv3nfOXg7ufa+7A2dw69x7z9nfe6/FMyt3kZxgQbaLQDKlXA5yYsjGAAXRaUKzNnYAQbDZO5XozYvkqs8pxhjlg3ZRzHRb7WgA3P1ub3CnymZGIIikjQRRoy0AqNEEQIGjP6IASFIEEAKnxlpjBZGTpEhOdmMl76UERgFCkjZZO/KAGyIpmdeqCFAUQEkRUjuGdiDlhAuS0ApxrBX6OTkAsjGU9dVG9CYHGicMgEBCgJP1sUgwGuBZBBhYSzHrFIglK98kevQUBMfWRRq+zsVIEJJcbiQQrD6ogigYE4wwG3q+KblWx3irOIw+Wh0jMJpMngGrQ0HICEgBFhAMRkIwQBA3FJAk3R0QwOFzmGKJqiOrSCJnJSkwUHJ3M5AUORQoI0f3NVQwzASHOdbWzNfuIILI8v4gkVYYXDJjgGXAAdCJLXHYHGdyi9yNPYhhfUXAnawcIWfColGwDFYpJ/cmbrSvVYCNcro3H6P3SMKJJCRXYRBNZJbWU3bQSIMLusf1e5akOiuSIIGsq7XuKoJ0qUoeSUCelDxXyWlFY7NI1P0sjCwlBErwnAWRNDOScicpkawVgAaAHDD2Um4NygzLDAQLKZGZFqDghuRuKTCL0WlQltEZg0XCXWrMh+CqC8uAKFfdfoFO5ew50XIoJJIelAspE2ZVRE7KZQpWBCIV6Ff9frleLS0tVr0vZ6anZ+e3x864QttZwCxngYijaWLKGvQvnD/bCb5txx6b2VUWYPJWNg+48cX5i5+eXlpc3f3gU08cfjKmtXLlwuKlC3dWV28vX0VV3rL4H2t1t+3ut6aLyW0Lh54YGxtvclCnzxksxPLm0pcXT+axsdlHn+0eeFjt+1KKbeHU++/94fe/u3vbv/vcDzr94752bUq3p6emU1q9vHjG1/tXr9w49e//Tux+aGb/48/88HhRFKMybUpNorXGFh555Nq1E+na6csrVyeuPDl/6NnxuX2dFD7/6HR1c23H1PzSJx++feVsNwyeP7LwwMKhsuwVnWJ55c75Kyv373/s4aPfP/Kj4w8cfNzYTimR5OW1gbuThHJm6KBaO/P3L069Y2u3qvWiGp/b9fTRUuO//fVvbl5fbnejr5etVqfVKZh6Mzvmt3/z/j37dl+8dKs7ue+l138xt3u3ut2BjKlpvDhqubrrS3a6B75TrCz7uXcnMFjvLfulD987fW350sUsDQbeKzU1Fa038Jx7N/vL/asf/+/GoSe+98Ibv5zf+9BAOSeIMjSgYKO+cQYCwXPoTu9cOMLJOb9vdv7gQlHYRydOVsrW6Q48rlZhXWbRUIxdWLx1YXFt196nXnn9zV379idlIwuyAI0iRCrSjO4czi2DQ5qYnanGx9//+Mz2EtcXPz+/styam+l0J9Zus7zZu3uXD+xZOPzM8598/umeB/e+8pPX9u5fqLIshFEwhLojFTePMoOCsQihEyfX2X3nn6fKE5/NtPPE7Mz4xJxnW71xh6Ri3PXQo6++9auXmTuTnXbRzc5gIeOr8MDYDGCSUBGsCCyCcdBZul4pTMNbVpXKuUpflpXKftq2c+7YCy++9OpPO7NTrRhFZUcwE8RNY6qeTgB4tZdzzmZWGFsBRpncU7pw7uzyF0v/+OvfPvjL2wMGGKsQ5/Y8+PJrPzv2wosTczs8E+IQpiBsABIAd9/og6FOHwwy5QavEHY+dnh77+af//RHUu3J2WKs/cjRo8ffeOuxx79dif2kFi3IAYly1iNw01Qfrgg64JIy6CQQyDCAwfO5f31w8uS7vcRWSs8dOfbjn7958FuHyyRJrWCUKwDD6cqGDjQfzEyqeVFDFiACNLCeglb21s6dPdcan5r5xoGnnz5yYOEQ2xPVwEHSCDiGULcZaYYMp04yJXGxzJ4zNmFT/XP97urlz85cX7k1ed/8oYWDoWgrtGTBqK9CjiSAm6lGfcjduVR6zmmL9Lpk5e0iZIbKgTRwAQwwM2yg9GaY1DDLJAUIDXeMJL4qvcbGXpUFwSwwBLuXyjVON3ylJopDtjHirGQcSuQW8ZJoZjSIyA0vgprYc+jDBpshUTOq2go1CQeisivnodEaWsSGw6ImrA6ADR42PK9hADXyDmeDmthgyMH1fxD3ndu4Cuk7AAAAAElFTkSuQmCC;fontFamily=Times New Roman;fontSize=10.5;" parent="J1o6f_ijlUPL8cxEoB-2-1" vertex="1">
          <mxGeometry x="57.5" width="32" height="32" as="geometry" />
        </mxCell>
        <mxCell id="LUO2bR_xxj8n7OCwL066-6" value="" style="shape=image;verticalLabelPosition=bottom;labelBackgroundColor=default;verticalAlign=top;aspect=fixed;imageAspect=0;image=data:image/png,iVBORw0KGgoAAAANSUhEUgAAACAAAAAgCAIAAAD8GO2jAAAAB3RJTUUH2AceBzUYhE2EOwAAB/NJREFUSIlFlstvpFcRxU9V3a+fbr+6bbc98Xgyk/AWCIFAAYmIHW8i8S+w5k8DwY4NICHxTHgEEAmakEkyg2fssbvb7u7vdasOi05gd+/iniqdo/rdkle/+YNkhaipqqqKqpmqJRFRVREVETMDAEBENofBYLRaVUQVDAQiqEFKFlhVtx6BoHt2z0kkQZJKUlEREVWoipqqiKiKqarIRnyjTkDKsqqqttc3ZQpEaHaCbgwPkKAAJAmmZIVYUpVkSlG1pCqmpslU9MOaKiKy6T8iAIyGQ5UlmSOvtyLgXqZOVShdIovSiTaYw9vU5JW4BiJZYZZSShComrb/c8xENnWSAO45Ipv0Wq+8qb1aFk4LesezFpFdFe6ZhIq2EWm1fqZq2EiJmaqo6keRQEVFIRATESUx6A9zzs7JqpwxapdYJUJAtlJ7hB9XTUT7pBiIFmJI+MgCFTNRVdtcREQEG28gIAHAxJqq7nd67lSAolAxkkEiqBTqRSd5lhxLzxFkEhhooiZI//ccqqICAVQgZgmiqtaxntL3treHewfz6+W6XNd1201almWTG3d1No426KAIKZGTaai6iqhmFTWIQgUiVBEBBSLhjYiES5VXEbnopeXz2fz6Cb1hcE0GI9wRCIgS3DyEqWginSAZgBEWkkRBiJl9FIqqJtNCRFRNEPt7R7elDPoHZkYEKaAESZIBjwh3eoR7eKSd0ZlZMkvJklhSSymlTcJmtgl7MxEiKqCAZttgPdoaE61HRJAe7jnCA0EyGEQQDOak6CgU0KAoyfBwCITQgIOgqkC5qQBCdV37fLneHdZKKAkihKoAFBCKJpUcQXEFkihhYqpmSU3NzMw0maomKyAwVaVqkUSEgmSWZdi286I/gotGBN03HUfAg7mlhDCLZqgkLQaaDKmACTSJFVAVUzENEVWlKCFZCJAenQ686TRNXdeNu+e2zd54bj3ntm3C65xb95y9cc85t2lZPkspmXYgIQgIACgc4kCoqgCqFuGE1031wslJ2Ph2dcknT8kMhIczInJEkAAjPswhGBFpdfuuqRGyYaWp6MYuNQC5DVPNzN1OZ39vsru987Wvfv2t90aPHw+ULcRIU7EQugYQ7g4oGAxnCCgJXhAKwwahhAQl101KOj08G08mnU5xdu/+9OiFo4PpcGursLQ7WT05v75dcHX11qbT1lsKSWE4AIYEGRERTNmzUkEk07pqOt3+eP/o6PDk3tn9s7sv3b374mi0baYenltvoiH84aPHbkXqv9TpPTVTMxOoijGQI3tu21xfzy6IgDCRjAhTa5v4zKe//O1vff/OnbuCtEFU2zar1W1KRZDuHp7fPZ//+o3n3pYHO/ng+H5VrqqqXNeLsq2apsk5B929TUkiNIKJhIp441/4wld++MMfDbe2mqZerVZtG8Hc1HVK6fzRe4v54uWPPbi8Xv3s529Hswzj1fxiffG6EAQghs0cI5MhomQAEEiyBEvS621945vfKzqdiBzRAkFvb2aLxWo9mexZ0vFk9+G7j3/z+rvrdVkjHUz3d/LVo2sRMQLMTnowoAAREe4eEQRSy7Zuq8nh3T++/pcPPngqKiSn0+mwPyjrdd0s339vMdoa/vPfF79746Kta/aL6dnW50/t73957Aihk5sZiyAJCTqEEIc4g+mVV74zm19O9qcXl7PZbLZel71e73o2+/SnPnW9uPHsvV568x+Pfvv6eQ4tdroPHgw/Nx0sLp9e3lyIAQQoQBJAiQiKmIDWMQAQTZLtlS++Oh6PX3rwoN/rV1W5Wi9vb5a3y2Uy6XY7bz98+te/n5N1/2D84LR/2q//c/7eovLTk1cH3UIBEp2OpsK0SN1ON5mZmagAyNmTIH76459877Xvnr5wAuD2ZjGbzcrVarG4mS1u/vTXd65mlXR7e5/87BdfwJ3DbYacpaLoFox8e7usmnK0vVuXVVWW66osl/NqXS1Xt2VVL5erts2paZo7p6cXzy5ns0VRLG9uFleXz6umfvjOkz/8/m9N3UwORnvbxqs37OTlcmV13dzc3tZVdf/+/V/98hdPz58cHk6fX889ZwA3y8XR4THJoijoICEHd+5//kuvJNXj6eFgMIRgvVxdXc3On16S6PfUI3c7/dv5Vdlmb5v54mZvd/d4evTyxz9x9+zFP//5T6oWQRDBuHj+bHd37B6Rs7u7u+xNjqdnLw4Gg2jrlFJRdAUIb+umUUtBWdzMO91iMOyPervjw+nl5bPt7dE/3nxzfn393dde2z86fvzBB0JGOAiCEQD4P+DZaGcsavt7k2TpdnFd1aumqUJ0e288mZzs7Iy7vd7u7ng6Pt2bTLrd7v547+rq+fvvvy+iZVmenBxLZEuWrEgppZTMNhvKBsRI/a2tbrfb6w1BPvr3Q1U5OJqenr1cFJ2UTES3d85URUggIGzqul6vhoP+fH4jgtv5XEQZGfxwwUQQHk5uLEp377402tkuik7b1DnHcDRKqbOzvUuEyOYXBIPBIIPCq+vrf7399r179/q9XpFsfrPa6mkCl62Iim4oyhAJiRCPNNjaikD27O7d/mBndzeAqiqDAcgGhXVVrdcrEZAxm8+L7uDy6vrk+M7+3s6wmwrxtnWBIpizkxSBChSkRHr8+J2i0yuKbrhr0vP/PBntbL/11t9ENFnhjJyzgG1TJjMFc/ZhNwWgQpB1uao1iSQVEBBLmz3PIyIkXP8LkOpiesUP66QAAAAASUVORK5CYII=;fontFamily=Times New Roman;fontSize=10.5;" parent="J1o6f_ijlUPL8cxEoB-2-1" vertex="1">
          <mxGeometry x="89.5" width="32" height="32" as="geometry" />
        </mxCell>
        <mxCell id="LUO2bR_xxj8n7OCwL066-7" value="" style="shape=image;verticalLabelPosition=bottom;labelBackgroundColor=default;verticalAlign=top;aspect=fixed;imageAspect=0;image=data:image/png,iVBORw0KGgoAAAANSUhEUgAAACAAAAAgCAIAAAD8GO2jAAAAB3RJTUUH2AcTCh4zpDPLnAAABwdJREFUSIltVkmvHWcRPVXf132n9/w8PM+ObWWyg6OAEEiQCIlFFIkFw4awYhN+Fwt+AiKIDdkQscigGGdAhDhO7BArHt947+3hq3NY9H3YJGm1ulvdrao659Rkv3/9GiMAAKBB+JZDEgATTCIJGABBIZIavgKQXJSZSeqj76OXlK/e2gMJMwD6dgeDGRiAA3Mkg1FESsPFzCEvQTJKKX1fejLIDK8FmhkA2Or+jfCpIQgTJUghFvcQJVgCJAqil+hDCIDJYW6OPHPKVqgtuZkJADSYlgCIIEEZAKPIiHBWUEAADBYDIsAtwkMgHQOBeZSS5EPkcvta7CsP5iRpEEQazbJIqRd1IIK7J7MwRIA0kg6GlJGnJnpy6EDklReDBK1eGGkQIUnJTBJIL32JEGVJBqPMIlAKIiAKBVKuKofg5gemDQdKFxlX0tLNDPIDZCRhQFWllAagpAopWIKbA4GkZFSuk0nmbqs8wSMIDsTKotEkYUhBUjSlhIDRbMAZJjM5lMxIhIE0OnKVTTL/ZvasHNgqT91IQIJBZnKPoQ7MVwDMknsxQSIRDtIo5VFloplBj8hf3SkMFEkuGcmhIACQCoFmIkiJCIMLaaCUFmakkch1Nsnd/fHYzQBYUOQj0kgjTSQpGiijgQa5kR5U0oqxMAsZAZrlKkOCD9lvNkgsCpC74bHElZwEaaKRFmAINA3PBpig/zkASJOUq+wizRxYVakN9AOGrwljkpMcoIScIuBRiuCE9TSSQTKsmJFOKtcWqzqGwwo8/o8n2aOyNqNASAYaPBilVbd/fGPWRXz1cLuhUeaWqmrknnrRHDkj4HAHYO6iBhkFmEGSDc3IBtQATTJR4UaUZTvfunDp7L2HW5/u3m+tMq9G9SRV2c1pMihXVoTwVbReJe/6XtR4PMKgZxCAJy/BAHQgM1yjGmefOHnu9OZ0bfJwPt/rIgjRJEaELELMmXMhXJDCve6b+ODq1Zu3br3wwgsv/fjFUVV3XR9RzLzt+q4Eye3tnev//mQ2Gb/0w++vTbybb/VNm9DXHhQCkjwbgD6Z8kfX/lZKpJQlXbzw5J0799968437Dx7MKv3ylZ+ePHH8wf0H9+7t1nU9mVjb69ChDXQ77/z9jfNnT7/26s8Y7d7+XrvYKe2+IhhiEQOAubFrm/z6H//gNj569NSlZ68ceu4757773JVLT+acjm1ubh6eVugmFTemyY19SOi8LE4dmR0/NNpcH7W7d9vlvOm7D6+99+a7/+hZFvMlaZPxjNTefHdr+2E+tG6Xn73yysu/eubpK4c3DiUfxo5FlMX2/XnpSjCaRdf3AR9PJqOMycbsxR/9oF3sf/T+e123LOav//lPb11934FjRzeffubZsyeOVVX1l7++d/3G9fyTF1/+zau/PXL4ZLss7dbDaBYkzX3VfqLknNfcfFyzrvb6/sbn17d3dxdd83B/6+Y7N5dtk0eT6uj0wlPnrpx/+nev/e7cE08otLvc2/M78zce5A8/+Gzz2JsXLlw8deKUs3x+4/pXX92p64pk37eT6QhSiei7vl6bfnb7P1evvb+1s9f0nE4s52VIfSBg8Fjwwae3P7x551937969+eUXb//z3dZ7u3jm1Mbh9eefv3z5uUsbG7O3337r448/mc4mAErp1tfXS4lSymK+WN9Yo0fbF3letnH+zGHOb4esJ4IIc6Q0nkwANE3T9qXxijD79c9/IfQpazzOZ04eW+zvL5ctTBDMLIJ9X/q+Wy6W7sxZqRr1gZ39xeVnLli/20csu6As1SOlhNWIjqBolYT8vSuXun7ZNIu2nR8dTc8fOmIGCe4GuQSKUSIiTAGWLtgXLdpuNKrT7GgJdaGm69uuOL2qqlxlM48oET3FXGmeE6azCcd1Itm3Zk5GAJJDNjQqF4bKz4Bc09FIYNc0IQgpeZWTLxbN7v6irkejUZ1SilCUkhc792B5bXYYod1mPhpnc48Sgkxp1VeH7UhgoOmKLCHXpt7YhBAymVudclWzt/35/MHuw7oeVfXUkueSJiTubO/M9+drs7HnSmIpgaHtCJDMTZIIt+r+7s7u3uLE6bM5mauSVEiJIRaYwSf1VGHzvQVSSblyeZo3zdbOdjWpp9OpESYk82RuEhhimGQSRLGsz6aL+d6NTz+JUkiUQhaySIXqQm2PnpNUHZ6uj+tRu1w6S98s5muz6aG1NWkYGCHy8TNKiVLEiNImt+Obx7Ye3t/eeuAmKEwUe5ZOpWPpS9eUtil9SzDVKTdtP5pMUlU3XW8RkCAcbMzSwX4nCRCEUIwn0/F0dvPWF9PJmIyIYXMUtdowokQX0VjXlpLPXHxKwjD0FXp8vT4YZjhY4CmQ8IDNjp2+ffvLIydOTyYTkhBkRvjwaymlL6Uh+1L+C2Ob4c1M2imrAAAAAElFTkSuQmCC;fontFamily=Times New Roman;fontSize=10.5;" parent="J1o6f_ijlUPL8cxEoB-2-1" vertex="1">
          <mxGeometry x="121.5" width="32" height="32" as="geometry" />
        </mxCell>
        <mxCell id="LUO2bR_xxj8n7OCwL066-8" value="" style="shape=image;verticalLabelPosition=bottom;labelBackgroundColor=default;verticalAlign=top;aspect=fixed;imageAspect=0;image=data:image/png,iVBORw0KGgoAAAANSUhEUgAAACAAAAAgCAIAAAD8GO2jAAAAB3RJTUUH2AceBzgOxTdPJwAAB75JREFUSImNlsmSXkcRhc/JrDv9Y4/qVkuWZKmtwQ7kYeFgAQE7gh3Pw6sQLHgE1qwcgCAAS56wrdHC6lZraHX//c/33qpMFt1e2/kAJ7Oqzpd1+PsXn8QUnVCDOoqIKDBCHIn40XJAAMAbFTWqiQFXysG6Vo+mr0eFBwpDZBS0gZJAQggQBCD+ow0IOBCFSViZDFJI7pfD4OPBxZW8+vtiP4To2npKnGeewFbZKNw9S8CP658dwwEm3wi9m9WGtXFHeytteDff/Lo5Do0iU4oDZMf0WrFqxON6VGtU+4kNqO4hYacavj+8WDidsJaDKGuWyTLjIriIZNGvhpXfDHd/O9i9GPrpJ4oDAMQhjsXJGItlP0rhEgUlsuvdc2FbquS8lg1ofqPY7Hk48prOkICf8MgACLRwVdEsT5ZoyCKNEOWVbBhucKX22a9XrxXUkvmh159Mvn/eTjKXVpIaxeGk0x1uBAE1OJHo4ixTMLGlGhzIVKsCCZIghIsPmYWhl1QdplxUxcUtLtI8MjocQC9mBcJM2kZiEhhd4QKaSwypavVi25+HZhKmweCW6lhHBFJdGGGg8tgs1vWa5UlJOGJ8zNFfpvtvFuNiNClHaWNlPWx0nmE69pYOExgpplGbQVN8GM+fyOKL7E0AdvLBVe1fqdYz5omYxXqBGFacUXJTOhwOOgJzal4gO99kzcvRhnVvv737wE4+H78cedMok7AwV2NpoeuhdckMSbBfj49s8l1zknse6Qtra6QAA81iJhpdKa+k+efJ3pt6fNW7v7iyu3VrGEAE60svT+HObH/GGAwAHBRoYFCRU9xa9VYxTzPxuQkjHXmQpaKB1daa+xLpWZo/juNgqRwvj16NF7UlqLHoxs7NbOvislqvQ5HgcCPdJSYzQSKcEJw6wpMg0Z3u9PBZ/Vqbdmmxn5WTpnlSj6dZ6nvz4PHDF6N8+t4HVdnt9av14dCWMX1xsPVW7+RcOAoJRjVN0RNhdIJi4Jm3TRxGMHm4M36q0RqLqqGNae7WlolssjRL49mLg+eTxkNZbG5vlc44jv70TViE/lvDhbLyrGCQH2hwwHjKnZ/2oXsYee3WON3dC1dSQ7I+eGFn+Pp4v+Xxchk79eCwNu1W5bmt2fR48ej1Sqd/YXvTUxbKnCTdT1kxniKCU8+oeDAmowsIsBEnCMoypHk+u/ftX9/JjanbTg57Za8j21PTwer6fLkYjPyDSzuPZ5M2LiV4ntjCDAhCOEA63E49KZ4ccJdEaTLJEg3tRONqF0evDv79t39cv3k7h8zmU343GhQDLo/H89e6d/JKujXwuq1j39RHnqkJWje6V5plZdEKYkjBkDkSCXGrYizmlpq6sXo8bjY3+p/e+epkb/Kzj29fvLY9P2y4XN6/9+Dx8R6TPxx+s/X21VwwTZOX9SzPitl0du7cZllVIc+kLMzjm+lJkFbbo0l7Mm1nc58t5WjajiYncTnu+bV3r5ceD5+Nn9y9a62vbpxPnbCI7fdff//8cO+rbv/C/bc0MDE2ybt5583Ll5cuX9rY2mIWirKcz2Z7e3shfRsf3fnP4vkTjaj6N7Se7397l8MsvbtTbKXUbS/t9sy8jg//++DJ8PzOcHvz1u6uMj1/ffDqf09PmlneLQdlv7udT2w5XS845IN/fdphWCm7y6OT8PDPBy++OSrrppNX+0DZqerJyvrKxrnLH7abx2PPUivXrwXWdfto0d0YTA6nK+fX31/9qPnyrkwbNK1XedGrdFB0qs3zv3p/7fKFSZlkXpfI9HgY6villimvLs/HMhsvx+PYs0vzw83v7vV2f7mjQR49PPTm4ttXitW1l9LYpJ5UW9tr69Wt8/3x3sE7198q1gadIFmulxTDG5d1tXf7d79Ck6yOqV6GzfcedHcKtpwf27kUZotUH8vo6MXo/mFcetDp6/tt/Grt5BLH81Ev42zRrGzbWkShg40LvPnRh8Vav42HsVm4GeqJHY46SCJdlGJFE25e26FXbnm7sNBiOfPxkT97OpktakGdm65X1hw/O3icIl/pWqdZNJODthd2ko2lWrz67Ov+2qrZkUoqi9LhWchSZIonKiiyFG6t/Rym7uqJmQdPiK0vbtbj6eJ4NG4WU78mEgeaeWew2+2FlEzR7RbnmrRgsWQhISsFmyrM89zMRApLwTkBUy4rYRNXorm7ACJUyd2yJuaLtSpd2Lig2pJGz5SVBBGJpMAyuoANNToIZOI4BRgAYGDjDCl5ng0DTWlGp1lKSDGZKjQUlXgHIiE3d4fCc5IOAUhVkwgaHDAhBKT7WQ5xM1G4VZa0hobEJqGlCgMdEaAhg6soBMlMzNU9UIxseZbFkqsluLjACTcRM08iQiFMzXPTGkEePtoPFFBJwpEAEDxdvMnM3MBAKkmScP0hqTjNgqglulNIACIgEdtmMq7hmckikXc/vxfECjEBIaSDcDjMU3TCNRAkWsJ+2PlntxyMSNJGU1USMLprFsL+/v4f//Anb/ud7k7j+vT5A3ECPJ0bbm5uBFQZVJQUOunmZm6AmyWzSJ7+Ja5KigPGs5K6rg9e7C/jCWSShWm/aoIjOc3NkyURAeAQnGmcDU4oTiMunFR3Os5iO2A4TcmEwcxtY2t9dbUHjFRla6v4P7ZB0MCkWilZAAAAAElFTkSuQmCC;fontFamily=Times New Roman;fontSize=10.5;" parent="J1o6f_ijlUPL8cxEoB-2-1" vertex="1">
          <mxGeometry x="153.5" width="32" height="32" as="geometry" />
        </mxCell>
        <mxCell id="LUO2bR_xxj8n7OCwL066-12" value="" style="shape=image;verticalLabelPosition=bottom;labelBackgroundColor=default;verticalAlign=top;aspect=fixed;imageAspect=0;image=data:image/png,iVBORw0KGgoAAAANSUhEUgAAACAAAAAgCAIAAAD8GO2jAAAAB3RJTUUH2AgBBjkPIMP03wAACbFJREFUSIkFwclvZEcdAOCqXy1v7ddtd9tur+MZ2+OJPZksQmFRQjYiECKKECAhhJQDAnFA/AdcuSKUE5y4RcoBIYQUELmgRCgZkngyu8dje7y0lx73/vq92ovvwy9fW0gTjCiIglHCvNcAYJ1GnhKgPEQAABhLqeI4MlJL5bXHDMA646xjjDvnnPMIe0J8EFCEkHPOGG+MUdqSZjVkRFPsIhqJsgw4CRihxIecEYKtLrG3FCh2XsoBJwx5goAQZBkBzqhVihKggLIkBUSMMhg5gr3zGCHkESKL9cxbKpQHhr1VFCGrFfIy4BR5h5wBgjnljNA0JRQ8xghhRxByRhPiODdRhCk13invPYDxxhtNrHcYAAilnJJCaMSsG8sopMIr5y3HIfKuGOcxo5FjRJvCo5EuGLggDMAxN9aEIgQIOKUYNNKYOYINwt5gYi2mnCDkATAFbLR1jDFnFHjvPQFEMAu8txwFkuO46icDvyT4uMQsY2HsQxqK0huEn47kQLrScWEsYYgYEwY4ikFrpbH33jtrKCGQJhwwF7myXDMKWiHKz65U5194zk6AEtSNrfIIxYT5IAqATkcJD4NeYUkyv7XT+2znTCEKGpDj2EhCTRByrxFgGEtBGeMWFAUFsiKl7ouCUtzU89/+pmifhLfOaF9MO1IxrgOskgRpxvhMFV+ahBpP6qBf3ZwpHH502Bn3rdAes1AJE8Y+DhlCHuOIaiOsAcDh6ka0vMAa1WRyglQqQR3HxbjyznXuMSmEN2Zup22398c5YO9st0vWquFUg8wE2cb0dNHLB86ddkotOeZhWSjOLSHgrKXOSwa80oh+/ZvvL8e37VNhx3zkdSGUJ+FcOqeHRRfZJNWXa2qtWZd+orBUSjMalns9c6VSXJqa2+8O5LgfJahTihAFTqsEMc4oYEyFIQHhb//09c1ac+/9XUSaH56ebu2Mf/B2+GBoT7dt2TVPRzYlJKQJ5uryZYwpmqoGhc/LIj8BPltvrM9d3m3dVNhRREQpkQeOPQbPGaGcJ7MTlTfevGYyMliZFk8epTVYXE4nuGEmkpitbDyzHmGwufOBNrzIOxjJ4tSiIVpqzE7XLC/bN2arD640kwt0dtQdiZEWVBrtsC6FoFVOXvpmc37BCi6v/Gj1f+/Dp3/9fON6tRZJZh0qzKPbX40LTXAcVivZRKTLQd572j3vA9cjswRRs54mDLvn63MfPt7lMalFpHOOjSdaOkCeXpoma5sc01EsRDztx5O9nc5hb2tufrJ8+Ljdy6OUjpsrZmp1dXqZzGYiYgGx6wZ5S9sEGmkyY8ueRuP1uHp+Vvti7zYKUqhT7d1IWuYx/sMvNl97Z2Hl1UWq7GBowtrSya76+IOvVid2D8a1xmV7eXV+5XkcV1eQrCMGhS7v/Ovxzs0n2BSAKnxh9L2f/Dip/sTIbvfhv09Pyvt3PhJn0jEYIcQNxe+9e319jW9+p7Z/d79Z6mC5Xrux4HMrujJaW45RaCsVaSgnI/AnGiNC4+Ki1z9SafV1h1zAlmhDu2TA4TlnGIGZ8ujuZ39773j/icUkIpz86JWZL79oJ4UuTuSqGMJpO9/t0euhm7uKsDW9I4f2WZgbLxwXpPcYxKmrdRtTPqlVaHOo64cB3WH6C+q3ALe9inwNkYUX7919OCxkX1sqmDgocWu3vzDJRYJCTybUyKhxwgt7Kqna1YeAs70wdmWQWl741ph3sOKHxu/SJIpD62jNGIPtiPI7NDrGpFxsbq5tXrr7ybFDlrz2wrQZKvDVhbqYYEqBckYaBYNSHv1rt15pI0Paj+H4REejEwajQCsYlGacARSk51CnbwddNR6wwrORULoVyHz09CjXU493jo0qaexFNXRDG0SkG1uCcMVjQ7Y7//kv/su/zZ/nWTY3OG5dcVnz6PG+oNWJFDcyFuvt3YNaT1tDZotCskJL77JatNiMHg1q65euz6/SqqvmDujQxSqdMOMoYggTzhHXzDjEBwfqLKf37qMbqEpI+OJbrYuny//86Nmjlp7V4VI4/ODD7qf76uq1taura4d7x59t33x7o1j74fVuuXxwgFHwKauBaFPyfDMSJojTqW8sFaQWIikYQZaH9y/Ivbaer+DNS0Eh4lFfF23b71aQJuWwuNywjYUnd+9FIZEBzQfDkzrv//x7QTaRogJP0m4Q1m2aHJ8e01++++bNW52jljvuD67Vp31a16M8KtR5Tioza4L0MnKeXX0wEFag8FtrD5lhCLuI8fUptvhbUVwMGD2mDCajaHpNYHR7s0pRoEW9mt/MdDemV16Za5u0ddjaPqwHgzKaIVPTtbwmj7WBcX7SK8y5hsJOxtrXFY44KAAkJQyt4xtXUJwSL532DIP1597FvqdNIDhqsSw3JMooSWc01he5D5OL+HpGDkX+RA2ytEgqAVee1ZXrpMpjBXQMnic61F5myCsEOUg6Bo+AADJgnZWU5aaupDfagF+/dv13v/o+9VGAI9BWbe2Q576eLX43SI8DtXVeN+nsZjXGZaF3CfIODLGRGGjFdGKNc7wgUaiwxlZ4rrUwHnoj5RgPXXAhKiM9fLE5tcQtdTsHNS29GXz8Jewcnv3p9zdmVk2LZtkhd0aHIb/IrWSsb9B5gR6cpRfD5OVLxfah/ORJWIulQ9GFohUC1SS+GA1fXCGrMzO3zibmHDo/Ywva0vGn+/jI7e89MrgtdHb/k4uTeyaPPZ+AIrfCsiclrGAqfdComI3MnPe6X3sOPbNRrB+5MA4wlAJQgFhICuPsdOxDf/zs4tlwKFunx3qrRmWDd/YvusPCWPAOb5+IerfWG8qymbDMjHpuq1OJF3WFUSGLjKt+iP74kbPDQBs8LKQVsXCqkBw5RoitT+laCnFAvzhI33ondDWgbGUiOrXNqWZftAlHjtlwJpiZ4XfPn5Z5WPT1wS4cHo3mJiniXIz52Si/+cArbTByM1NwdTm4dnU1a4btjv3H329vtxj22CORBPGNySjqO+pGAqSdqyZSVZwr52YrU80kjvH91kEUXB3Y87PhqHWOr65Wb6zNGapiiLPKyWDoQ08Xa5Mb0821ycazz2RhI3186+T+nZ7zyHO6tEnXXlpUglHVFbo/XJiMEKRWR7gkB49ORyNXPB0fDT/vjaQqBzGpeqEudg+q1QRElAsQWHhvHUNRjRZ2cLIHlVJuvDC9dadlPU5Y9LM3vlWxFGJEo8bs1DyZPdI+BG+l1DovZc8aQ/y43+t2CuogjHQxRg+GTp+LUiorBXUeEbR33Ol2+5ThiYwRQvZOcwgxB1StmNP2k97hamMy+T9OJ8wPEMiotAAAAABJRU5ErkJggg==;fontFamily=Times New Roman;fontSize=10.5;" parent="J1o6f_ijlUPL8cxEoB-2-1" vertex="1">
          <mxGeometry x="185.5" y="32" width="32" height="32" as="geometry" />
        </mxCell>
        <mxCell id="LUO2bR_xxj8n7OCwL066-13" value="" style="shape=image;verticalLabelPosition=bottom;labelBackgroundColor=default;verticalAlign=top;aspect=fixed;imageAspect=0;image=data:image/png,iVBORw0KGgoAAAANSUhEUgAAACAAAAAgCAIAAAD8GO2jAAAAB3RJTUUH2AgBBjYBQOPFFwAACAVJREFUSIlVlktvXVcVx9dae+9zzvX1vde+13HSuHk1pLRVHxSoBKoqIYFoBwgJCQkGfABmfINOGDHjkzBBlBYmkRhAU1EnoaQ2aRPbie3G9nXu85yzH2stBue6jz3aOtp7rb1e5//Dd9/9rbJIjKRsDBVFazBYW11ZM8aqKiIAAgIAoqoyswgDICIl5rRYMcYYQvC+9mEeY0wphcRVkBCDLedTDhEVcmeNyY0xWZZnWWaMFRERZuHELCKNg9lsPp1OYmJEJCJjDCICqIiIKgABEKIhlMJB7jJrDRZLhbIYMlmWOeeMIWOsc05VFVSVRbSxzsyIaAyVVVXXPoRQ17X3tfeemQEAQFUVAAREIBGR7S63lcXXHgGJiIgWp7Q5qgDYJIqUVLUoijzPu70eszTZCSGE4Ou6LsuyqsqqqrwPdfS1RFW1hEYJAUBBWCJLTBwTBzKAgICgAAqqKgrapEVVFVBEjTEAgICGyBrrrC1y1263YowhxqgJVO3p06cgqixZ7lQBAA0ZIgOACiqyiGZRgxgn0+l0Oo0pEZkmXEQUVWaOMSYRFhBFRMyQCNGKiCXjXJZleZEXeVY4lxtjDRkAJAAFbZImwghQFEWMkcuy9lXw3ocQUozMzKyiKpASswiCWBJrre12uylEg8ZaR+QADAARGkSDiAqqi9oBIoJqu91utVqinLjp0BQ51t5774MPdZ3quq7rWjihCgDYLMs4ppSiczkANrZUFQABsCkDIi6a8GwhoQEEIFVCtATgiJJzSwXHmMe4xCyExhhjJ6Oxr2pm1iQggWAphaUQC9GEiAgAhKCgoCISQpzNprPZNCkDACoJICg386IiotLMnqo6Z9CSVeYszzglkaiM1rScMdY6Q6QAiw4CBYWmhYgIFEJIPoTgU0yc2DMzc9MP0FQbAFxmjTF2sNZXVV/XqQ4iAgqIROAQDaoCgqIiABEKp5prIttbHVxod/JWy5KKL71wWdez2bSqqhDYe1/XNTNbSwBgva+cc4iY5TlAjDGKiIIukoNNLSCEODw9Pn16KmC6/cHjRweT8bTndL3QE68BcGPjvMtsitKMXkrJOUtEdjg8sc45Y1uuZSyGGGMMoiEJIyIQosEY4/Hw2Ec/uHh+efVcvtzbvbV581+3OtXorRsX/377Yf/S5RdfeJGMxOhDiN7XIQTrDCFaawyqWufIucxonmUuc8YYBETAGOLwaDh8elpzunjlSt7t7ewfHnxxdzQebzy7cbF17Vy/eGmuU3Wbt++JxOVO1mq1mrHP2VkD9trVq7X3xlpDLkO1tjCuEBZQENbpfH5wMDydjgOCt0fjrYe7u4877e7o5IuV/vrg8vW9oz1o2fm0/vjTbWFe6bafuXg+z2yIYX2ld+5cF9/70x9n01ldVnmWKZrjcagiKCcFJWtUMTLOvJ/Op2VVGsra7U6r1baaljqrnV7PT07AkprMh+gMFUWbJZXl7Ohw/5ml/Idvvm6XO91epzs6GUbmO9u7u08mUW1/cD4v7Hw0zsggOCzaZNLaSntj49IrL7/WXx30VzponCARKigpp9HwWACxaM3m0929HYha7uzs3N6ykZMzLs/y3b39D+/8t4y0+3Dv7Z++LSWf7O/2B4Pzz720fvn60aOHx/u7T/Pj3vLS1UvP5rlV1RQ1MTCLqqytDuaBZ/Nx29Lw4PGd2x+3I3Oa2Kqqo/qqqg6Ho9ZSP0dz/UfXf/bOT8BXx/u7u0+Or924UZbxf5/cPd9vf7G/8/5f/vyrX/8mL3JCUAYWCpKEax9S6RPGWiU+3N761rUr97e255hbX8eSeTyd1lF+8fNf9vpdwezV179/6dxg895/Zv/+aLD+zN333ht0lt78wRtHw9Pbd7e2tj7dePYyEaqqsLBwSlxVVVVVRat1f/tet9d97ZWXeD4/Pj6w03mZYpyXtcH8g/f/urySF0v9J4cnq53l4WiYNJ4cHeztfP7qt6+s9gdVgF6vNxw+6fY63ntEAlBhCTG0Wktra6sKcP+z7fPrq/1+b3XQffDwM7uz+yilFGIcnoaPbt2aVU+/98ZbdVXeu3vnle+8fO355w8fTQ8P9r/78nMrK/15qXlWiGhKaTyeMCfvQ/NvIEIWmU5nm5ub77z9Y5c5NHTydGS373/ewEMM+PyNa3W6MDweT8YlCDy4/2Bnd7+chv29g3Jejydj1XR4+OSDv91c7nRn87mvvfd17X0MMYQQYgwhxFBfWL/QX+n/88PNT+7dtyvdLoswszKwwN7j0Se3t0bj0hCqioCCgjX08eana+fWq8rfvPmPzx88PNMFAiCDQIasNXmed9stWi7ub28b4JMnRzeeu4p/+P3vUkoxxBhjYp7P5qNJORz5yWRSzsva+ySqIsvL7RdeuF5Vs52dx3m2VBR5q1U456w1LUeZs5lzLnPWYaMixlCWOWOt7a/2Q2jiiymlbqdzcQNYmdNCQVgAG1kQIVp99cVrgIYICFFB4Yw7Gt0+o6OFhqfobaM+iGiMWdCDsBE1SAooRpUaIVFAC6LCohBZIS3ISQVYz46oLrCq8QIAdjwasXxjqSgoAaiIirLigiqUCRUVGFBUERQbsVNMegZ0COaM2AARVNWOJ5OGeb4UdBFtUEVUVQXOHKASAAIkBQZAVVwwzeLVze10Zmbhxi5erQqAzaeGGPXLSwK6QA05+0QNBsCiCPLNu195AIBFDc7Cgq92i32j+wvtX1TzS/9fJ5mvGf26hf8DsfJNB04SQ3IAAAAASUVORK5CYII=;fontFamily=Times New Roman;fontSize=10.5;" parent="J1o6f_ijlUPL8cxEoB-2-1" vertex="1">
          <mxGeometry x="57.5" y="32" width="32" height="32" as="geometry" />
        </mxCell>
        <mxCell id="LUO2bR_xxj8n7OCwL066-14" value="" style="shape=image;verticalLabelPosition=bottom;labelBackgroundColor=default;verticalAlign=top;aspect=fixed;imageAspect=0;image=data:image/png,iVBORw0KGgoAAAANSUhEUgAAACAAAAAgCAIAAAD8GO2jAAAAB3RJTUUH2AgBBjkXM69siQAACQhJREFUSIk1lsuPZFeRxiNOnHMfeW8+qzLr5eq2TbfL1owlQMJjzQKBkJBgBv42NrOAHUskJMSCHbLQLDzCrZlpGEy73XS3XV1ZVVmZeW/mzbyP84xZFHyKRSxCEd8vFIvA1bqMophIAGBndas7xaxIpVnOAIgADIwAzIgIAAwA8Pe8Kgopo2w4QGQBIFBYZ4tyHbwf9ScqVi5Y+bP/+MVHH33n8PAQKXp1+fWfnz7J0B8eTP/1+z8EBiICBGAvhJBEgCgEAAAzSyl/+Yufz45OfvDjn1iniYNgvplf/vY3v673u48+/m7SS9ebtVwW62WxzodDsKy1ns/nA4nOhmKzYQDvvVKKSLRNyxxCYO+ttbaqKqXUl397sViuovHUOOutafa7/fru9ctXTb23Ikmy3ANIq+s3X7+yuk6E2mwKBV6gurm9efLZp+PxyBgzGk2qRpfb7Ww2i5TabEtrzT1EZ3Sku7rrPKAJ4FXPyQRlHCXh9BuPD49OUEby6dP/3W4313dns8ND9L43mlRl2W32u32NUiUyqjsdBPXSzDSdlzpJ4ihOQEgUwjMa65K871AmKISU6Cwwaeuss73hKICSOxvS/mD29oWRcer98OBIy0vf8mh2QqSkB2dCP0nyXqx3VVO3NolEPmaVMVFApZuWBQmVioCBQvCeOx3AWaMZKKCQNonYt6cZ720tgvcRVYkvXUXtZjYYZBAAwAMTUjaOh73RcrFumzo9GjoBAsG0XUocJISALCQwIwQGkU3PIcokB7nvGrD1d96d6q5pOpMOBi9E+7v//iMv5hezge9qW7XPnt+m48nw6GR9dz1FLLSZnQ1kLPvSXeut3y+ibGQwYh3Wi3nwJpKUEse6qIs72Ufsqxi75jCWNhazJD4cDIuHDx8mmVyv/ufZ07SVVOvi9dXz6tNitfrmowdh2Du5OH/41tkf+ul2bT88yIaTsVap0+7q/2zb1NEwe3ygjjP95mYuj5B01f7qV789no2lhIPl/uOTh/9ydL5Y13959XKJfiIG8SA9HPZGuhNnJ+fjqe1nZt1crr+YNv7fLi7wyZMWYvXeO6cfPHpwmH3S7mQ/PZtk3754+M13Z/J8MvRd1xE3rdm3zV//9CxZVO89fqdXmzeNe5zyo6Tt93q96SAfvqeDWtT+DfvrsnNfve5pevzgn8viZvXsL8Unf8jPDldBcGsvV+WfvnjRkwEEy3//6Q8kYSQJA71ZrK6uF58Vy+Sl/dZwko76sl3Nrp/5bkP5hLJj0xttaFKryAbtXr4Yzc4X872I+nB8njRm++Vt58JZMrBSPXnyFNoqUJC17XbbrulMXbWb1nTZoI3zP1bFYltgDKntjj2PZSau9ol54SZ9nBwPg1xcvyHXpCczV5XcaQP18PS0f3CUlYVeFY9OjkWet50mEvLTz75YbvbGQwguKNHLUn2QLbaFuF2nOapde9dg9v6H09kgK7fVbtmaRQokmkZOcthtQJiunwlLMYtWYgI83G22n6/7k287HzAgTU/fEULFUQoktPPgORGYe6Pvll/uGplkAyGuyuVXzTYfZbbbtZ1jhvxwgvlwf3OzuptHZ1PXdWFV2t2mW99Ertstlz5P0m88ZMP03j9dCDTDXGrTFsW2WpeL169z6FJF/7Wq0un4GJ1ru9fG5IfHR0kWN21Xl8Y2wQXhtCtK0XkgFFbDtiiX8+C0ado2TcXb5xklsq/w4GA8m46q7X61XG473e52f94vPkwG48kBTiZueSWlfxQP0yiCqvTeBK293rvGQJT0shEXle0aT9R2Zm3Bm0ZrvdzuB4ub8dFb8uNvfZj3Y6UAz/Drq2W5myf9/m6nPy/L3nGu01wnPdVUebPB7QpME6xhG4K1oavjyMokCTJtOtgntE4z9/bFV18+9+ArY/uCWmfk6XTovCFiqZL3H7/78nLReWXS/rUvjz2r4dQ2e1mtuG65a2tCF3tNpFvpAvckrb11s2E97V/v9+WmY8BqcHh49OD8rTFQpCmS3mnggIIg8Dvnp+fHB1+/WQTOORgNsKvNvPMPVJxC0zizl6k2cXL8tqPIAVRpUoXuavnKz29Z0dHj9599frnaF5wSEbXFripryYDOgyASzINefPHuw5tFaVkMZOzZ7Vebv15dD3usgH0Sr5Mk/fz5bnlXqqiBsPFUkcRR5IRM+slBko1Pz+7K5ulXL5Pry8lwMjk9lSwECwBSgIwQHpzNJuNhfVvkMqmd7UVRifRssfoAQnV795xwYptKV0vmGsAxGhWhH3iM05Z24nI2OTm/+EDe5uV8fju/uSsr+smPvgfIzllGJAi9VBVVc3u3YRQ+sHG22O9uiwICbrV5XTd/Y7whVam4i2KfpBzHDEJJEgBGG2af5dl0ejDs94Ui3db00x99n5mtNcjA3oJAENHV/M44j4j7/b7cbjoBm2BX4HdCcpRQJEn+PSRJJZWUpJSSUnFgAI6ieDAeDieTwXAoEYFIKqV0ZxrThQYk0XCQNZ0mIgCYjCfadTq03nsJsURAYAAQ/xARSSmVilScJkkMQNtq33nbz/PJyYnsOn1fXW7rNze3LCQEQUKoKHLOKaXyLEuMqr0KPsiAAB4ECxSIiIhSSrqXVFJGRFGkFBIa5ze7faoimSRJp7UxZllsX98UnQvCBW/8/e8mpWRgSapvhfc+YBDA972jKAKAEIIgUlIKUoIUEQEigpBCcGDdGgkIgLLYbDdVTaTQOW2td54RSUlkBik8E4gQOATBBKyEQCGyXpr0snKzZQ5CCEFKCAVCMGAAYAYEBETpA6/W2+vbglkkUprOWEBUSgAwMzITE3vp0QMACUEYEDlJkjiOPQqVJiEEZkZBRMQAgZmEQAAACMBysVjf3hX7pgWBiOisdd4BEjMzAHNAAASQJABAEuV5nvXSEELbtq3pgAEZEJBD8OwQBQB7DgB4v0C5b1ynnYpj5x0xp72eUD4EFghwTwmIzIhIREKIJInyPNNaO2szQYIk872Ze2EIgYEFCgAOgfE/P/n9rqmRSJKw1hkXbABglgIQkRkQAJgB8J5bEIUQfPB4P/cfJhgCAwOzlHI0Gt/fCAD8P5dUmW0RuEhjAAAAAElFTkSuQmCC;fontFamily=Times New Roman;fontSize=10.5;" parent="J1o6f_ijlUPL8cxEoB-2-1" vertex="1">
          <mxGeometry x="89.5" y="32" width="32" height="32" as="geometry" />
        </mxCell>
        <mxCell id="LUO2bR_xxj8n7OCwL066-15" value="" style="shape=image;verticalLabelPosition=bottom;labelBackgroundColor=default;verticalAlign=top;aspect=fixed;imageAspect=0;image=data:image/png,iVBORw0KGgoAAAANSUhEUgAAACAAAAAgCAIAAAD8GO2jAAAAB3RJTUUH2AgBBjU5Q8wuSgAACHZJREFUSIk9lsuPHMlxxuORmVXdXVX9mOl5klySyxXkhdYrQBLWWL0Ogn2yIfhgGAbkP84XX2xAgA8+LWBIR1mStV5RprTmUtwhOUM2Z6Zf1VX5ivChV85TZGTG92UkEokfvn92bq11zqkqqBKRgqooEiICIgKAqjgmQlRQRFQFYaug69WaiEQzQAYAEQEAIKPAiAAARVEYUzhAVEJQEM1AQEQqoMqijEAIkCUDeERBACISVUQ0xhIhgIIqIAAAIoqqigIKIgGA994QMwBkEZGkkAjIkFFUVRBVVFQABE2aUTMiGkQgJARCVc2ESASisB+qqiAAqKqIWBSFub15CwCFc6KJWBCRkLJkZgYFJAJVNmZQFIhsrHXOOesIKIRAIISkAMTmK4eUFEiBVHXvZ7794Z8RMSKOJ421xMwxphA8G71dLiTnoiwRcDo5PTu72zTNerNx1jpbPH/+/JNPPiGyWVQRVVVEUowChGQAgJmtteYnf/+3OSVj7WAwZOKiKLq+a9udQlgsXiHi8fFJCKGq5nfu3HfOXV5e+hCayWwyHv/8Zz8TEURSAERUVVUVFSaw1jJzTsl0y8Wu64qiyIMRorPW9l3nXFFV9fG7H7rCMVFMiUyRuu7q4mKz2YgqIjGi5ASAAJKzAKCIiAixRcQYIzPXTWOqalg4btu236lzjWWjgMgkSpJtDJwQicqURCE7W5yc1GzM/754ue06IpMkK2DOmZAAAAFVNIMgAiJ435ketY9eEFLKg8l0Mj85GBTJJgJiMQDgnEPEmHJRlt6sD4+Ppwdze/Lev/zzPyWwmZyAAvgYU06RkISAiQnQGXr3wam5urokgWndbKPcefR+08zb2Cu2TTWECDknQhIR7QMPqiFZMWWX5Oh0fnw0zXFblEMRFIDM7LMk1SwZUgSko/npX//NXxFGLyFKkLqajJpZAhs8FlBZLUkJMjFZQsPoUJnAEpjQB9b2Rz/41gePzmv0Lmxd8CWANQaNZUKLWloWCbt2aR6cn/Q7XV5vv/bOqZWUcihUB0LS9j6GGKNvuxCjCrKiKix311nT/3z2bPv6y3sHsxmXKWjXh6UPrzvfb3fDgiFFZ1FzSMmbw8n4ut+Uk4MqS/fl79XVlgtZ+4DgkUUkhJBzJqJt1xLxcrlMKfp+g1t9/97X5RREQUCSc1vkt213vbj0uzaDdnE1KAvzq1/8or/1x81Ze/HSlSCDyaCaVMbwoPJkrbWW0AEiAjGp6qFBO6zc4Sn71qYQQupS9NoJsasaN6qePnt68fLl7OjwybPHhGwunr/44jefj7IZAJQ1p2a2Uz6sm9P5UVU1TdMURQEIZeGMNSJCRCLc53rAUpWGy4EnwmJoRNn3nOI3H33t/p0H2+DrWfXi9VMznkyNZNr1KebFDl5dra6jDp19WA/uTuuyLHPeP2ohJkJ0zo2a2evWGcquxJ3Im13yao9HwztNdTquz77+4eT+e7fr9nefPRnNrFFyRTmE7ZKII9pF26eqAjaL29XIL0dloSoKykyGWSSrgikGt6kQiMnq08X6YiVsh2X07x9OzwZm9vnz7/747x4//XyxuO7F8V/8+Qff+PA7xXj+7M3NwudNaWf37tSjifebwuRChTUmyoC6//IBVSSOqDOQ1xH+sI7Dk/l4etCKdt22wd3N1att8HGEPcb5bE7H5w+L6RGMZ4soN70vm/rug/vn9+6KcbtMPkAIEKJ6n/s+eZ9jUMmag/fer7ZBjDXDARdcjicbwGVKPqcnnz+eHk2B6f4775qDkyP10VXDoh6tbt6eVcOH7z2auvrlk9+uLleVdREg5WwBDRIRAgAxojU9FasoXAzOzu6OjL18vbp8u3jTBQh9PY6rXQhBF29uzaCqbEXTybSZTH7137+5bNfWmNV249FsEkPMJUEicJodATEBgDHESMHwKqdB1bxz7/7JZNzH3796Xg5P5j/46KPx+amdTYUGZVmTKwfK1OU0Ppp/66PvjMfjuqp3XbfNUt9/uK3HX4T8Sk06ONyMRm+QLkW+7MOrbbpq4zLIYFjPZ4d3zs+buhY2V9v+5Xb7ZrN99frt8cn5+d37ptv1m9XqxcWL53/84os/Pl3tdh9//L3D6ey2a1cpRkhr1NloePTBN0rLItL3/eLqze2Lq+t159kQYfTht49/ByAhhcvF4g8/ffGXP/z+P/zkH2eTQ4PWrK5XNzc36+UmxOSc4+3u3/71p30XlrfLdQwMQApvbpf//h8/t8YURTkcDYaWwdiiMc240RQPJ5MlwXLdprAjhFldfe/jj+pBmVPoWcx4VA+Lwfxg/tA/SKkLnd+u2uvb9fHpUaeh77zvfdz17a6NMfX9bvX27U0UzpotabcbWff400/vPnr34vmzHDpScKRPPvs0dP3h6XlzMDOTeiygSXKUMWFmQVbuYw6p86nzMYYuYtY+7HwIfd9vNpvNZrNarq/b9WrXdrerX//yP//r8ePrxRWqNkM3Kt2rLy9UMCFQaU1iZOKCixKHCiopSxZjM6lzeTRSAQXJgoQKoCIhRskpxL6PvvM+7Lp222627a5tCdVay7Z0xWA6Ozg4mh+MZwYQFTGLICIRAQERW2MQQeErnhJVBFDVnDOHIJJLKCvJqmqMKYvS7zrvvYioakaDpqjrqizLcjAwe/rcQ5KIICIz73lUQYlon9/vMcaYvbdGRGTDoJBz5hGVgwEiAiAYR8YVRbHXMcz8/x4AQETMLCJErLAnHd1LM/N+aq1RzQB7GsIUo1gRFWZGQEEG4j0L71s0++Pv6ZWI9gESquS9tKoyMxEh4t47Z1UVVSACQDbWquqeM5EYEEVkX/IVUyIi/gn/9k0gAhHuL2e/KiLGmH0AgIRG9rALJIBIpIgKqiL5T1Ui8n9H5z0lRyW9XAAAAABJRU5ErkJggg==;fontFamily=Times New Roman;fontSize=10.5;" parent="J1o6f_ijlUPL8cxEoB-2-1" vertex="1">
          <mxGeometry x="121.5" y="32" width="32" height="32" as="geometry" />
        </mxCell>
        <mxCell id="LUO2bR_xxj8n7OCwL066-16" value="" style="shape=image;verticalLabelPosition=bottom;labelBackgroundColor=default;verticalAlign=top;aspect=fixed;imageAspect=0;image=data:image/png,iVBORw0KGgoAAAANSUhEUgAAACAAAAAgCAIAAAD8GO2jAAAAB3RJTUUH2AgBBjcDt/aVegAAB9tJREFUSIl9VslyHMcRzcxaunqbHYNtMAAFQqJ20wqFHZJDPtj+Bes7ffLZB0fYodBC0aZsSiGJIAiKWGYG0z29VlX6MOAm065bd3Tky5fv5atGRIRXHULxq19/fPPo1sX5WZYti9oSeLRl05QOCIT2KASQJowjvSrzr+/ebZrmv6uJ/wUgJFVVuZjPheDhuHtwdGN6sKu014oDIybT7dePXju68drG/k6D7pt/3PXWtda+os4LAAhAAAiAgCyk8M6mURjGQWdzMH39jSCOGFmAP3tylud5GASKlB51083h4x8eFMu8tZaZ/w+AACBEIiRAJCItZahUa1sOwq3pIZPuJF2s/f1vvnMtl3l5enqKaTTY2ipm2eOTRwzMzD8biXzxAQEREBGFVFFo4kCH2kiQorJYWGmUYGQXxGHfaBlolRU5NGwg2NqZSv0Fg9daO+fqunbOvQIAEI0xm5ubW9u7m+NxpFQoKWAbBtpkORdNGIU729u//8PvEqOTKLQoyESl9aPxbtzpVjlPJntFURwfHxdFsabyEkCo9Yfv3/7o499sTfbCMETXctPkT05gtQRFpORrh/vDgykia4GAcLUoqvPs8XzB4513379978vPxuNxU9ezy8uiKH7OABFu7u6+tbndJZ3oIAhEoMNAKxgPJFsTJSaMer1et98N4yhMU5Li/LOv2m9P9OXcdju//egTLsu2rbxt7Qt2uhaZmePQvD4aXfz7u7TfHx/ssfcAAEgoJCjNUnoix+ytAwAhBTTtoz/9ufjLX6/u/at2nsbDsJMcHz+4+/WdPM/9Uzs9Z9AxQdQ2TbWqikVe5IL0xcXctpaJgQAAiVBJqYXcn2y/886twDbENQ4DdbqsTu5nk26/33/vvfe+/PJzu27uZwAK/CAMosmO902+ytJo+NPjJ/fvf9u4VkfGeZdlmRQyicwv3337YLp9dTXPI6lv7S0fPDirZ+CqwMY3Dm7sH9y48/VXz8xKzwCIUShlel0LXJWVlPLo6Gg4HGitRxujyWQ3TdNOt7M3nUZxlGf55fnl2UWWWRVv7KXxkLw3RhtjbhweIYpXMOgkXdnrz9pGyKCt27Ja7e9PRxtDVJAkYRSFUlJoTK/TiaNwucyYcePwsBfFcrS3ePDdj+S1FK21hzePkrSTLecv2ZSI9g8Od956+2K1DHWHGLNsfrVMu73ERIoUCSHicGiCIFBSa7lc5pHRyWY3DKJy2GW/xJ/OmrpugDbG4+FouAZg5msApdTG9qY3hplN2BUIWZH9+OB7IlKKhCClpBBCSWGU0FIorbb3pqNxJ0Dpmqo9kYxusbhEHYZxnIYGANY+kgDAAEoph76sqiTqDkZjQicKqZRSUkohNJFSKgi0CUxkdBRFvV5/enCQ9FOBSMt5ICWALYtSA3rkRKFEsIAIawbMCODZEaF3vm7qMJRpmgohhJCSUBMpKbXWxhgdKB0EgLCYz1BiEMji6orbhgisa+0qk972uqlWyrYOAJ+LLKUIAj3Lixmz1oQC1iohsGQmElJKpaQJdBiaOIrTTrqVjwe9NLtasG2APQDXdYVxuLOzrQNdNCXgCyKTQO9t3VRtUwNbx46ZvffsPbJDQCISUgRKaq2CwBhjhv10azwUwHl25b31bD2Dc3Y4GIRhuMgKfMaAiJqmOX386HxReefZWw+er48H9oAADIggCdM0bZoGAdLE9DtJJ4mNEiBwtcr7wy1ERsJA65f2AImaujo+Pn4yLwWi97bX70spT05OmD3zdbh777WUn376xzt37pydnTnbNlXRSeIPP/jFeDxYrfLBCJy3RKSUegmAmQHxcjY7Ob3YHG0oKYwxxpjz83Nmz+ABAAG890kU3XrjjbOzs++//wEAqrIe9Idpt2+ttbZl9tZZY4IwNAAMgBIBGMA7Z5lQ6qoqgcAxI2Icx4DgrKP1dADA+0CpNI67aaIEEaJJ0t2d7ThKZpdnyNRPE9/UaW+gdAAAgCCBAQHYc2M5TDpaayQSQhBRt9u9efOInY2CQGutg0ArCezjKNrf2//g9u3JZFcQjYbD0ISz+cJaliRq5weD4XrL+JnInr1jHgyGb775ZpIkg34/iZMoin77ySfsPQEzsxAkhJgvFn/77HPP3B+NgygOA1M19nx2ejG/qlvf6Q7Oq0pq3TbNtcXXANbah8cPm7YpiuL8/Pzh8UNcT1BK9h7Yrf2EJBrrEFEICcBSoAkCIqqrqiir6WTy98+/aMrCk7y4OCMAYJZSSa20VPLR6aOiLJx1RMSe+emlQYTM/jpbEOF5FDMi0NPc995HUdR+U5V5PpvN8mUmEBgBp5O9ra0tIcQ/793LVzkiaq1DY7IsY89a6+FwgITOOecdM7vnC+LBO2ZfN42zDjyP+oNuGrumnkx26rYtqvoqy6W1drVaIV63uR5XXTfsmYGttZezS8+e1/0jXM8Kr9u+tjggMdu6GE23e50kSeLGuYvZoqgqWZYlEQkhhBBKSQBARO+tUhIREREQhUBEIkJEJGZBSEREKAiVkiYIAxNooRJjtsYjSZCXxcX86sn5xcXsSkqlTBRqrY1R7N26qAAkJFoXEiTkcwAlrk28/pJoHYiITAC4zIuyWF0us8ur5XyxqOtWllVJGSkliR0BP72p8al6iAhIcB2swNevnu0/wFNF0DM7a8uyWjVtbd367/E//bUT6yCdCyAAAAAASUVORK5CYII=;fontFamily=Times New Roman;fontSize=10.5;" parent="J1o6f_ijlUPL8cxEoB-2-1" vertex="1">
          <mxGeometry x="153.5" y="32" width="32" height="32" as="geometry" />
        </mxCell>
        <mxCell id="LUO2bR_xxj8n7OCwL066-20" value="" style="shape=image;verticalLabelPosition=bottom;labelBackgroundColor=default;verticalAlign=top;aspect=fixed;imageAspect=0;image=data:image/png,iVBORw0KGgoAAAANSUhEUgAAACAAAAAgCAIAAAD8GO2jAAAAB3RJTUUH2AceDjIg7N+R7QAAB9ZJREFUSIl9VktvHMcRrqruee3sm+QuuXxIlCjSlGzago3YBhzl4UsC+BAEOfgW+Jb8s+QS5JAoRixHcWI5juOHbFGCTFoUn+JS4r53dmZ6prty2OVyjQjpGQxqZoCqru/7qrrw/c2dGMEGgcAMjEiIAIgIo4V8ZiJqrdoPvuwd7eeXr3ho3/3oJiLWD/f76SDxrNfeeHvxpbd2Hz++98GfsHHQlxmnXJYpGDKIbIAAEJgNMAAiIAAgIgLwyD+ASFXz4LvDr/+TP31K7sxBfV9aohNGgBi2Tsgvo2VL17325g/jvXv//vxuuxdIICIDgAQECDzc+kQCgAiAAAxIoE0ShZ047O5ube+1v3G8RLMul6fmSrOtQf7ocH/+yvrs3Gxaym893VleWQ2jSBKAAdA0TOB5C3m4fwZAS3jFXAh48Kyj3ZJfnnUz2ddfvwL9OMxc//rTf3RPX8pVFvuR6RnMlisLeXuIODMYAAPAAIwIw+fwBgBDlJLQgOR6Sy9er1571Z++mPUK+weNpbWXpmZqAw1zK2vFbH7v201A1CmydEqzyyQyxIiIgP/j/TwGACIKAqETVpCbWXnt57+4dn3dwYHrmpWNZWERo7H8zMUXrj/ZfdTrtyg1xJydqUS9RD4XlQkCUKJNOjzZ29q+t9npqKX1jdXra4W8sbh348ZPp+cq4VHPQZMaOXP5qvXNnZOjRzOZqs3aK2XjsCuHKkFEZEDESXoBWKk0VnHv4MHWF3/f3X70rHH6YOuBk/u1o0kFwdLFC8ISiGgLIiC7VK7VFjqHO25JsYlJMOFkBngunrERx/Huw2+P7t4aHG+F/dCRpvN07183/7BW8uJIG7AQBTEalA6YRJrawqXv7n4asCyUsqjiZvOEhiLEkdDPpTlUZzbrr1xcvLQwIyjxs3YhW8hLHhxttp9uJwyxBgQBqdYgJLA0ulidt5QaNOrTC4vhST0OA4kMyGeFBcAMSMAw5J7b7fbJzpYKOrXFuSDoSS0rRRc5SHvtOE1SjhEJmVGAIWklUucKtivTbtvKze199kGn0T6DiMcJjCxEYAbf92u12WY7k/Omsq4wYZS6IgqC434vVRh0mgJZIwBqEGCAyHaKU1XyXQ7C3iDUXkaOGsIE+giIyACAhK7r+tNlXcy1Tp6BVkb1Vd8YFSOg51qfffTh4upaTohUp0DMAEIzMCRE3aODhSurlzfWnlO/42YxvFQSBoMuQmoLcBxik6o4SZikpPqj7b/87ved+iloZAaBhlQQtuvRyXGvU59ZvpSrzNGkioaxGL73LU0Vocm4TsZ1SArLtrWhbqQ73c5sKb9///4Hf/xz0FOI0gFIOqcOxla3JW3jlWdipzxZaKOec5YRDV9Qx1lLCOEOWEnlSNsYw42BjgxYtsW699U39yuXV1EIVKjap/lqLQ6j0uwSWnYmRxMZjGLwqLuNsAJmEEJYju35vu1kBsbqRtpGdiy71emqONCUPri3eXp0REZF/Y41tZhkylapFpONhGcBznoOADBPsoLC8Z1s3nIcabko3UfHnXZfVfOuS5jEynHIy9Deo62Pb74/aB8xJ4ZFs9XRCIwMCJOVPPbLE8yj5RUwV8BYKZV2Q9PuBkXHMUkCnHquE6WGVYIkPv/4n5WsXrtyQXUaru5KM7B1nBpNYzKfu5gBpWt7vuO5Tibb6MWlnD+Vy/SVcX3HdYVtWQIo4aTdan56505ImSSM8nkvTTWwBEaCM6An5XNWFgzAJIXtl3q9JNHEjPPVkiHdT7Ri2QqSVqBUytqk2qhnjc7B3kEqXL84rTQzIiMSnEM/6hAAwMOAQ6gQnewMUabfH5RL+alSbhCrKIzazU6jO+gMVKjMcFjo9ONPbv0tIcvPF9GkhMlQixNb5zEyPIwBDAYpJbcyf0ES2JKSOIk6kQu0XCvOTWVdyyIgIGQhDGOj2fWyWWFbYFiYodiZGXhMw9j1mcEMGLCF+Wpl/gLrtNVoJ4prtcXK3DQgIyKhlqwtNgIpjtXxST1WsTFmKEcCwDNH/L11TjPElOliPle7XK1WwHBK1lG7dX/n6LSbsDGz0/7lmVKegECHSXT71of7O4+FFCmAYZYAPJwYgMf1hcAMhoFGPzRZofAlFOcuXfO/3omSJ/VOALbtOvnL11949cWV5sOHH3/2VbXqB0rVD/c27XDhTUsjG2bJaJB5DD8zD3scMLMxZ/OSBqRY5OzZF7KL2/LL+16+OFMqbFzdWH/nnel84W6z7ZVyryyVUgNfSNh9FuzsPnl5YQWA6f9VAYwIImZLQ9DoHj9plapLqbATwGsbL66/8nJtfunpSTNg62e/fLc8XfGzuTff+oln25/cvl3ffUzEcoj8WJ2jWZEREMZUoGEBuHP/4e2/3pqbKqYxWClH4SAwBgwJEvPrGxdXVrbbB/3o6erVjaBZP+zjF3c++VEhR3yu+jOUAHiy6AwzgwH28znP8x4fHCba4GCwfW8zSLVhmqpUl9avpdK1HCdNlJf1r64u3PjxjVTj3Tt3iI2BCdWwMWzMUFIj4g0zG2V0bWX53d++96vfvJdfqKSgPCkd10s1GMKU0CB6riPAAGsp0kwxv/HqD453diUSsTHnRyYRjCYYHJ+lAgEAhJuRmWzVcQqFCuJWP4qHx4UOQyHICNuybEFodJqmbACWLl1Kwjf+C1zpWNkSY12YAAAAAElFTkSuQmCC;fontFamily=Times New Roman;fontSize=10.5;" parent="J1o6f_ijlUPL8cxEoB-2-1" vertex="1">
          <mxGeometry x="185.5" y="64" width="32" height="32" as="geometry" />
        </mxCell>
        <mxCell id="LUO2bR_xxj8n7OCwL066-21" value="" style="shape=image;verticalLabelPosition=bottom;labelBackgroundColor=default;verticalAlign=top;aspect=fixed;imageAspect=0;image=data:image/png,iVBORw0KGgoAAAANSUhEUgAAACAAAAAgCAIAAAD8GO2jAAAAB3RJTUUH2AceDjIxhm+xHwAACO5JREFUSIk9kDmPZclxRiMi8+5v32rvjV0zpBaIAiSDBAEa9PUHZAj6cXJoCRDkiI4cAtzA5pAcDtmcXquqa3n1tvve3TIzImQ0IODzDnAO8OF//PQ/mZlFWBERiQhBCdVaCwAAyCLMDACRIUIUEQAEREQEAAARYe/ZORYAVvHehxAAAIkI0YqIiKgqASIoiChCUJXAAIDwWYUAwKxBRUGJCFU/V41BVQ2BXeeEQAFCCKpKiJ9nAYCILBEiiggzM2tQRWAyhhDM/yMBVQUEFSVQVUVEVQBQIkRCZhYVEUFEQ2gIEMESkapaawhAEFBVQTQoIHjvLCEYA4CqAERkrKoIs6oQkTFGlVXB2iiJIXQdBzbGGGMsiAoDko2MEVVLxhoSEWuMFVDwf/r61w83r5+enJ0/uaTeFE1miIwFDhhYCQUICAkUVYVIbUSREFJkyRgyLN67DjVYY8gAGGOstcyMzEDh97/41f/8909Ph5Ttb7S+P//yn7NiARzHJg4AigjWCNjOK4goiFFUBWPJGCJFRBAgMgQi1hijn49UZWZm9tx+882rhNzFbBrp7tmROSqqP//l57XDtDfoDefFaGKTXheiLjjVQABAiIjWRKAsIRAZBDTWkopFRFUNzJ4DByaijx+vl/f3z56Nvv+Ps8X4aDY7bqv7TB+3u83mnk3SG8wWaX8xnr1M8oFjtcZExqgIIhIYRQEQVDLGkBJ1Xeec67q26VrHoQv+1e9+9/bN28BQNfxfP/vlL1/9aTTun56MixTBH7haVg9vVu9fvf/6Z768ySzFBDGK0YCqCJpEhMCfewBAneuqunaOhQEA6vqwXN4cnw6+ePnkxdOzp09PXr+9Wh/K4aiIjEWMEOy43/+7L54MU3/75hU0awMu+BYQrFFRJ8oESIooIoFJhVvnPCOBsUgP97chNE/Px6PMf/mdwb//6w9fPJnudituGg7Bptni5Gw+n+82W2SxbrO6+qrZ3rhmJ+KL1BRZjAAWNbOcWgbtLIKKQGDmICp6c3W9ul8l2HwF/njS//4/2J/8+J92j5vrjw/rg0ebbjarulxGhGmWDotEunV96/vzi8fl9T7OTJySoWE/6+qKYmOttSIYWEAa6ULXNtv1hiX6683d7d363c3yR399+b0XT9Q1ZGMTJ7ttOR33iywbFr2j49l2uzIAcUxVdaeH5uOy3Ozb6eLob777BTsnIU57E1s1zgCoOJFQ14emrseTiRcurA5HUXmIN6vmeJwPxpOT88vdamsjYtR9WaK1o/GUVOu66epdZvDlRQ+ik0Or1W41Gs+8UlM1VpnziIyNFJOmqZkDYTiZFbNB8ex0fHE8HlArjaupGU+yxaTHoCZLjk7msY2LNO9cu1ze2yzuD4e9Xvq4rZJtCM6FbuuV6gata8oIYjIRMws7IiZxIm5T+iKBxSitkZv9fkQ2PuyTJAaExEASW0ugwIpa9IpJMn/+5d/74Nt3bwCc76qyC/tDJWosEnbOKQEqD/Jk2Et3K2na1iP40G+b1nUViSeQCEk8B9UQmq5zWZZb2wXvh8PR0fmzpsO372+qTh/37J2m/WFu+5GN7OXTo7o6BIG6rgLIYj55uL1uGoysMUjLh0fy9fFsmKQxks/zggFWm23McYQGrPZ76WiUd757/f7t7vExzvK27rquruoyjuJiMrXr9b1yaD3cLZdNUwXmNEt7vhBhCWHbtfNRrzeaDWfzQZEYAhZ/HI/zJE/TzNrYWCJrP3z6uFp+crt9uVHnItfuVUIHVtvK/u+vvkLVbdm0zaHrGhsRCiZxwuzruklim/THvcm8GM+PTs7zxJaru/awNUaS1MZxTDbb1fqbX/+x62ru2tp129L1e8nFydH9485BZN89cvCsYoRTgDw1kdEdaAsaGMmrcWgxzSnJA8VOiZLBOB8ChCyPkzTHpFhd3V3dru+X62EvT4wXiG5LyXo+SuI4Jvu4biMTx2miJgLBQ+u5dda53ARjENB0beO958D7w6YMPCzybDiyFuMkNlF2t9y+e/fp9PQi7c9IpZ9w1UrpGSiOLFX7ve0Od5u6Nkluojwiq6Fp602iLScsmSHwXV093j8MiySr0jRNmdnEsYjEad511atXX199vDYGDSEzqSFCV0R02JW2nxzKgx1HW9fepelit9sw2Wa/6to6j6OAoS1ylzsNXWTgUO5ms8HJ2YVi9e3bq16RDvoTRWqaVoJ3XceeRTEvxsa4qtqvyq3RpKkr84O/ffL8dEaE5W7Vj/V8nj85HYz7No0ByCKpNeR9UMVent7dr/74zZvH1eZ7ly/TrFgu77IsHg4LDm1gHPZ6UYzOSa+fh6457Nd5kdnvPj+Jkmx2aL+8WLCIB3r97ZsXJ9OLo+G63KsAB2Gx/eGo89pUhyymxWJW7vdt2z3eP/SLpMgtQXs0zoo4fn99w2jzpKfKg14/SLBnF4vf/PYPFKXDLN7tN43X9lC6prg4/s5s2t+uNghmND1RipumHPWSJCtev3mr7a5fFG3Trm/3o3GRFAUQvb+6dgy9Yf7hw8fDoZlPRt7XVjAaTxeT+dmHd9/aKJllaJ6dpElc7pvO8/Xt5vLy8smz55vttp+RJWgDnJ5cKDugGCgE0V5/MJ4ff/XnD1BML5+/MAQP6+16v35YlZNp37YHPpqemWw8Or3MqUsoTJoaQTovHz5+2rXQmV6rxiusHu6TKDLJMGCWjeZplsbs8sHo7GQSZVmRF8P5WZal1aGaHZ/1eqO75coYtiT14dActtuDR5NB05ZFke/3TVXXcRKfTydpZME3ze5xuVpZm7bSflqW08l4NCyKPMbQXF/Vi8Xk/Hi+3KweylXnlYPmeXa0OM5zY4+m6b58qDZ1XUvpaoP+5Yvn42F/v9+TscPUptiZsE/ITSbDthYV2Sw/re/eD0aTLI2PhplLJLF6cHj/6W42X2TZuKr226oWLFxbmn/7lx9x0E+397GBolcAmSyJOfgQdLc7aOi8r6aTgggARL2MBnHd1Ii62TcsOi1iwtAfpDayVVntqyowdNVaQJbrqmv3/wdYs7oDWJQbOwAAAABJRU5ErkJggg==;fontFamily=Times New Roman;fontSize=10.5;" parent="J1o6f_ijlUPL8cxEoB-2-1" vertex="1">
          <mxGeometry x="57.5" y="64" width="32" height="32" as="geometry" />
        </mxCell>
        <mxCell id="LUO2bR_xxj8n7OCwL066-22" value="" style="shape=image;verticalLabelPosition=bottom;labelBackgroundColor=default;verticalAlign=top;aspect=fixed;imageAspect=0;image=data:image/png,iVBORw0KGgoAAAANSUhEUgAAACAAAAAgCAIAAAD8GO2jAAAAB3RJTUUH2AceDjEFjPYWaQAAB/1JREFUSIlVVkmPXlcRPVV173vvm3pwd7s9duI5bTtxAnZCCFIWQJAgCCkSgh2rKAixAIkdS/4Fg4SyyAIJJMQiisSggAgKEEcYDzgeYjtuu9tuu9tud3/9vndvHRavHUHp6kl3U+fdU6dOlbz174WmTk3KoyYnh4iRWtdNPUopZYgI4IIGQndkxhA7lfR7sSpiGa2MFoyi4k7P2Z0k3JEaHyXfcA91Sk3KqcmjJjlFVLPnzZTW6rQ5yqCrGkwzoPDSpFfaRN/Ge6EqYlWEIqgZQJLMWdwdInRpAXpMISWm7MmZM90F5iPnRpMejHx9M5OuSlMNhspYlLHX1bFeHOsWZRnKYNFUhAAIelb3DAFdkknhUhBhs0k5uzszhZnZc+2+Pho93MSjOoMURRkwodKt4lgvjHek2y3KTllECyqqYiIACMBIZKd7JkTFXWEhNfSUnaDn5GwoGw03RljPHFLMWSirQsd6YdtYNT0Ik73QiWqmqgIViAAUEQWgSkBchI5AdTEgMIlnkJ5zrlPedFsfYdhozZRIA6uIiZ7MjMWZ8WqiV/RLi4WaUkEQIlBkgYiIqjohKgIRoQtIDVsMUhqXYdZh4rDhKLvmXIG9qNu6caYfZ3phsht7VRmiBXNVqKLlpk0NQNpwf3wFqcGC5Cx0piwjlyY7ARN2FTHYZLeYGYszg7itZ92I0hjEo4oaVERUVEQBktJyBVFV38IQdwSzLXzS6VnA0tQgsNgriqlBMTNuk73Q61TdMnZLraK5im8lh4i6+2OAx7+tyq1AMFNVQgDChJVBFAwWNPTLamoQp/o66GhRVirpP2f+KaPhgeMnBjPbhRBRioiAJLClJUdbAc8kwKBCirsSxgIaTKOpCgoL/Y5u6+t4ZWURYhnXVu6+9ebPZe3h8eee/8Ybb0yPz4Qsm5GCliWgfQKFJEVcxCUHUQkmMaAsLLjEoGXQYFKF2KtivxOr0mIIMRiYu1177dWvd8vByuLC9NQsnAF0hUBJtrVQgG3pAcKDiASVMtDEoCGaBEUM1omhU4SytBDMTKOJ0DeHa2Ux+tyJ/R+v1JJSVjFPsNCWgMRWJR5LikQAqYoqKCMsWjQ18aDaCdoptSzUgqihCLJybyXVaX3t4em//enSf259sd/tzR1KbuRWI7cZ2yBAQESUgIJlkG5hvSr0qtAtQ7e0TiFllGCiKmY08/W14cL1O2fPXAJl5cIH1//ya9TLWQL+P0i2umodUJnpZBaGaGWIZQhlUZRlEcsgJmIiZlCFsAi2vja8dm1xMD0z/5mn7l49Uy9eg5CPn5DB7J6yp8yU0CSkLFqqFIoYpAjaNa3MSpOooqoW7FPTcUq3W5VVcXNx6ZPl5Rde/aoEXfroTPRNOkGyze45u2dnk7xpmFz1xsVza4sLtvEojjbRDAOabpR+qb0yFmbqbqRCwdgbjFeD3u17d97547trQz/w1Pz1i2fxaFlAZ3s855zS45NTTtle+87rGw9Xz354+u7theHmxurKvXvLS5vD9YcPVk1kbNDXllnRTlFcvHD20uULt28tjEb1qWePXr92bcM7Ow4ca3J2MnvOyd3pTs+esye6vf7jn+zcuXPQ70/PzMzu3BmKWNf1xsbG9StXrl66BDKo9HodFDo2GDwxN/fJjRt3Fm8t3b0zOdGfnpr98KPb+0+cshiz50yn0zPc4dmzMwMhx9jk/OSR+aAg3UwtiHvi/NFHq6sLCzfff+89LXT/scPb+pO7pmZeeeVrt65cfLB+/88fnH/x5KmJ7buvXr44/8yzyUkRohUP2raDIBSqJDeaRoEolERpYEFj2ZnaNdixd25q+8yF8+dikodLS1dOf/juH37/3IlTY9v6szumF9dW79+5uG3nbGqOuHUdItJAUmt6rUsFaevTbg8OUSjhzia5e0oZTx44OH/8uGooVFaX78CsXn9QlHbi5Km5/XNv/vIXH/zj70dPfiFOdOjYclQhIBCAtG9//0c5Z4BwkG0HkgBF2/lBZ53yMHmdc+x0Dh87dvDI4avXry/du9frj7344ktXr1y9fXvp4MFDpta2l3v7ZQLsW9/7Yc7Z3d1BCgEIHIDo1vRThSrFIMhwV1Td7qEj8zt37710+crS4p2vfOnLv/vtb5rRaP7Y0/WoAaTFcCID9s3v/sA9CwERQAhQaKYiBqB9hrag6hBXExcTi4OxsT279jxae3T5wvl9c3veefvtyenZPXP7Rk1DSsuDC8L9W580m0OxEGMBdwgyPcZCIFOzM9bvEk6ai6lDAHGoCsm6TiEUz5x84f2/1mt3bx7Y98SvfvbTw4eeCp1e9qSCIJIg9tLLL8dmXVPtzcibOgq8GY02NujsDfqhLCAiaCnSVhqGT4exZMfuublgsv5g9fzpf2UJR555uvEsUCUyJMSifPRoZXO4XI1PVYNJpNTtlEUskgTVQJcsBlEjhdgS+P8YJ4Cm8YOHj60s3T35+ZdOPX+KKZuaO6hgZujsOGgP7xbNKBN1k1PTLC/dLqJNTG8fGx9oLrIoVNXJ1trRThaQ3NqAJNaNH336s3U9mp6eNlF6pmo7lLVBEI0iWnW6g7HxGGMVYxpu3F+8cfns6aVrV9SbzFZm5Kdm73z8oRPJQ+yOzezaffbcOWE7+tvFyxXe1E2dPI+yb1KTFf2p2e17901s35GdH398/f7tmx1fVyRAFGxbaWtDwdaFQOPcvnvvw9X7y4sLJuLewst/AWQY6Gy813YwAAAAAElFTkSuQmCC;fontFamily=Times New Roman;fontSize=10.5;" parent="J1o6f_ijlUPL8cxEoB-2-1" vertex="1">
          <mxGeometry x="89.5" y="64" width="32" height="32" as="geometry" />
        </mxCell>
        <mxCell id="LUO2bR_xxj8n7OCwL066-23" value="" style="shape=image;verticalLabelPosition=bottom;labelBackgroundColor=default;verticalAlign=top;aspect=fixed;imageAspect=0;image=data:image/png,iVBORw0KGgoAAAANSUhEUgAAACAAAAAgCAIAAAD8GO2jAAAAB3RJTUUH2AceDi8pam9FVQAACHNJREFUSIlVVktzHFcVPufe292339PzkjSSZTkPE0MSUlQodqwgVfAPgCX8NFIV/gEsYEHASUjh2Elsx47jl2xZljTSTM/0674Oi5Yc0tWL7s15fN93vnPQWDKGAAARAYCItDZN07Vta4xp6nq5WMRxHEUxAgSeqJaLOA6DPEcmjdFMEOcBAXDGgJzgEAQBY4AIiMAQhLVgre0TEBGRq9f14fMX5WqltU7jaP7ycCnEIB+EMmgYVuVCt2HGEJliCJY7kOD5PkNH5BC5tdY55BwBCDgTiICIfXQA0NrUVbX/+Mnhi8O2a7e3NsiZsmlt22ZpDGSsam23toieF3PODamsGPucM84JEQAYYwDQgwEAAhEYY/0PAHRdtzg9e3lw8MWNG0mctKtyYzq2zjYVF2gCj5muRafL09NAGtW1hnSnbdc2URR7vh+EsgfDWANAAri4iAzAgLTTrSnPFs601epsfvzC867mRZalMWdOtQ04ppoKXCJY3Wi1XC6A8bYzp0eH+WCUDkbFeMQ5F4JbQgcoAETfCwERESLr2m5xtmAct3dm169f77Rer1av7e2Oh1kYhU2jV4uFiUCS5YI521nNjF2uquXJyVkxrgmZ7wnOmQPoKxfn5RMorVXTLZfL1bpalGvk3nRr9vDBwxf7z0+PDjcmw83Z1mCYlGenJ0eLKEuiOAQA52gwEAzpm2/uJoPTJE+3tiZE5HEGABzhHCIC4JyVy+Wnn3z6+WefvTh4uizLYVGMJtNn+09u3v5qczI6ODr88bU3jOpU48p6FchACGG1MU0zX69v3bz9s1/8MkliRw4ROWeIwL6HiBwipllurL315ZdPnz5yzsVRtPf6lWiQ1VW51p2/Ko+Pj7MkkVIWo2EUh45ocTqfn7x88Ow5IE43pmEYCeFxzhAAiQAvIEJAY1xdtQic8yAIM6W6Rrn5aZnl8XS2OxwWHiknBAtjzrzpcPzOT98V0tfWHB4dbh2eNtrb2bnMGfM4YwgIBEAAjCFeiIixNE1//v77b127lg8G2lhHYJ2zlgT3rYHJ9pV0tA0YrMr1hx9+9Ne//d2COKua2kBn6dnB/j8//sfdu7fruj5ntSe5T9DnEh4LoyCOZF2vlWo550AUx3EaxbpTbeMS6U+KpLJWBPK7J0///NFf7n13v1qvtLWNUohC6eq9994ejvJXg3WhIiBgEPjeaFS8de3qJ59fX62W1lom2Pb2dsh9AbC7Md4cDxIOam53ZsPj02e3H9xcrktrXVV3nbGALElC6wwivBqvcxUxxggsAVlntO7Go2HTVM7aq1ff3JhOY+FvT6aS1y+ffH3QtJ7gYaB0d8xh7fEWEAGNVpYQ3n7n2ubmxDkAwB4lgUAMiTHmiNVN+923D7658xWpbmOYTabDq2/s+cKDrqrOnp+p6mxZ7u7OHNivb9x7fnRSd8oiIOOeYIFnXnvjR7//3R+CIHDO9SJ65UWICEi4Kqv79+7LwJ9tTo3tBkXKnW7LdZ7EdVs9PXg5GBX7x/OHD+8/fb6vjXPMd855jCdxMCyCP/3xj++8+561DrGPjuccICIyJOvKsgwC/8qVvRc+f/zkcblcB0wUWd5oVdXt9uW9ull/cevG8fGBF/AoTYzDql5nWZqlxdU3f/LrX/0GgTtyAKzHxzkQjKFzAARd13VdNxqNl4uj07Pjk5MTGYQcuTY2TuKdSzuPHj/69ycfI+rJ5jgIZavN4dHcAeV5vrf7+gcf/HaQj60hREbUV39h14honXXO+b4vZVDX1WpVpmkSR/loY7axORkk8vGDe//5/F9R4hWjIeektF0sl1VdjUbDNE0uX96bbe1qbQXjAHSxu4gxFOcaJbQaA08IRtZq5HxjczKbXZptbyWpnB8d3Lp9M8/Tza2pUvWyXKwqTZaGeTYp8iLNZxs7HIUxlvt9B70/AyCK/oscadUpXVnbCAHbO5emk80kyTmD+fHhnbt3fCk3NqacsbpaaW3jOM648H2/GGRpnOfZKJAhY/hqkfXMnkNERNYZ65QjZUlFsdwSUylDRNd17fxkXtfVzqVLYShXq6VxLggDP5C+L4tinMbJbPtynGZRmvDehgCIzk8IxAs3NdpYa7tOt00bRSEhCsGIqK7qpmkmk0mchOuqarWWcSisIOekDIrBsBiMNme7eTEKQomc9eRebOWLBIwh5yLwYwY+OSFEIIRq27ptVVu3QgjpeVp1neq44B753boNAl9KGcfxdLKZ5cMwTpngRL2DXtjn+SIGQIZe4HlSZsUoTBNHplotzuYv6/VSCAwj2bb1ulp2qgFyRhsAJsM0y4pERoMsH06mvhTOWQBH4AAdIAESAAECIwACAgbAQfj+YDhEhLZurNGcOQSzXi9X62VdV0q1TVMrpbQyCCKO01BGgR+EUZTlqe8Lxvr5uniRvndTBPB9Efh+EIRSxs6BtZYx6HS7rtZKKaVU3bbGGkSs68oZ43MvTvIwyYwxSqk4jhF/AM73EJ2z4WEYyVBGvhdy5hGRdVqbBlAT2LbttFaASETOOQbgCT8fjLN8PBgUaZoKIVhvagCI+Or8YsaaftYYA4aYJFmeD6WMELFt66oq63q1WpXWOUAmOGeMJXE8SLPpZDrd3M6L0XgyjqII/+/5QQf7B0+dBSBkxADAOAhkEkjJuHBETd2dnZWrqqq7xlirtQl8b1wU48nG1vaV4Wg6moxCKRGAITJEjoAIPcN9Jvblnf8q2zHGwBEBCSGCMArDKAgkACfgnicJse5aYx0RST8Y5Pl4uiE8aYl83zs/yy/2MAIR9mpFABCP9u99+3BvMpzk8VirDsB5QhTFcFmeLpZz3/NJogUg5ODA86TvyzTLh5NJOsgHw8IPJTEAAIa9VtCRs+Q8JnoS/gcozLoFr64vewAAAABJRU5ErkJggg==;fontFamily=Times New Roman;fontSize=10.5;" parent="J1o6f_ijlUPL8cxEoB-2-1" vertex="1">
          <mxGeometry x="121.5" y="64" width="32" height="32" as="geometry" />
        </mxCell>
        <mxCell id="LUO2bR_xxj8n7OCwL066-24" value="" style="shape=image;verticalLabelPosition=bottom;labelBackgroundColor=default;verticalAlign=top;aspect=fixed;imageAspect=0;image=data:image/png,iVBORw0KGgoAAAANSUhEUgAAACAAAAAgCAIAAAD8GO2jAAAAB3RJTUUH2AceDisJNW2gmQAACShJREFUSIkl0GuPnOdZAOD7vp/Te5rTOzPrPTheb5o4TmLcJMUtREgVFL6FVrSI35Y/wQe+VEgkohKoUUFuKHRjZx079p53Z3ZmZ+Y9PWc+9PoJF37++efIqDPaOdfMl2Y276Fsh0mrgBgYpxlRLy8B2HK5OLs8rnzFBQNPUgipKFFcKEQi631EYCCdNc47zoQgghg5F1xwkQWSy6W60bkr1KC0d3bW49RKBETnzOL25vC7Z4vbW9OZJEkYMiYVl2ShqW0jEKSSwRH4SCw4GwAwInXOWNdy7yPpjv3v8+L12WA0LnbvtTlvY1vryETKGbchtMYisLJfqql05IlRhOCj1Q6tbwC8NSFGiNZHD1JJxjgA+oARgSslsa1wvopZ2t4du4Ny+uSTYZHX37349uXRplpWutLeUYYQQmWqrjWJEkoKAshkYgMikNbeBydlSoQxRu+Dj44LnvCEI5AFfZ3bi9lq+Oymf/wiWNv/y5/89NNPd3fu/PrLXy/mN5FZxggjQ0TgzpP1KL3z4FFKRcgEUyEGZ533wfkYY/DBOG8IiX32979AyR0HdnqZzBfVfGk6J959e3p3+wdv3S/Lycn5m8V6BhAwAkJgjCJwxoAIAJEIiKK1JkIQXBAjLmUEIGIxMgic/eMvf5UXfaUpO7sOy9VSiHf+6bN3fvJDhsS5mE7uDIr+2cVZVVWEjHOByLx3um2bqnM+2uCcDyE6p63V3ltvqg4cJCLPWBY18ICh1c1tbJ0MDIEd7CXv7GjdYiCbOkH8R49/3Dn7L//6zxfXp/XaAYKQYFt0Ggh02ktVP2GIUWDK80HSd50TQj1+/HjUHzz9+vfsp3/z1yfnJy+vTmbYmjLrH0wne2NtwHmESHXVBh937+w6Ey7n1wQsk1meDMr+nZ3x9lY5LVSWqETJfG+6+8vP/mE63Lq6nDlvWtte1Ve3Zs5+/oufd6Zrdb30Vdvj/X7ez7jxfrHYNLXeVJuu00rK3e2d65vzm9XlYDBkXET407D3YAzUELq9wQ5nyVe/e3o9mzeb6tmzw8rcWKrZo0/+bFVXre2MsdHFtjIsmCIJi9u6qrsYPSOy1jEu+r3+8fHrdbVEBsbqTte63Xhjt8s7f/7ox5lIv/rdf99WTVL06rabz2Zt12ZFytu2vVktIjkhSTAJHhZrqy4uI2FDG+dbY9rNZpOvbnu94V89+dv/+K8vsyIbDyeSknIw3N+7t79/MJ3egeDv7j/94t9/883R0dn5hdFVWHf9Sc4XixvrdNJjxJER5jKZTneyvP/dq2/G424+u5rNFlnS299/mwvVrt2nj3/20SePhsMBJ6mkUIkCgBDD7XLZtW05GiLG4HSeCyUTAuIGNMlgrONIQnKkGAMx0dvd/eDy6nSxuD49vXjw4OH+/rtbW1uCqcFwsLu9AxARERF11wEAIBhn5ov5en3LwHvbqrI/6GeMA88HRQzeBYcU27YmwqZzhTWMyYvz5dn52Waz8d72eqocDfbfurtYLEMIUkqAABGM9zFC8J6Iffjho29fHJ2eniaFnG4Po3cqS9j7T+4hBmI8BggBvffNspNcbJr68PDw/PwsRhSCdrf708koUESkRCVEwBi3Tp+fvjw9O4mEbVNXTYMYL2fnLKEyTVAwEIJ98OSACQYUEAMSRICu1u26S9N0vVklSdLrFYxxxWk0iIKRTDNAbfRad+vN8uL41fM3J69Xm1UI9o9//INUUgi2WM4jkiHwwfG6doCBEQZwCIQYWQ7Nutps0nv33irLcZ4naZZOxpNNXc//57dcFbs7E8Yii+B16xxjTAgB85vZcnn9xRdfpoM0G+ZluWON2VQzrutom41IuMo5YiQgZ92o6Fnb9rJiOh2W41GepzESYXH07fNvn//m/YfvTbcmbWMZp/s/+KicpNPt4uunT7/67X8GQf1hnhe9PFc1uKyfsQ8fPtrul0Ko4AE8F5gFj6jEqNenYOtmEzwMhj3BMUYalburtT0+n0Wiy+t5BNa19TeHR1IUpt28mZ+MD7aEkgBkXOOhjRjYp3/3FzLlwEBIkaVZVmRC8Eghckg4w2AZc0TAGLS67vXKjz9+8u6D926X3bNnr7TRm83i6MWrddUAuSrWUQZC4siJXAjath3bf7hXtc16s4khEgvaNFrXQDYys1lW16cz75qu64grxmSW5kLwIu9r7U6OL6TqDUc743Jrtby5ub0mScQRYnC6ZeSFFJwj55iKTMQkMACrrY+2bZoIJBMBJgLymwW8fvPqZuk+/uhHL1++8e57JNKd3ru70+v1t7a2dLu6nn+flJkJpltrpRhR9B68cYoxLrn0uoUA1pEPngveUyMfPDKgvhNDQQ61xeM3r4320cfZzaIcle9/8PDg4P54PNJdffj8+dqvCRLOpGTeuxg4OWtEgEk54YKkgoRxhgmzoQuxY4yAoLONM8FiS0TFNAmNOzl+wVGNt7cevHf//v2d0WhQVfNvjv7v+6s3Nnp3Oe/3B0TYNA1LYpKw0TB9+HDMBXGplI+hs02t1961HGMI0WrnXOCJFBI6W2+nenJA845vTWTwN8+OjrVx2oXaWZVmKSIxjsghIgbnNt6YONgb9tOcI0GlVy6aGEKMJgbbNlbrLgZoayskEwlTHO7ujReNOb2aI3hFy5XtrtZO5UKpIpUZyegjVzHz1pfDRDLpfSMhlzDht+ultq31FiMieYQQAZDAWRPBW+N94OWkUCLnvG/0utqs3vlh+W9f3647LCKYbpMkDp1UkpEMQggECCFQSBQVqRxw5z3nMkaOPjRVzRWLAQJwLplSqKSUyLZHA91R03aDcjDIXaomnZ0TBNORTNDoGGPHIpnIIGiGXHJVpNn9gwdZXnKKQnElMRKC5FI767CLFDkICg6QsizXPj6/3FwsVp11b5fblRtymXGnheKMEkYJkXOGBHAukBHJVHnwv//D4eEz5IPBqJdlXdd11gDD0DVRB2MdCWJSamvP17XgxBkfjwajtNgtty6ultp2xISSGeOSiGVZjyIwgF5WCCFDRIjRR2M944HbNratayNEFEiBcRCKEudiay3jBAGdx7LXuzsZJkKua9OalTfAUoYISI4ROtMphYJnIfg8RyXT0agYj5MsU/8PenGA9ITCy9EAAAAASUVORK5CYII=;fontFamily=Times New Roman;fontSize=10.5;" parent="J1o6f_ijlUPL8cxEoB-2-1" vertex="1">
          <mxGeometry x="153.5" y="64" width="32" height="32" as="geometry" />
        </mxCell>
        <mxCell id="LUO2bR_xxj8n7OCwL066-28" value="" style="shape=image;verticalLabelPosition=bottom;labelBackgroundColor=default;verticalAlign=top;aspect=fixed;imageAspect=0;image=data:image/png,iVBORw0KGgoAAAANSUhEUgAAACAAAAAgCAIAAAD8GO2jAAAAB3RJTUUH2AcfACwFwbgwGgAACHBJREFUSIkFwclyZcdxANCsrKyqO70BDw2APbhNS4qgtFB4iPDeEf5Mr7z1J/gXvFLQCtOkxZ5ENhoN4A13qikzfY759//4N1GiUNHHeR1zrne3b/ebAwgz0rAZ4jJaUxTzksduO8x5UfUcybCATcf1GQCsdQbsfntDZB+e3j18eUC5dtPbD3+6J0ny/fd/soEFkgu+VP7046O3ZFAruGHYgjLnJcWTQtxfbQt2Va1wJmPHac6QvXdcS+HStwNoGKevhWdIJzlefvr+/6jWc84nhzamGBiQgjAoMjVhTfy4HJULkvrGC9dprlyrIaOai6iHEKQzyaAxS5xSLpXVqDPsNLplXJd4IoZFTK2CLMWQkHc8567dUNOK5cq1ZqVgrAPnGudCnIuzrnJTZA0BDBhm5qpd3y8xlZqsg5K9clOVBSspmqoA4nzj0XHb+SoWCKc4oe+MgYbIoUk5FgZrPBoBqNvtlZjuPD2rIeu7yzrXJSKosRDT2jaHxH3kx6KFhr4NHXVNZwNIiY3QSjRBVLyYUoPrHQXNybsh8mmdT13YM9hlrVkWNZBLQnVkG+ZRtTS+9xQQmjGxQgUQcggGANES+swJKgffEoqVJs9qhTkW25CoKUUJDDuL1JC1zNYAWlBHxiFy1RjzXBiNgUxpAeUKIvj08FhyAUALTes3YIxFQTAE3dXuZtPvG7+JRR2FN7e/3Q43rFaBQExjgyQJzhMCaDEKzjUGtdZYK0oBKUWESYy15Jg5rpJTLvmh3/ToMRuPnrRa117fNnd/c/vSoX//5d3zdBSVWHPNqxpKkRGTClTmGKuKgBKy5ZKlZOFKC6sYYE4Gg6EOMVWsBNahTbls2quXt992rmlUHn49qgmZo7IKCCMEPyzTbK2qSkw1J0irQWOGYKRmYQZQMk3HgGIMECIaq2SsKqhRc729/uMf/qlkqkvmZeFsqAlgoGLMVdG4wupdyDlZY4duSxtfEqaV48K5rqoMohSGjTFBKHx6+Gsu03a/O1ztCK0l2vXbm8Mmsa1L4tgVxPP9EY0/r/dk+waH8flc5lkqXO9f9G0TZeqC96abLucqWbUaBUIjKa1N15PFKqgoRZJFN45n+w22nYOslr2AMQilVKmAgjWXYbethX/5+DS0TUUoSy1aFqhVa8mJpbAwAmJJU+U4T6fr66vD4YDGrnOezpl0OOxfpaharTCoym63ffPmzW44NBi2oe+xX56K17Z1zXoZMXM51+WYpUBNiTkLM1kikFglIXYh2HZzNY+sq9k3hz7cvfvL0+ePzy+/ebXbDYTQ9+3fbr4dy/jl6S9o4Pnr8+cPv5ITdxfm8WzOuTAIBWaQkplrKSWQJy4r1xw8rXGUhFv35iq8IgmPp9OXTz9LnXfdz7/53dvf/ubbbuj7btjvbwrrPD2/7G/+8R/+flyeD293p1N//OXp4fH+8PKt1Mq5MFdV3Q47dLa92l6VlI/3Z1yaLd1qaaZzWs9rjauUcjw+/fm//+fjx1/GeV7icrh5Ya3v+/67736/2b2IJYfeYYd2240pWudKKVlyqRGd9X1H++1t457neblqX73e/K6MNM3ndZpMkWARbWNQ1yX//O5jf7VLysOL3d316zffvLjevvzPn/7rh5++L93zJY5Qu9AP1rqyjEVLyetmuIrM9HQ+X8ZpMxze3vxe1nAZp+PxVFJsqWFAMuAs7fb7ZY2X82iJeI7/8s//qlV+/N/3YNah858+vk8mDf3tzatbsJA5VxGrGCxNy0qxFFbo+xevXn/34cfPtY5oUFVjyc5YCsF3zeFwfbqcLtMp8fz0BFLMp0/3cxqn+OX6brPYYtGEhnxoc8opL8wVFPrWMwJl5lx56F/sdt8s+YMY3W43h8NVXONlPCsaQwgBw9a/v/8p5QsZM0/56encdE7COly1aIclrY1vyGCa1xTntC7O4+H1lZ5PZIhYNPgNGFKUpnWmatd2L25uz+enYdOw8pinMT4+XD71PWBo+9653cYYw+JOy5OYGvpu3x/4YnNcHULnw3AYukP7efxMVsAqzXH5cvp1TYsDt913uZQ1ra//7rrfuPuHr+8+/bTmr0hLaLfn6REkBArkzRrjMsW7N9fWtI3dTCBgWbEs80Ibezo/z5eJGm+946/HH47T+9D0vbsxVlK8HJ/vJ1GwpbD1XW23rRRuAlXpcjKq2Vhq23bTvfWt8W4oMygU16BomZbzHgcigwI0TseYz/kYFeVmc3c53se1Vo7GzPlUBKTrDsP+JuVEjlzj9u1mXaLIKebUdHeebOJFVVTjePk8zxc06oOEHgQKOqVpupQMhD7zvLgZZMk4uQZJCS1a6xVwGscqqyMdl7lpGxf8umYBzaUQGTAmpVSSsixqotpiG5NkneMUU6Tb29vHz8mGzjW7IXTrvLCNTedt6SyZyqLqcqoCRgGq1DVfGtdeziUzd13BglU0GLvM45yiYlSfmu2m6FKkGmNpvCyn8wN62B2uPVKtINIsM28I05pZRYFd23jyzMkYywyVUaFTjTHnNaVSSm85xpyrGJ/Z5v7qpRCUypWV5lkvl1MXuogZu4t3XmtkKXMqzpF3Di0yinFg0fCCXbcpGtGhhSblHMsMtczL0ZvBt81xqiJscIVqi3LKkZx1h91d33QGrRSuWgJ5BURy5H3OmVByWqXw0PZDO6TEx/EJoCxLacJAYrlGUK6S22EY5xasI2NVDVcBBVLNwC7nUnhp24GrAECqWSmDrkRUyuSsM9bwcoGWxnH5+vAIhtG4MosFrVysNZlXyk3nh6enrxGmrm9qTeuS6ccf/vzhhycgRWusdQBkrRFJKhUxAEBKkyVHwbNwMEEVL9NYa/K+VQarglYUJRcW/asxME2ztc4YZanC8v+YKh85kPzA5wAAAABJRU5ErkJggg==;fontFamily=Times New Roman;fontSize=10.5;" parent="J1o6f_ijlUPL8cxEoB-2-1" vertex="1">
          <mxGeometry x="185.5" y="96" width="32" height="32" as="geometry" />
        </mxCell>
        <mxCell id="LUO2bR_xxj8n7OCwL066-29" value="" style="shape=image;verticalLabelPosition=bottom;labelBackgroundColor=default;verticalAlign=top;aspect=fixed;imageAspect=0;image=data:image/png,iVBORw0KGgoAAAANSUhEUgAAACAAAAAgCAIAAAD8GO2jAAAAB3RJTUUH2AcfAC4IjT8uJQAACdxJREFUSIkFwUlvHNlhAOBXb6196ape2d2UqCEpjqXxeIAxkBhBgASBESAOkJPhv+CDgxzzl3LMJfEpQWAnGWQMzSJxhotIkVTvXVVd+/5evk/69T/+4vbmsD9sf/XrL1QKecJ++dc/77lsfwgub+7diYowvnr38as/3JyeHhGZPC2D9Tps8u7z15+XVbJLV8fPRxcXJ/5+H4dxXdXRod58LGS9GUxHsjAwUdHZF0d/Pjifz7SXL8YTZ4ig2OeHNzfvVutU7T+Pd/vHJ7/mPK0zf5m3Jbh4+YKYlHGWb2NX03le7oIYYlmwskWirVvzSBU8P8ThsaPhME4GM3B2Pj6fP+tpBgQgrevHzUfTM6tGu7vZ3N9sbq8242kvr7rBxBz3x4hIRZtQUDYCj5Vjx3PXVdRWjYIVRFiRF66hyNjYbvaL5R1eLMOizqeW+WfnPwU5fXN5tSnjjqS8ldK98vVX77erHFOkqphANBj0D3m+u/W/+ORUs+zl5h1RIUaSTImM5Z7h+HGyv1/YIwY7LAu1BBJO/BY3sMrw08f17//1zbvLBTJEf2yEmzwJJAFrgsloapsWmU1HZds9PQae4pwfnXzY+Hdvt2W/fomqoPDvvo/6bDA570GEBUcPD9s87oRCELMghQTQrkPFv//bm2/fLDsO6lzaPCX7daQYUn9imY5pGnZTVDs/SMNy5lmaAr65vgv3fLuPX5x4ikKufkivv91jSxg93FXS/WOY7pssbLGpqxCTIM6jpOs4OD6bDmY2EN3M0psU7IN9XXT+Otdxf3nYyw6wVcZk8PXV9eVVsF3WOuVZWGmObGrSUuo+Ln1TdR9vN7f32+mg9+rTObr47FNKgGbD7TrhFZrNnNNPXd2Wnh33g036cB+GYcaQ4li6kFJZA0PXW22226DZ3NVR0B6Nh8QECoM9nTgjB5Lu7tvN7bt9DbmiNyMHw7/9q1+dHp2O9IlJjnRojzRHrqFNFUtWdUXFWHIcy3PpsI9Ono8c01jvmu/eZXU64LUNkEW5nAX52z998JTZ6Zmb7uPvv/64D2LMcCvgj48bPPT6z6d/96e3f2zreDaST8dzVWNvH779v29u399sEG4Mk4/GjCh1nOVFxRcrsvdtFZulVFFTjf1MJ9LtVbj98X/tE7F5TKmiMRNqulYWHe84fvf2x0O+T7J1GAWwQyPT+fnLnzVd9j//9ePD3c6dqOOBOToaPyw/dm0XB6IrbE1WZR2zlKOOGFpPQfLIhHldLm+SnV80vFWRUR5KhIWu6sjt9374cDX0bJlIh33RFpIuEwSlYJ/Nps8GQ0f3YFE1waZNVqKJOoQ7VRejoa3gZmTqqtRQCUoAWpYBJZTGua6YMlXjJOs6QLBA5pBwtVNkqY5Kf10oxLANOnQG0+HRZDBUGK15m2eiOUBT6lEsY6s6eqHPZoMOJQw0StuYstkJkOdFU7YK1SzNIYimSZ4kBQIcl6nvOu5mvf7w/WY2/ETXFEmANM1lioBoJF33mBPlRUXaNu+CIq1Icno+6SnaYZ8C3ilU88M4zCooSYRQCRJGMMAqgjCMo7QI0G9/8xtS8TyuKPbOTs+Hru4aapYnigFMDXuGrWImGq6pNuC4qMoaZPOpO1EV+LQ0MhiG9XcPvh/lTdtRmckKoUSCgFOENUVBmKF//t0/9RQviSPD1GeTqcwglsRsaAzH1saPEUeuoSZFlddcZrLrelnZroIAVvEgz5scfrctV4dsFxzaDimMEMS7pkQSKOoMMqBpKvqHv/+b0+mLsiwl2sqE9HSFQaRRugu3ZQlO5s+dXm8bZS0kVdUACdYt2gQhAd1Eg4ngG0Rq0dimBiEWXECAKZKhCoTM666OogSNJsQicitg1TZR4NsqOB71kkNy98NbFcLPXr0qOXxY7z8sVh0XCOK6bDFVUSudzW3qKaxvMgUaSi9NKiEJx/WaRmzzR31Eqrrx/Rhfrq/SLIKNQaBqKHQ6tbvmsF99mNsag6AuirhCi8Vyvfjo9sdtU5uKM+hNtqsHIdHPvpxP22q53P/n7+9sW9E91kltVEbDoXZ8Yl82Tx1t0PBn3jpbB344tnsDz9Q08uHDcr1YKUjY3vwnv/jl42p7fXWJsRQnMaNk4g5U3eACqAoo9Grlf0zzg2OpoyODswwoPMmDv/jy/NWr+bbch4cSHb3uTyY9QqhUQw2T3WptKNarixfucGrPf2o/u3h8fO/7+6JuGKF5WbYtd1yXMCoIv0/fXy/fL9YbwmpvaBRVER+CViok0vKibCDQ7QG2mDK3vfeHx10dfaKfzI6fHx9PkcgMZ2Idnfr5IiwifTgshLAZrjvetiA8BC3AOmV1SZ+e4rauwkNxv0g0Kls6Q6p0tVlUUVEK/n4TY0ZAEh80Hd8nm00TPetf3DbxenljhUvdv4zSYBNlsmJ8cj6ASVnm1fz4ZZCCP3xzmd/nWfkQl2lvquS1SIuEkdixVYFJVTZRVyCmlHmLMQaGZdjMWJV1ILL/fv9V1K04CLVcVkLWs8zO7gRMJoNX4XWd1RUG3ND1IDncPlzrWn1yPutNUMcqymhd1oqsZkVl6ipjWhBlHUA4ryo/Tr2BNhr1Opisy6WoE82hHW0EJdbYI1WB8orRFkpCM2zNMNO4tFzlc2d29tolFt7uH2TETFPPcaaqOhCdIRNORYm6BsrIO5cdy6CyiNNIkNowSF+xREMIVRGlEoFtIWlC8bAer5O05LpqPO5Wl4vL2ZRYx8gvt5jz2fAF4xQSRAngoiGMpg0XUCHIxFgivO3qhtjWBEIOQdnwlhKCCMuLEvB86HkkVykh05nnJKJv4etdOj9TTi/6N+GTJPh84AqUvnz2OjCO3lz+B2ZII3Z92M1G7vgM47OTY9hWdcF1S3t6ujEdTBhjBvaGtoxkWxOEQoGkFvNa1PkhyhjpW1hWXczaqsr7mu2o9mO0SsVB9P6SXrDk8o+sZEdD+tmpqdAcboO2SjMLs93Dg6Prg543HnqToZP42yQKk7btqo4CiFQGOSRQVmSVIXgyHKRV0jSla1gq0xBEdbe/fvsvvK7U4UVF01fn5LQnytzHh5qoDEhUc0aG6025VLt94Dl4attFg+8Oa2JoE0tDTJg9zUE2RDBtqp5sRbuMAw6RtPKXXZeVpc3K2/B2dciPaLdJYoHN1wzryD0b9UZ2/+zLwYufhJlKlElL6qLaHrn22fEFELBCJUO8kQrbc8+Gc2rSRK7DdvsYbQQHA9vNyrKsGi6LQlQIdrXvU5Fi1jFZ8cMQFbhfkTG1Xi4Wfn64n4+niJl5sxMkVDX26ahv63ImibapGiQocw6g5DRcFOs0y3kDTofPyrZRGAOoTaqCAK2tWiJVoC0HupfH1f8DrT+OnMVPgSYAAAAASUVORK5CYII=;fontFamily=Times New Roman;fontSize=10.5;" parent="J1o6f_ijlUPL8cxEoB-2-1" vertex="1">
          <mxGeometry x="57.5" y="96" width="32" height="32" as="geometry" />
        </mxCell>
        <mxCell id="LUO2bR_xxj8n7OCwL066-30" value="" style="shape=image;verticalLabelPosition=bottom;labelBackgroundColor=default;verticalAlign=top;aspect=fixed;imageAspect=0;image=data:image/png,iVBORw0KGgoAAAANSUhEUgAAACAAAAAgCAIAAAD8GO2jAAAAB3RJTUUH2AcfACwHL7ZRNgAABytJREFUSIk9VsuuZLlxjEiS51FV9/Zz2uOxBMtjG9DCWuhHvPbfeuUvMLTyxjPTaKhHffs+quo8SGaGFtUSQBAkQTCDGZmRyfm//igioBPSQYzwh7a5kYIFKQiCQgIEIACBAAmSZqCBBCEAAGFmt3MKIJARMmNm+uHu7X/8w28m4//83//+ZV+2CAiE7swGKyE8rpsUIEAIpJGBb1vSSJCABEABIwCQGbWzpLHk99Pht/PpFe1hOPH58tiqlfJmnv74239+f/fqcV3/+09/et6XrhBJAqRoJHVbG5mSzCDCjDAaAeToDYrwWB8/PfllsPxDWyzivDfr8U/3d78bDsbxuu/cXFuXAiAMIGkEwWRKBAwEIMJIQECQZEZEihj3NqG7Kb95/Yff//ib5/PD18fLy3Pu55dff3rp6f+/vizPj949AJIw4jYnIplKIgD+/WkAgkFATuQIvc72j/M8SC8vF7jV1sMjl2FK+edfPv75afmyhdwZogAS9jcziRgSIJBggCQIBsIAwJCZaMCU7LvXdx9KiXV9+OXnLi/zOA/D07kuVa6cLHKL1F2hgATIiERmAyGjzCwZw2CiiBvHYCasFDtN05t333//5kNCnr97bPul18u+nZfdU05C9fAB2gPyCAIUQ6KFvoUoIUlUQHaLH4ASchLGMh5P92W+O7z7/nR6d/iwP3z5tF2+2vlxrL9GPCN8MnOzlb4TMIB2AwiBtxTRDTSAW+oIJKHct9rL0DtyGYphYLORfc65ETuOc3n35gTiZanruk+gLG0KB0B+Qy8hBAkS8c03Am42ct/blrfruL5crtu+H6bam4dX77W3jb6ORcNALAH3o5WRaQnfEE3RJd1iJnQbCkGidGMAQKbBvW1tdflW1y8P9cvnz3/+9HG5nFvdtu3yfG1P5+182caxhEzuufvJmIeihIvaFtF7yALs+ruTEJLBLJvZkPMwjLX6z798ujw9ffr4cbteKCWj93bd2l6bFInm7mpBdwbGjPt5+Je7w+fr+mXv59XDM7tjcPSMklgyM1P+11dDGeZpRK2Xx8fnr1/PL88555RM0ra36hFisvQ3XyMZpmJzikOO+4zRCoPeordOFyNu1yAISOnH14HYW03SZJwTs2EYM01SpJwCDBEBAilxGu10GA4D7g/lOBWDhZt39CqvLki3xxWSJGSA3bW778ec5uPRWIhedxc4WGu9teq9lUGHYTKCUiLGPFNq3a+7dwFiFod+Qy/BI9w86MoyAujCed8et1JS8rWiOaTuuCztstZkenWYvnt9UtvDO8z26mvV1rm47a3XHoSGhL137jQkBSECntK/v6WZiNpaSjaM42Ga9rVe13pe9ofnZW/x6nT84fs3pzGZJKkrLks9L32t3iNSzinllEgyeoR7eFhKN8HKEJBIWIv4vFwljW/eb7CXtT4/X67XPdMCSIm9t9ZRb1IoS+RcMBQ2ce8KwajDkNhkHrV5WFIg04MSzEAu7r9ua7o8vyvFLW/Vu2i3v9IslQ5fm29bD2EcU8lpLPnpWru31j0nOxSbq15WvyJ2eRPyN+2IAA3E4v7T+XGzacwc5rn1rYe3QA3ue325rHttQOruQLTg5nHevfYwIFElFWRMGSFElzO+kWyCEBACbLIv3F8Pab4/+HkNj8taH56vvi1tb3HTz2BENK+1LY4kAKJHdG/d5SIDBeqMlP7tLQEpEMGAOVPQCVHyiGsNj1LSUBIkmNESeaNBltI4jqC1Ht0j5yFAkTATKMERmWaApGBIIYUCjmAvxUua7+Zrba351pHDS7JiyYicU22OG7FjOowZYEp5r23Z67pVAIpAKCMlwCFGgCF0jxAB71LO02ncX2zd9q9Pl/evDjALyLt3D0uZlrqiNw+PCIWw9V7dW48e8pCAbABEgUqJEkTI1b35vnvHdJCxNtd1vzse53ky+bpf9tpatBBD4R7uco/u4bciQUTcegDlTCtmQ7bL3rpFJLvVJnnv3pv6ME/zcJrn2QpalwBasawiBCyg/bp0j5vEhYcAA4zIqRRjntTuE04Gol/cqysCSSq0IbRfdu+SortPQxGzlfzq9PruOB/mcRgKE78+Pi7Xbdu2dVnlFdEpheBic+Tf3Q8jtW/+4+v5WvVwbV/OqzlONhxhy9N533yTbWtblnx3nO+Ph1LYxTyMp7vDPOYP798c5kMpZV0W9EVtg+8Efvr46ZfPX/PH8zJlTLlk7+fqlx6ec0S87Pt1623fwmVIo7Ng6MFl780vy7rutV6vS0kahlxKHoYyDOVuHsbj0WLc901WSh45/+cf5oFvB9XQpXNzIhitqXW0xr1rq9g6a5ijpFRSGswyMZV0nKb708EIUGYcx8F7v3XAL9flL08vz61mOxxawhdCVGT71hTeioUCkkWgB7qjeXfvrS21WYssDua/tjUibm2j7ZsbHHLAE/XhLabxry0XmL5MWowFAAAAAElFTkSuQmCC;fontFamily=Times New Roman;fontSize=10.5;" parent="J1o6f_ijlUPL8cxEoB-2-1" vertex="1">
          <mxGeometry x="89.5" y="96" width="32" height="32" as="geometry" />
        </mxCell>
        <mxCell id="LUO2bR_xxj8n7OCwL066-31" value="" style="shape=image;verticalLabelPosition=bottom;labelBackgroundColor=default;verticalAlign=top;aspect=fixed;imageAspect=0;image=data:image/png,iVBORw0KGgoAAAANSUhEUgAAACAAAAAgCAIAAAD8GO2jAAAAB3RJTUUH2AcfACsnW5nnOQAACZFJREFUSIk1k1uPXeddh9/D/z2sw15r79l7z9hz8tgeJz51jNOxHTdYIlIQVBFFIFXABYgLJCSkNvQTwR0XoIIEFGGQQAlu0wJR0jhtjB3HM54Zz559Xnvttd71Hrmw+nyA3+/i0YN/8MfvSBljkJgwhJkLBDPRP7++2uvOJ2c/+eg/db0gyBEWyc5mu7vW7610O23JWVkU4+EAfB3JKF1Zi/KuQyQEj4NzjiAacSEwDhAQRhgjhBDCASHr7HQ2fXb4XGu9LKrZZA4EYhHb4PTgULuvBaMrnfb5tf7W5iZlMfVIxAlm3CGijNe6oQQxQgRpBCEYBwBKEcIIoRDCdDo5ODo5HU2VQxhTKZM46wPlXEQMYYEwJtgZvayar74+OjoeeGsCskwI7ZGxvp23rl7efmNnsyUkZyYVnBAEBHnknUd+Mp89e/5yMJx4KgiPZBSnaQsTqppmvDhTtQo+JEnSbucySRuljk7PBoOBdpYC5K300s721UsXru5stGOGEEKYeyICIWC1plQWi/rwaHA2XVaWEkyxcSLG1tn5dFJVlbVWN423ppjh6TRpZbmUMZUxRK16Nm1Fcn9v78H9/fO9DLk6eEswos5jGxCjYAIvC3VwMhxOl5WxlbHIeQaAF3g+n3vvjTHOOUrJWu8cBRhPpmeDgZBx1u7ESVJVqjZuVpTamKZRThUQLKGM8oCACqD0yoWNF0eDSVE5ylVApVLWOuQ9xthaa611zgHArb1bb9+72263rfMAzFg3nc0Y4yJKa9U42+Rp1O+kDBniG0oxYcCk4DKmEsikWFIZUxF5Aspabx0OwYfgvbfWam0A4NLly1fffLPdbsdpKqN4uaxns3lV14FwTCgHnAjSy+IsAhosJggBYyLiIqaUU2U9AU4IpwQYBme9sc65YF1AmASEG21Go/F4OtXWp2kmRUQJIBe0MmXdEIolDeu99pu7O91uh8mYRjGLUh5lPGrTVp54hELAQBkQIJjoplGNBsYJpRiTEJDzflnVL49OTk8H1hpKA8GWgTN2uagUxbibJ7/xzt29m9ejOMZcUBGJOCZUijin3W4uhBBcBoSDDwjhRjdVXRFKGGOvHYQQCCGUsFpVg9Nj1ZRZLs+da4egy1JFXF7Z2Xjv3QeddotLSYABQBRJhFm70wcUkBCCM2ltMMZiHKSMoqhRjXpdH8YYIeScoxQBBYLCaDjTyqz1uwQTScXG+vrFC9utNKGEYgqUchQMAA6ISiGACYkJGOcbreuqRpgIwWXEXTDWaIQwpSCEoIQyAEKw9y4Ev6z02dmCMx4k6WbsYrdNMKoDYh576i3xiHACDBgHymIXUFVVi8VCKYUQEoIzDlIIz8E5zxmjlHZXOhc2zs2L4sXRCaYsTRLifZawd+/dfnBpd6vXV7kklvQG81CcLTjSUVuurMWEwXg8llJaa7XW1lrvgzWBcxxFAhgAWIQtZT5fCee2vD5UGGMcWmqJKKnSNXFnc3u1f74ShA1O6Uc/cx9+2plXnU5v1FvTN6+SP1qDsiy11pxzALDWIuRRQMYYjENMRRxJ1Sy0Ma00VUqdHL9SChPSoOC8nY/G5mD5UprW6gjjHz+KDz7rZUrMFvLFIh0vTylAUQHnnFKKMcYYE0IwxggjoIExhLHXjdZNcM5/+YtTSfFwrBymwAtK8ObW1v6v3ehlks8H7qt6Oni2/YfXu7t9/TePyT9/BXYuTAUeQRzHABBCaJoGIcQYy7JWHEdKKaWUtVY3DmMyGi6cdpSQvJ30Vlfu3b/7+3/w3Ws3rqHli9mjn6rPPluOqqN/+T+fH2VfjEVjlGBNFOEsB+eclBJjDABa606ns7+/XxTF48ePvUdJkgIwQkgIQRt97fq197/9W9+6u793/VqnlZvx+Oh/Dr/80U/GH//vzrBY/9K1dcWRD0ACz4xISZZBWZYYYyklIeT10Hg8ns/n5Ff0er26rqez6c7lC9/7y794/7ffSzCefvX1z//+nw4+fHTw5Ivy4OX5QnVaLddFcxUSbSJP5xQWaeyzBBBCy+WSEBJFkdZ6Npt9/vnn4VdYa8uyNMZcvLTzZ3/6J++9fc8cv/qPf3v45ONHeDZBjWJbaezacemr1d5yrWWJz5dGzMsTF+iV9ZCnkKSJUgpj7J33zqGAjNbWOQYADOqqDiHcu3f3gx988O6v3y2fPvvwb//u6eNP23kUr8WF1aaoVU+MuiTNedaRIk0PMaC6EILt3NwCwHR3dzM4g4Kvy0rVjfeIIMSA9Lqdfq87GY/zLPvg+9/7zvvfnj395Sd//Vcnn/4stCMFrJiXx+NXQUSt7mbgmcWhMXPdFKZWlS1lTgQOaZrR7//5d4NVR0eHi6r0BCV5tr29ubO9ef/te/fv3cUITSfjYj4tXx5NfvTQ/NdHvB4viH5VVE+fn80bIjmjlgTDcMCYhKZpRsNJqSZXrq0gr4qiguu7b3AQjXbHg6FsZbduf/P2N/Y6aUtyQSjpdzvfuP7Gy5cvP/nvn97xaHtlzUpXr2fHo2lt59vn+gQPRsNTDmsIMR9UY6tq2SQrVqY4pXQxH8LxQK2uXvq975yv1BITFCex5CSYRntHCOmvtNfuv23230IEZSj0pyp4hECffPHja9H4d353DTD+93/85eDkGGBFaVMpUyxMA3o0K6M8jyCC0nisPRdxwgUABUooBUxoICQQ4gkNBINMLPMTILa1GoWGlIutjf7eb75567ar6tVXg373xfLGWyHN/aMPpw//9enORr7ptP/5E9GiIGPmkGtsAADjifEBWcsAASMkhIARYEoYS7lnhEm7LvAZiz6++ODF1iXQ7ubc3bj+ztXexqfd9R9evKKnNZRq907Ndn54ZI40ubEJs9mcc/66NSEEpZRgHEJw1lLOQwjGGGvMYjxK/KDdlVn+qn/+k2xNK/PWZHh/yS7X1D8dPtNydJmv3LpzdXv7mzBO/N0Bt5Dv3oCHDx+maco5T9M0SZLXN3me93q95bJECAshOGejwVkaPtu7aS7sVFRg628fnD2Y1Oca1DTNaDI5aPEGu1arl50V8omLVt/61vrG+oJSUKq21njvm0bHcZxlWVEUlMLm5sZ0OnXOtds5Y9Asy1ycYU63n/N+txdIcjJqNJ9gRiaHz1yxWNvtktAg+Zyk9elQGH2HAMcQoJVFnIvgSVXVadrKWm1VG2P0cDheFHPnDSa+LAtVN1mcHv6D03qcJMs4ngE8Xemez1p5MXpy9WK1d2eLy2EIi82u2L/zxrhklZ17Hf4fAwRVkTiPnXcAAAAASUVORK5CYII=;fontFamily=Times New Roman;fontSize=10.5;" parent="J1o6f_ijlUPL8cxEoB-2-1" vertex="1">
          <mxGeometry x="121.5" y="96" width="32" height="32" as="geometry" />
        </mxCell>
        <mxCell id="LUO2bR_xxj8n7OCwL066-32" value="" style="shape=image;verticalLabelPosition=bottom;labelBackgroundColor=default;verticalAlign=top;aspect=fixed;imageAspect=0;image=data:image/png,iVBORw0KGgoAAAANSUhEUgAAACAAAAAgCAIAAAD8GO2jAAAAB3RJTUUH2AcfACsc6pIOHQAACDJJREFUSIk1lUmPXdd1Rvfe55zbvFcNWZRJkSIhs2QLkrskQAwYGaQBAgTIKEEGAYz8gPyojDzwSIMkk0w8MOIAlhsohm1IpOyAsUiRdBX5ql5z7z3N3vvLQDGw8A3XN1z86OlP/+NHv5pMu76LcbReOEbmGLgLIUGEhBOEfDapzkc9xYEsN6gTvJLnQmrkUIU2UiNt8KrqN4f4N9/5Wvz4ydN/+eDHOznuj8du7Hl1Grsxpj6mIcTeQ+CQBm5hen7vjZOlS9ur53fW6XpOm9kbSvWdtexNPWdfZixLW2atrdXlZpij1UhR5ORY+lu0PuJuTONJ6IaQBukGiimFjkLkDqdDPKrbbz68vdwal+vLPkhYjRtdwU8oT7xMHJYQe0+dS/DgKYyuejhMkWSQIcWhS+NR6o7Tah2HIXQDYqKYujhI6NAJ16k8/e0vH/3izhunt2/eePD2l/frmx/+7+ZVW3MnCjeGi7M4kyVa3D26B/GIwDSspDtK/ZqHNfVrSj11fej60PUxJUohRNzA8Ktf//zzX34Ume7fv/uVb33r6Kvvr0/vvxbm0CWMDDig7qF3NPdWYck5RA4cUpIQOAQWIRGWGGMKqUtdF7rOUhBqx0fruuTN5abv6PmrF4927U/O3r1xtupbcatKYALB4U7u7u4gEIM4EpEIBxFhYeEgEmOIIUoQZgbBCXCIeWR2Aq+O/+wv/+7BX/3D7uTBphT4NVt2U9f2B6q7AU4AEUUiFhYWISJhEQlE5ACDHM5mBE+BLl9eNvO//+4/vvXw4acvt/uc8zo3VyY4HNbIjWAMIzcCQF8MCROD2UEA3M28kjXS5m4AGBI4jcD+8vcGe3X1+r13z//2L75zo14dz5epXLNN5I0c5A5zGODkIDgRMYGEHM3M3NzMtbpmroVy1Va1ZGolzIf0+sUZt9XQPf7k8fe+930ty5+///Cvv3F+LFRKbq1ordqaq0EdRjDAQQ4GCcG5NZRsdbYy27KUaSk5t3nyaeuff3r5ww/+5wcfnPhy1K9A3ZPPLv7tX/+9bj7/9vnZnTWXstTarBar1VpzVWiDVmhxa0SIbmZ5AScnwCusgZtoC5VinfZPPrHPPlYtTzBvrl6ZewS9ePbsw//6URuP9teHMm/hzqVoyZ4XaPWSURfWwm4MRHdry9TA7saWQpedS9CSWIftZdhevpr2h7z89y8+CjGeHvfz4TBd03/++KOPLsvq3a/DqzdHdc2FWvNWrFVohVZ4I/LIDspFEZw4gtjFAgfNXzpZ3V7Hx69fXO23c8lXm9fn5+erYXV1eUHWrpb21t2vhkXNsjX1BtRKraAW1mZmzdTMCCTi4NqglVvjpfpUyu76NOJrD+5cfP67l5cvayvz9qrutnqYtVqMXYyyGvujcajTXA9Z5+w5e81eMmpBa67mDgeIOJKZlazuZO6cpevJ2lfefzh4e/zoY1PzpbZp9ta2V1ehW4/jijkN/RiH/jAdzAt/IbNK2qDVtbo71IjAQIRpWya1Iq7Mycpy0scTax//9EOvRYLUXKwpgZZSlppDn1Tb+ujYmfI8R2rk6u5ujUzdG6zBiKpBjECRzOo8NxVx5dARhW+898eDlWe/fXxyst5eK4ScSfpufXajCdWmfZfSOC61lKUKO3nTLw6gDoUqGmlVDRVANLe2LDWDWvOQxuOTb379vWef/Hq3vY5DB7IQqAvRUre69aVczfJhtT6lwFYnr3MmghvB3Yzc3dRUQ2NT1a4REGHupVp2BxbP9+7di8yfPn40zxPyPM+TlgJj7lMzhgc0E3c00zYjL5WZ3NgdBgJczc2gUG0qCiCKw1WhgJipa84//8mHT37zm3m3BVMuWZdMzgKe5zlIb83ZaIj9Zpq0KIkwHA64kwPmMAdggAFgis7kRE5kBBZ+dXHxs4sXr148R1koSPPmrYqH6B1IQ+yUQRL7cWXXc4g9B4EZsZMA5uDAbAR34RAdwpGCxL7rQF2fooTj1ejTLoqEoSehCJZV7GNPw8jU+kTD6fGwGsfV6svvnP/u9xdFGzsYIIDM4W5qZC249X1k4RiCHJ2cwAtrIc/C3KY5ptR1g6OxSUrduFqzxFZddZdCQCmrgGHstoewXRork4EIElk4pm511HWFwi5vg1ikFPtxuPjs0qet1mXv7G7ujdgBBZxE+P9Dl0KMgF+8fPn0+Yv++IT6QUJIqRv6IabY99049uNqPaRukeH5duAQI4cAQp0PvExo2ZkBJzgRmDzG4IBZBVutTSRwCGian78EX4SYWKQ/Wj84fzt4ElKg5bI0CTi5fXbrDY597GOyUlrN0SuoOhGIWAggAAR3AghGRgQA4sxOxMwCYrhRmalOc8BApqQaQkBATePx7duh66MY6m5PtTADUYicHAARM7E4AHEIETExETEYxBARYoaDmYXI1bRqbVqaknAk1LZNZweSdcxmCo79CkpmSl/km5iIhSSwiAtzcBJwIBYnN24QsCSAiYXISlucTB0hRAABVPaaRP1Pb0a5ff+df/rns72k6UCHTdtv8v667K/K9nWddzYdfMlai7biVsldNERKJIGicAgQMecpt6ik6izKzDIKd71SNa1R1sdH7/+RxrsDDQMLdWDUoAuVneW9Ldd1f5GvN22zsatN3l6X7S5vd8v+oNPiVVGbVbW50VEKZ6e3Hrx19/zh2fk7bz08P7JdZ0/j/b59m589ffGJOhmnIBKEJRALMQGj0OnN7u1byRFdRZvpQeteD4d2tS3Xu8NmM72+Cime3Xvz7vnD0zfvrM5ueD8032H/+s0b/f8BjwqT5TntkN8AAAAASUVORK5CYII=;fontFamily=Times New Roman;fontSize=10.5;" parent="J1o6f_ijlUPL8cxEoB-2-1" vertex="1">
          <mxGeometry x="153.5" y="96" width="32" height="32" as="geometry" />
        </mxCell>
        <mxCell id="LUO2bR_xxj8n7OCwL066-36" value="" style="shape=image;verticalLabelPosition=bottom;labelBackgroundColor=default;verticalAlign=top;aspect=fixed;imageAspect=0;image=data:image/png,iVBORw0KGgoAAAANSUhEUgAAACAAAAAgCAIAAAD8GO2jAAAAB3RJTUUH2AgBFwEcrgbAvQAACAFJREFUSIldVslyXMcRzKru12+ZNyuIITaChEiRDEqyw5blkHzQyRf7W/0H9sFHn+yLZIkKAqRIAuAQg2W2t3V3lQ8QJYXrWIfMqqyMqKS//eNbNqyqSqoAiIgYIABy2wCIhBEBkAIKqDIICiGKTAqwqgMADcRCrGQIyuqNRgsDMAMgMBQgJVYCA6QRABPYIhgEACBVKEiICMoKECkAMEUhiCiE2NxCQEkRbdQIJRKQRkMM7SBrxKhqrFrm1JoEbIRYocqsBCUFwCLQSCQKVZgIE30noTZpQS4XZQWxsiUiA7EIRny3WdfLi2Z96psmeKiaXjEYDCem3EYxsmkqMBEUwapqY9DQgCKYEldEJYLWy0vrqvLOrsAoWADLMIl23C4271+fHX9XLd6LXwTfVpumrrskyYbDcb51L9van2zvFKOJyQfO5QJm6Zpq2bTrNM8K50Q5IamvZlUX+sNhkhRBlQgWQqnR9dXpyb//2V2/NfBtCFXTtE3TdV1HHOsLc/mjUHLWnwy3Dya7D8rJDiV50Ruurt6dnb7qD4cSYz7cSxCpW59890NvMN5/+FRhoGxZg6NuPTtpr19bbVof142vm0YlAhpj5zt1aKxIW1++m79dnB73J1M1Lh9NN2399vQ1u+zq4nzv8On2IPfL9xdvT06n+/uHD601QmIt+c31+fztc21uKk4XHXdtVIG1zkBVxRp21qQMHzVI4HrezJatD/O3Jhqbp1lTLc9eXM1/fLEz6bfry1AtfFVZZSVWjZZU3p+fLeZzirFq6sqzUbGG0yTJ0oShULGqDGEEA0EUja16T9YKkWrukiL6ZnVztThtrIFEu7y5adomdbkSMylXm65pAwTSeQRvoGlii9wVWcqk0bchdHXbbKoqBk+IpMGSpgxHiHUlzSZlmfTzInNV00aJZ+evz89ei0ZVYrBxeamwXRec4Tyx1hg2zMQxRolRRbsQmhB9jFHVGGMsE6L6YEVTpoQ0T3hQuCJzaZqmzlSry9cn30dfEzErmf54yxalF7XWMCEqfNTWx9aHCIZNIttWjScTySgbEEdVicrgzGW9PLfMeeYG/XI8HBQpG9m8ffXf+bs3htQGomw4Ht/dXdXvIMG3dR2kMLkaV7c1VAgU1DQigCVBosgSh86rcAhIMpO4jKKyMYN+6pxzbhlCu5q/+eHb//THO+xBNsvK0Sgveya1XoJNM1eUi6qtvbaRqi5uOqkjWjW116BMieMkJZMoGMrMibK9WVfLTc3Me3en9/amluKr4+cXszMLBkJHUofYrLuuIyozt2qa63WdudQxyMcI9WSgrNIyiJWNK8DCvk4QBE4G09Hu/emdndw6oHM37zf9l7Cjfjm2Bujq9Wa19EEvlo260oNP389ascOk3/pAngXRswmR+sYSWWfToNqGtYp0kYh6n3z1l/7eIdRSYGaf7a+3Hv7eclHkE2tUm8bXLeaLbtG6+0fP2s1N5NXnf/zq6OGT87N3785Pl8sbgFM2JbVI2trL9WJV1Zs0K1qfHR18Oth5JCoaIlECBruiSHKCi8qWVaGm8Xxd0dGzL//w9Z8vzl7O13r0+LMnz3578FgaLypBgMSaenb84l9/vzg7WW0ahb2+bnt7R/c+/VNnBhRWCSOAfATIMLEIM5FV1SwvhdPtvYdffv3XfHrg8v7+m9nJyzdHj36T5KOYO8OkGglKbZWUk1V7bIrhdHf/m+9PJsOpKyeBrGNLUICZHMgCYGaA2au6ougNxnf3D4dbdz2l6WD69JPfLa4Wl7OZRpHIPnAUDmJcbzi+e6BJ787BRw8+/by8s3tn+45BQGyVEaFESgApkxIBBGFhUmPysmSbKAFsvZrdvYP7B/tnr15oWyWkCZElQ6AkySbbO73xdn97d7x/tHv/wajvMmwsaiUVIoIwhKEMMIQRWUHEphwMFYgxAFA1zuUff/zo5no+O/2RY0PRQyJBYGwxmg63d9TYYrzz6MknW6OBhbckCigIEIKSKqkSlKDMyiS2zIcQCr4zpAAp2+H23aQonj//pro5txQAIQ6e2PSn9x49HW8NyZRbW4frVb1cVzAphM2tPPjAACiImQigNM3rpt1s1kQCRiTL6eDeg8dt156fHktoACgkArDp1nRnZ3dHoqZZudzUN4slE5Hi57zz62Lo7etM6q5bLG5EgrJ6mKDF7v7jL774Ms/NcnlJdJuJiNi0XTw+ftk0VVrkWX9Q1xuWjlVU/x8dACupEBuXJlle1ZWIV4jABDgkvf3Dj4qynF/NBQoiUYCMselsNve+psS6XrleLdCuGCq4DUkAoB/KgiBEriifffaZZ/tTaiMKBCGqBTYbFMQCEVUFi1Ka9fKi7No6EpJev5nPQnVj+r2gxhAB+jMHAAYhArB2NNmKEru6McKkotwFGzri3mh/a/tAgVtbhKhJkuV5sVxee5XR9t3dnWmsV4hefiXRLToABqDEkXix2iyWSwmRAiAe3KqNgUzkEiYHQ4lEEUWsyx4/eVaWPQH6o/GDowfVatF1HTN/gAXRT2QWCoIKmXQ83etP0rwUiiAlJQYRWKECiBKEGQBiIBpOD+NyEwOiMVWXvL5sDre6Ig+KKPrLEgRYQ8SAsk16I3d7JQWRIfDtJDC3PjMEJRJOmOHezM7fzS4fPixTZ2w+OfrkizTNGBH0i0q3S9gYIwAoFIAqiIgIP7vhQ1sBVWVShQpp2R/s28w5J6LMJs8L/eCc/7Pp/wAkwusW8Z/TngAAAABJRU5ErkJggg==;fontFamily=Times New Roman;fontSize=10.5;" parent="J1o6f_ijlUPL8cxEoB-2-1" vertex="1">
          <mxGeometry x="185.5" y="128" width="32" height="32" as="geometry" />
        </mxCell>
        <mxCell id="LUO2bR_xxj8n7OCwL066-37" value="" style="shape=image;verticalLabelPosition=bottom;labelBackgroundColor=default;verticalAlign=top;aspect=fixed;imageAspect=0;image=data:image/png,iVBORw0KGgoAAAANSUhEUgAAACAAAAAgCAIAAAD8GO2jAAAAB3RJTUUH2AgBFwEZ3mw0MgAACXFJREFUSIkFwdmOHNdhANC731q7qnqbnlHPwp0SLVOiLEsJECMP+Qt/j7/An5F3A3nIS2DAgR0nkGTLFDkiZ+2e3muvunvOgb//3W8dxLu6RlBmQ496oCjrvodpdvJxt79tex/xL+aTE485JNPpABgchXHVlh8W93eLjZFYCvhoOgcYXD8sawcsg+vFgVKkVAMEJs1u1wuFuAeRqPetQbKR/WQ8K8vFstrmBNbCbXKYxWmeP1Qq1kATjAhHg6MoMeTm54+qti4jGFPgNlXZN84dyj5gcVHuhDSEOKWa0kMgyQIBZC+VF6SABcV2P4mPrRbW9kaB64eNwuL6dnd6Ns5S3wLpj+nzoyeWqP3VzgsR8mCYUWZ01xuAnAGaxXg+H+HffHkkui4Ig6NRaGXXdT1CpBKysyTDQ1X0VKhHw1EnysFpMpxGSUAmo4HoG6n64dE0OZoSRIDsUQgLVe3bLh4mRgtp2xdfXHzxzWf468/mfWtYGHMfM+7VtTI9wM6jKET7/ZjSiHlWAp9HaeadnCS+73lBzHhUldJaPJ5NgyRQtmMe3Hfl6HT85p+/ZB5+/NmLf/rNv7x/e4e/ff3IGFQJ0ZuGBUQ5aZQVuRPLbghE5sG2q+tGQwvSBH5yPghHqUbIEeDF3DmhRUsDL0qy/NAo0n/6q6eDSTQZjy/mj6+/v/vTH/6CsMfS6aQU0hHmx4xH1gB19f5nd9gypevdbnu/cEXbbHbFdn3YrIhVWcCgEB7E89kxBuCw2WPisTiLslk8OCIw6gv3pz/81x///T/EVYH/7V+fD5IQ+uDLb16dXszy4nD9bpGy+CiDBJuiEa3CSZz5PsJ+Z2yLrU6Yx8FgfdPcf8iXD5UQWqgmjAilCBHclP13f/7x8rufcK+dUYQhz/O8N89ff/7r586ph4dDQLfTMCFyD60JOeGRD6nDIfF9ajqxva36Yid09fb9/fViLZwKBnhyEl48mz16MpNd+fHyJt9uxtk0inE5yolWzgI5v5j5iaclkx1zim4Ou+mAe8TFA5qLvjEkzcbJOG5lv1yq8vpBEkND9snzmVAaezYd+c7g23ebzrnLm3a7Bvp2feR7RbcjrSwD0HWg2OZEFGB5Vz0smwC7eMB9ijS0Qtu8bvqlcdGRYZEN+2BKxidxmDCPMEp9QwUEgim4+HF5uzysOqugB2TROT2Mp4SGmAX87vb+arnlcHh1vW57q4AWN5uXpxPYdJYyQMFiVZPJ9MVXp8cj6GLYQl03lYHGD5FWWrXC1HB90wDDAiI6qjXGmHBMOJFOF02j9uzT11/oBvd9TbgNKMmSCGCnlXYAG4gtDEXv393vEosiExHG7B5YCgxTupci7/c/F8vrQxAE8cxaI5S0jWyglaQRepbOvv7226OjT/7vv3+wUoQBG4bMx1aL1jrX9aZVpm/hh5+urm6MF5osjeMoFUKNZqM6q3ud1+uyvG04wFSZSeiTQle1VEgTHpOiVau8ubrb1Ll7/8MVlMBD1CntrO2F0gZq6gGAGIJSWiOB7FAvrNkWALq7bW258mOCNQlc6qeQE8eh9IGlhEBkEHYE+/zj8rDY/iWBcXNfRJiFBIQhBqrsekGwRwn1eKYRLbu263qfeT7iStZBynmEtHC4olWu90VZwZYn9pevZin08W0jJACZR+bHk7v8sN9XVdWxFo3TKPUxxqbc5g4DzABhwDqFgIu48xCmjEDnHEKMMdHJctsxZ4yGThulOzwl/CTmoaIDAwxtnSD7Wgkcbtsc5d2UhDxiGorlbgdJgDznlOUGYWyMEdjpyKfaKgApBGiz2Fa9JIBJZ4AzCEFkbTz2vWnII5tNWTiYNGWN/nHz0DoaJiOLAUsISXDtutJKPh6qgGqfFr0QUkMAGMEUASdbZKTppeq0VqDu1KGqN/mh7BpA4fxklA0GPPLCmCVD//TlMZ48SbSzI49nASPcCXFw2KaDJGawB4X20aqsiSGEUOeskopChABsur5sRdmJoq3brulEK6wKxsHrbx4fn08dIGKnbm/vx6cZIZxiiGRehhxCohvVRFESQaza1guDh7LatAVyrgY9AZBqMOAew1bKuu1E06pa9RpY5kzAMfe93a68EKjv4Gpdru7z+VNNJsfnxkG53WAuximBKm7L/nK9GSfjQ9MsVztOg600WeTTRoGiRAOXxUEW+ph5tOr6ddcbwwkJosga9O7dkk3Tprcf73ISZx0wZOyzvCy0yU/Ox5OI8j746bCoGx36sFHIZ+kwyhZSF5T5SvrK7PKdATqkAWfw+CiW0K4ODQFIGMu1lS386/9c9bVe3TXnz2ZxHKJvX87PIjCLbBLz9a7cbOuQDbI4kxAr5IfxiAAIrTXCOKlGg4BjuNwVb1e7y4cVC/jx/Igg6gyUSjsGAfPz3BZ3La5gsShMpcj91fv2sMXQ/Pj3q6p2qK3GKLadXDSN5EFEMDbi9dmTqtNtXs8S3nW4yuUOc4YsHaTdZqWUJBr7zBudDEXI6vs8dEwjJ2q1WOzw8Aw9Po85RFUpHz9+FLF4fbtfVeUOWhREGWefvzh7+uL56mbHRZtyy6lfOFZR6iC4v3tY7bbIAGCQn3oXbx610NZ55TUqdlQjSIaO+CT2vSRf9z5LBlFyc3MvpUVhwBkCFrRltV249Trf3LdTjhrVfPXVK3V3AA87fzB897EkBAMClHHRmM5O08OHKrQwgnQyPXn96um1+Z70q/0fV2tpTRwlH/7zf8WuO0lmjutCdNV2NxlnL+dPfr68jQDgjJ89mztsyz73BzT18HwUC6Xv6wIwNznzkxEOb2AP2NnRJxfzZzsjoDHo6zcvCfNqYdf32+1dYVrUlB0Azkc4QLQXimPvdDgmpquKcvmwv7pd7ZjXjUdNqxMX2EoiYzwPnp1O48Af+cksm/3izRut6pu/fZ8RTnb5AXHetk3cmRj7TiDVK2SRj+kgzQQSf/vp3QAg4FrZkau3t8mjoZ2fc4FAKfK8dR0ap+H5y9PPH79I2YgMg1rZyw+Xi8X1q1/8Mhxa7FOlFO73cqDNLE3SOAYQOOBCzBhjAMF5OiDWtF0PHUIBzWOIvJBvJO9N1XTAUWnlKEshwO2623/c/+O7t6vN+umnnz65eHb5w4+EgRgKNOPeWTL0ONGIMIb7XkTKHeSe8gg7XDStBtyLeMvaFhi+z9VGKYtDxiV2nSaX765u7h+OhkPmCADoqy9/9ej89Pu//vn2w9X/A1iD4PCMt0P2AAAAAElFTkSuQmCC;fontFamily=Times New Roman;fontSize=10.5;" parent="J1o6f_ijlUPL8cxEoB-2-1" vertex="1">
          <mxGeometry x="57.5" y="128" width="32" height="32" as="geometry" />
        </mxCell>
        <mxCell id="LUO2bR_xxj8n7OCwL066-38" value="" style="shape=image;verticalLabelPosition=bottom;labelBackgroundColor=default;verticalAlign=top;aspect=fixed;imageAspect=0;image=data:image/png,iVBORw0KGgoAAAANSUhEUgAAACAAAAAgCAIAAAD8GO2jAAAAB3RJTUUH2AgBFjccJtg7/wAAChRJREFUSIkFwVmPXNlBAOCz3X2rW3t1V7u7Pe622554PLZCgpkMERGQBEIUlkiQJ6S8AC+88Q/4A7yjSDwFoZEioQwgNAp4MmOseGa8TdtuT6+1dNWtqlt3P+fec+7h++DjD/8JEiYV12zuGGbXdrua4QIgAQAQSghrQRkmdVmWUTjJ42merqQIMZaLxVpBWFOVglaapkjIsa7CmqiKUuTl8evzdnswDedE97UoTOZnrxrtQCEalEQxN/vbd9xOj3P6+vEDz64UFUTrFcCcMQqgoNkaSwQryUSFQSk4oEhiIkEpNM1iFaclaA5cCWRVSfxXP7x/fjKua3L91tuOreA6L5JpFEwEF6eHL958/rjRAhKy5WyEsaRlgRBOokSUNYIYEykkV1XTchRaclEhXTOhhKISpgouJ2MgFWJp6u7WjuY4QpY5LbzuQLXZyy++mpy8LlN+Oac3ycZ6vVQUoms2wLwSFaOcF7A/cL0Gen2cGCboDDxF9YuMRcncdZoQcSF4u+3UUiWNVk/T9EpSxmgehVDUSYqfvZzd3u+EcYIsVTXwfJZuDjZqzhXApSgNoo3jUqDKdd3L6RwbqNulQopSiFrWUbSqyhrIwvfdIs+QYpGEhiUTopYYqVXBZpNgESZJqT88HO3fGvAs6Q96QgqIAEYllHBjc7gxVJ+/OAnXcDBoP395sV6h1TyYXEwMpQ0ghKhqeB6QAkiISF3p2BAlWM5WtmWpCqS0yAX8zYuzbrt5ddvndS1KzGiZp5mUAGukktZbewe7O61//4//A5KF89GTZ8d1pemKxsu1RqCuawQ7WUalBCgvCinSmq90wvMsTuO46arT45OHDx+//967pmWG6/zpZ+cqVjUFMlZVvHz25dMHnxzeuf12Fq+ePD3e7JkPPv38wcPTMM0lRDV3Gm5DISohmJYZqgUvq5SyWNFgWVY11lpeu2PZjFaqZi6Xq7qGL4/HCKluYwCwupyv9q8NCORPHr14796d0VcLW2lcnM3/+1ePkjU9Pl0dHseK6mb5GqIaIYTyZJ3nJcZOwXizv2E47awsLA9FUXr05kJWPFvncV5lWZgliao7lq2kq+XetU1Whqv5nNTw0SfPsjQDXERhgmrwm8+ezGZBlsdZlsdpgoBiqXpbCMgFztNYVtGVa+3v/uh9y1E/+tUD3XQYYyWQAkrBSwJrw2kYvm9Y6K2DK1///W/oHfO933vnt7+5Z2mq53vdrkeLbDqdVQIuV2AdSaSAklcJ48y2u6BGomTJer270/mj7339xZNXR69jpBs0YSpRMxoE02m6FuPzaL1Km71tCSggrLWxcfPOTVXX8hRkuYSAKBrOaMY4dvwhYpWcL5aG4SkqUk014zwvKE0Wf/jt/b2r3X/9+Udte5ClxXKNAFDCZX5xNnnw4BmlEmPZsG1V1RZhIpjouMYyyI7OiobveLqpIcey3CjN8N//3V+EQZisE8czMSEAQJqnmqZ1en6v3/j04Rez84AyUWNzZ7PHilwA8fRwPNgeNswKQfDw0bHt6O9s9yzVePzybB3nd25vsHVWVuXF6HwZzFGeUAKUs7NJGomyqHklKUvnQRSt064Hf/rX38pFzOL1h7/4z+cvlhg0Gqa92fc+f/pVukpG57PJ5cr39ZauFEyen4/3BlayTI9OZ6tVMOg5B3tb+Cd/9p0sDY9O55xTwWgwm4ua62aLUja9mFSM3bi+0e3bvOQff/x4NF6aqtXutL94cfpb9278z4PPo0L84FvvTI5nH3z0aH9raGhKXNBrV33NVm/d3nNchXiOfX4UEkltvQqXa1ZWW82BrptxfMkBGo1WV7fVlq++/+2Dt/b6v/748IMPJ+1O/2Ie/vyDT85OJz/+8f08LH/568OEUoErzSjevrHZ6Lm+33JdU3Id/81PfjfP6KDTLxI2micQYsfRsyioBSMKJhDIWhEV0mzj2tVB0zVs33r1ZhIsgk8ePb33jbs//M43//lffvH0bPHevYObN7p3b29iJHTLGvR7rIhFyVCcxs2+hxR4dHLJKFUJKxntdnoq9opCWJ5NubT9K8PhNV5xUeeOpqgEH1y/6jWc54ev/uuXj55/eQJ5vtVvXNlq51w6Ddc1dV4VigogLkm4KMN46tpOp+cgTExTNlyfUTGbL88uJjs7myWrXh8dRbGzWk5kXTb93mIZ0ctAM0wVKy+/PNnb2t492Lx7bwgQV4ymSiDnNInmXttWdYz/4P6+aSiyFv2BT1mxXjPH8yAuAKL9Qa/hNKoqQ5Cncdry7Y2NVkHp2Wkwnq6cZvNP/+T789nyz3/0x9d3dtfxor/VSaIkzxmAwm80FaSxkuOf/uXvGLougUBIpazC2MiLuqoqhDCreBzFAFQqQbatubamKwRj1G46i1m6DrPZePTF4VFaFMPhVqPnt3pOcBloRPWaKlCMmoOc5vh7928XSU7LIk1L3bCLQnDGsAIoE5jARRikUawo0vXVNKOgRn7TcWzjzVfLyXQpq7IU4OXJyZvJ5Natr21vdWuamCZCSOQUmLZT8xx/bbuLkcSKajvWeBIE82hrqy04TePoylbHNo1uswMxGI/CeZB6ntVoWLWs//fTV7NVImUtASKEqKCmRfXW9lXPlhxSw+q1WwOFgDico80N17CIxCRLWTCPsVK5TVtI4XukiGJZgM3h9YOb921r27JanXZPIU6eoVkQA1BjiEAttrc2/vEf/nanaf7sZ/+2irlhunEcliJazl7Pxxekv9lDUkZ52mi0wygDCtB0dXu7Gy1DGoJbb7/bG96AGPZ+sC9rxrIFRsrlxWEUUYIBBLCl6webzvT4y8s3b4ThUCDPLk41AolZn43GjNYkLap4vhoOu6tlRBTFsDs1NxoOBhF1WlaDAJmEAgkV1nkw58mirsH8yWdYcsOw8jh3+v79+9dlGd5+d3O4t2uj7DzMbt55J88CVXUtkxDbNl3DiOIsikpJhElyKBMFERxnqErimro7Oc1zGafR+UhUVRqtw/HIVIij6Fxhqq6ZtmF7qmU5SHBR0uHwahyFoMxEmjtNm/Q3vHi5jnPo+RYVAiLh+PblyTQ9GjOsdRXMgmkZZvF8LCoRx1WWZVBVTUXDQGAAPUsnGGpGu9H2y2JBKTJco0iCYLZaxRKYKro4XwIJd3d7cbKiOSCapXuD8YU8Pw5XaQEQSeazeLVmNKtgPQvXFCkV0nzbablO07a7vtMaNPsbXVmmJU0Ej6EMXdvQ9eZotMwKRK7t76XhPE4qVdc0rXZcI48SW2ZQJ4N+p4ozRsswqXxbCRbUsRoCyChdmhohstJlbcFahyBZj/I8lkCVUtIsgZCoGrx7d9dp2cRrkHiVZxlvelp/oNdQLbPAwit/u+n3LFqwRUyhRBjqEMtmu1UhmD0/LUte1ExKOJoGk4up1yFMgP0bN5MoYXS5WCwkIN1+y202/x8Rwydh4fxKvAAAAABJRU5ErkJggg==;fontFamily=Times New Roman;fontSize=10.5;" parent="J1o6f_ijlUPL8cxEoB-2-1" vertex="1">
          <mxGeometry x="89.5" y="128" width="32" height="32" as="geometry" />
        </mxCell>
        <mxCell id="LUO2bR_xxj8n7OCwL066-39" value="" style="shape=image;verticalLabelPosition=bottom;labelBackgroundColor=default;verticalAlign=top;aspect=fixed;imageAspect=0;image=data:image/png,iVBORw0KGgoAAAANSUhEUgAAACAAAAAgCAIAAAD8GO2jAAAAB3RJTUUH2AgBFjcled2z9wAACN1JREFUSIkFwVmPXdlVAOC11h7OeIe691bdKle5POF2cNpph0QRYiZB8ErEA/wIfgBv/CQkHnhAihgSibHVQDrIdrvbdrsGu8Y7nXvO2XuvtfJ9+Ld/89ez6SRzYJzfbjah3/aRXVkdHh0pQNfH26ubq4uP3lHs2uVytbu7l2WZIgmCIzo/+1gNx0+ffQ+NTSkZMmhws+36rl8sFiDBbpeXL87eOmJjEIA2TVOWw9nRPUCwZCY7RV1mBK2qumw+2G4zY7p1M9sbTQ8OCNB6i4AclsPxIGJQBQQ7q1Erd3fvYLVubF7a21WcznfHk6oaDk9PLi5OL0NYxW7pqqEhtdQeHU0FTLtp7uzPrs6uF4vzWAvINIGdzuoit8LBUbIFISiCsgiAIiVjk7374GCyN5nMZrv7ExWeTXa+rYtqOOqa27oeEpJyb1Azn4WNXJ1fn7y/2qyawTqt1qFrLtvrszz3WZHn1lXjuXM5oLld3FrtisFgqZ0tq7mzWxIbGiOim7WMxnP0Pmw3y2WY2Kqo9giBkNYefv6zf1qtNw/vHW8C3vzv55ja/fnk0dMfZsWAnPf5EFUSy3Cnvjp7bUpXDWbm8ac/vF1tyEBgvrxdf7hYuKLY9jF0ApgNRhUZg4jMSa2pJ4P1epkSNKtVXF3fP5x+5we/V8+OXT702UANAkBiZg5vvn7x7v3JzmRi7+4757JBlQFiWZfjHVfknqzjwLHF1XpbVeAy0/axWbUHOzvh3sHp5eqXL89yCbuHIKbq2g7TDRGidRr7xeXp+cmbtulcMeTU2PneQFUtWSRCA6IeVMlYIFpefTz90I4qi4gnb0/AlQbiZJj+8MfPDx7sf/3yq9Orq5/94z8cHh5rWMblh7oq2+32y6/e5949fPJkNB0JRNu1AQACJEBgFWMsIoIGEcjKYlz3J6/ffbi4ntU6ng6mh0fki6ZJ94/2HxzuX19c/+IXX/z7F6/n08pC3Labuqy3MHz15btFND+5cwcELMeeRa21CgQAgImMQzQKisZHyS/Wppzs5YWuFh8ff7ZXDGcxBk2GDE0msz/6ye/+3d//6937x0+/+2i1XNRlqcLXN+uvv7158M350T1j/uKnv28IMmcMSWbRkSqzMoNGAvPy5fnNzVXm8eb25uJmW44OnLMDk6azw6IYWqIs96vVJi/ceFiWee6zrOuDAei6YKybH8wtxt47QwpEVhWASJSbJuTe/urV21evvipM+PbtJneUOX99eVnAZu9o7MiYajjY2U2hOzp6P6jzu0fHXdcpgPHFzs7lb37nwXQ2me9ObFbfsRYJiYwTVRYtPFa1tc4MztthaU5PrjabZjKqLvttvXP9aP/QFLUpanIlusLa8vGT7/WbK0LMvLfWakp55kfD4aCuqrIi6wo0ZRKfmFQtgkG0xhoy5rPnT/7yr/782fc/u9l0HxZhlfy358uYBMj2rDEmBlKTzeZH1WjCnBDBWPvxw4fpeAQAxlqf5RRTZGZAAEQyRISqwizKysy+Lj99/qwYTG9bTIKrTfvN1++ur69iijGF7bbZNOuUIhJs2k3TbRebdVApx8OsLF3mb1cre3lzqawpRZ/lznnnLQIAgCGTmNfbdrUNk8nOtr3gFBDsyeXmwdnF7qM+Uh77pSoabvt2rZqISJWP790VlbquFSDFYEUSpySaQDGFAOB9liuoKBtnfEbzLL97uHN6diXCXYwfb9Ni3XLoFLPt+gbJc7dwLlV1pcIirAAWlcAAmMx5O9/bUWXrDCKpCgA46/rQo0KeZ6OBcRh+8OzOf37+arNthEPX24TU9+tu26ftLce+bxYHx3NnDXOyFkOM1jgiVQ0AYq3xAOidZRFmITKEmnurStZY1YiUPXn88PHx//zX/29u140BXq42H0/fLBvJILz75nUvdOfhHAGsyUSTt9ZYx8wKAIoWhFhSECFCSYkhJUQWQWNTUmEhY4pycjTf+fLFu9GoLDL7qxdvXr85T6oewi9fnv7xn/wB2eGm6ZwlZlEQ6RIgEqCq2nXTqEqee2EWSUkgJUDEPIcECQEhxciW/aDru0+OJ7WnL16e3bQyn82cww6y3/jkYduFGEOIypJYVDhZaw2haLIsbI1JSZCccQ6YvSNE8s4IJwVRlbos5vuzjs0imO//6LdofPbz//i/ZbMR4eefPv7k0aFwRCAWQUILigTGKqcEwhYQEMFZYomqSASoQUVCMITEKQinaO3De/uPHtw/PJr/6Z/9ztt3p6/enFZFdXNx/tl37+eOo4AkBgRCImAENZRF7lXVKneKPiaNobfWAqJyUgDnCQCccwFks1lPx/7pkwcxpW2zBpXD/elv/+j5v/zzvxWFDyyikGdGOMXUh5gIDUYBFVGxTdPWpVpOHEOR5QoEhmJMKYWk4L2z1nUcGLAe1m3fi2rfdSpS1/7OnYMiLyT1qrpuegL11oRNQzarKw8gmKIFl2+jVl6tc33sANQgeYOqCgSp75G8CEiKHDtk7Ldd17U3NwuN7WxcWhTS2LfBIohCYihLJ6kPTWucI2U7LjMWjika0DovhSWlGIGs9YhAlFgioubW1IVZpC1I2p2OPn36uK4qcmsyNvPO2IKQRJgMIBKnLQe21iGhhbBFQFQEY1WAjDGEMYIqGATjHcRgQa0zo50ROVfVxdgO9ufjLnIfWRSQSCUpZYmVozprFHPNMAGriAUi5WAUHdkYg3IiFIPWk+OUIpKKEhlWYNYqd84YY5117v37j7dXq4O9URux66LPCAFVBFFAAZ1jxhA6K2DQlcIsHL13SYGQVLXrAiICCQLFkFDTar2ti6wL0aS4XS0+/+8Xw6paL4YW71ZFYQhUOaTYNx2TpdiDIgnbtu8BoMg8IYU+AILxjpO0Xa+qaJxBRQ0aQZttn/qb2yUCp75frfpyOLPehn6bWEIfrHPGuaaTmPq6NCrgvbWGEISJEMi13RaJkqpIAjQpJo6BSB3q5SpcXrdHB4WICMt4d/fxMzo4GE9366tlkxgNieXkUgIB4dC3zjoTev41Y1mLoUxfz4EAAAAASUVORK5CYII=;fontFamily=Times New Roman;fontSize=10.5;" parent="J1o6f_ijlUPL8cxEoB-2-1" vertex="1">
          <mxGeometry x="121.5" y="128" width="32" height="32" as="geometry" />
        </mxCell>
        <mxCell id="LUO2bR_xxj8n7OCwL066-40" value="" style="shape=image;verticalLabelPosition=bottom;labelBackgroundColor=default;verticalAlign=top;aspect=fixed;imageAspect=0;image=data:image/png,iVBORw0KGgoAAAANSUhEUgAAACAAAAAgCAIAAAD8GO2jAAAAB3RJTUUH2AgBFjouW6EUMgAACKpJREFUSIkllsmOXdeRRSNOd9vXJbMhk2SSokCRpuQGnhkoFDywgfrzGhTKcKFsS5ZNiSazf8nX3Heb00WEB/yBPdjA2mvjf/3hj4Dy4vz4d7/9bm6lcGgKuwv5ftoNKfYde0/G6O1ms75/EMbClUprY6CsKmtcSjxOvu+7ptLLdiZR4pSePz0+Oq4/rde3m94o5NOzVVEYJfj29df3t1efbm7LxcnL06dXd5d3D9eHgQ7DYLQrdXu7vicaAMA5XB2tjo5WVqMQa2VOl/M3F0/nRQUxtG3hFo2UUp3M9cVXT59cHDdN9fn+wQIvl4/WD93//N/f27o5bhefPtxUddU0RU7MWYTFWYcCCAoBgbkoinldPnm0+M2715pz7Memdoi466fbbbcZe/3tL99pax4etp8/bxtbrubNo6P5+n57c31/cvpYhMd8WJy1IYe7u3tlrLUONBijrTWAYK1pK/fbb99UCsdue3p2TII//Hx9udlj5VCTevb02XSgm5vuMMB2pDFLyCSSEclYMUaMNtOUj0+OX736qnAFMxuj0epIZHVRuXnytJovht1QuZZF3a53+ykGBZEjSDYp+74fgM3k6fOhC1k0ysXFeaLw+LjNfn51e/+vn9btrGmKdtWszEIR5yy8mi/77W5zefn2m4t5U0/NLJMMEx8mDsyoVNcdmLK5u7spiqJp5yDY+XE/+Efnp+eFCmE4fN68ujgvmxX87z+Ntk9Oz6ytiVOmiXI8P1laOcvj5vz5Uz8+TL5TpqlnyzFd74exLktizoGNa82Li/M4BQVGCfzw/u8a6ZvXX/n7/P79TzfrfRd4tWitrZSyKUTrAIBTmKZd/OYXF9NEm/2tKRYvvr6IYn746eP1+m6MOe8Ga0yOYF598wIy5ZwoprqwpODHT1f3uzENQ5ym8HBYro4Wy1bbaprisO9PTxZo8NmzJzoOt7e7Hy8v77f7i4uXBy4u7+8ub289+5Ro+pxTSt5PZlqPMficcOjjYNgorWG8uexQC+Xp6aPVm5dfxUR9yKXV2cE0HFZHs5Pj5bJ+fPnh02ZHfXR/+fk6vf8IBgTFx5QSpZRSSkRsrj7cKat9YICiqkxkDtMBgbV1pbbfvXn77MnZh8t778fVcjZvdPLx8cnZatWeLufr9Zo0lKvaZ++76LsojDkxAABAXdfMbIaJJBAo56xlEubMwkYJJXr9+u3bN281snbaWbuYNctFVRhX2rJptFbQLGrX6kC+qKQlV9pqOITDtAOAonBaaxbWL1+8FkLF6JQujAZiJmYGrXC/3xAlrTgOOz/4RTtrC9NYKVTcP9z/69Pdf//pb1cPO7RWaYtotDaJ03ZziJGts8YaATYxJWSpZ7O6qrRWzCwiRKSUGcb0l+9/1OAXtQPSHJljQCu2MDmn6+u769v1PvplaUDJMEzj4ENI1mqtlDEaFVAiRUR1XTdNM5/PtTZEJCKIGFKIlLpDf7/edX0UNIlkmMLDdr8/jMMU15stAYaYbVFqra0xi8WiLEtjtLGoDVqrBbIpisI5JwLMbIxh5hCC1jqSz+SB7GFIleP5UkeQPnL2MWSz7w4/ffh414dcWABljYk6+5BjTMSkUGuN7awuSmNKV+SUCFWKUZBZMipBJTkEoiy2GJPsprw6LZ0zTqkE7mbdI4jPMoRIKQWfBEx3iMGnlBXqAgAIMDFXs8qEEErrqrJy1o5h9H4SYWbIKYuQ93HfHawp66pctLXDXFj91+9voh/GyROzj2k8jCHosZ+Mdk3VlmUG5KI0qLMrCyMixhhAJCJmFhAiSikBiAAAwjRNTVMvZtVyXhWKBfDjx+L7jz8rxJwzEQ3DULFDkTB5gDBb1cenj4zDEHpjwSCiiGilqrKa4iQsREREACAiAHB2dvbu3bujo4Uz0FaFte67b99eX19fbg85Z+usUQqYIXMOaRzHw7ifwnRyusoUQkSlDaIGRvYpZBYGFERQwCgkTJQvLp4XhT10XfRjTqNAePb88btf/2oCyjmXaIhkDBERZ/O2mbdl1QQfx9GXRTWbtYaEvJ86hKZulDagNAkLiACwyGw2G/rur///51fPTku1YtJm7H3IqJCNYhBntKDUbWNBZcrz1UxZdIUBYO/D5EeTcwbUWmvnHMXMzF9KEwFEVZfFsi2z97e3t323keQXbXlx/rgwZt62m2JwlTMFWqs4JKZcVNaUsDpqvY9XV9dVWZucs3VaKdUPfUyccxIRZgGlgHEa+5OjBcbqw9XVp5tbSfHVk5PvXr0aJOeUiqJanizLZeHHoDQoAB9Gg4aI5/PGh7lCbUAAAA59b61jwJQyAKFCBYpBQkrjNDQKaOrGrhNSh67P0Y8phZBZsG7rZlZJomHyCNBUFSnY7g+DH4zVbV0bo/VsPqecidmHxMIibDQqQAABBTnHpm3OFu1u2x+yEJEIcc45RhEIMeswGaereRVjcKWpVjOf4n6z1YBjH4y1tmmacRw+3621sVrrlDORsMRMYdbMNMvU9UOgfUydj7bj+93h6KhdzcvIkSiDcUXlSqxjjCGEyQcmtspSykM/mC+k7Pc7oqyNM8YQRaLMlFHwYXf4x8frI1fuJr8eRk9ko35/s54Q+8TVrH10NCfNm+1BBJTCafJG5cLaOCaNqrQ1/ud//F4pFWMEAGOLlBJRTDkKEQiQ0Kyp50XFwn2OGdiBnLVtFL4e06PF6uXzma3dvkvjOMUYRSQlD8IoMGtapZX++us3gCrG9GVQEREAWUBABBlQQop9mKaciAgAM8lD1237cVbPEUAAKEt/6P3kFQCIKIGqqBSaEFII0eScmBlAUCECoAKjNICknFlA6ItfARGttUopIgKlrNZF4UIIm41fSGOs1sZqpay1iMoaPfRDP0zMYvqhExEAYRbEL1HIzERJhHImEUbELy8BAHLOzFzXVQhxGAalyRVYVAUC+Jy11iJitEkp5UzW2X8DBT4sjTNwGPgAAAAASUVORK5CYII=;fontFamily=Times New Roman;fontSize=10.5;" parent="J1o6f_ijlUPL8cxEoB-2-1" vertex="1">
          <mxGeometry x="153.5" y="128" width="32" height="32" as="geometry" />
        </mxCell>
        <mxCell id="LUO2bR_xxj8n7OCwL066-44" value="" style="shape=image;verticalLabelPosition=bottom;labelBackgroundColor=default;verticalAlign=top;aspect=fixed;imageAspect=0;image=data:image/png,iVBORw0KGgoAAAANSUhEUgAAACAAAAAgCAIAAAD8GO2jAAAAB3RJTUUH2AceFyguqL3ezgAACPtJREFUSIkFwU2PpNdVAOBz7jn33vd9q96q6qrume6ZHs+Mx0kAh9gCEpBCFCkCNrBAgkU2SOzY8g/4A6zYRmKLkFAWlvIHQCBLhA/ZMx4bz8Ro7J6u7q6urq/3636ck+fBH//tfxCxiCikkUsn5eG03p1Nu5HPWdTENrZbzSjiQrbbWLzZlTf9rJFFmyiFQxianEEFiRiNSI6xH2TYdYe1iMZM7AuPxmFqK05P57vvHF/Pqm5S5fHYG/Yxj1UrFD3s9l3btYf1vdK+uotf7cucx4aNJCRjVNkgIWpUNSYZ550vQggGiJGIydTcn4/XTybLB7Omruv5/J354hG5uouHmDpQHbp9s113m+V4+bZp34habE/uglMsY8ioVpVEMoJlp0ZUc5+yIDAjsWWZ2cNcXkzTuqaz4+nxbPFwPH9gXTXPdU5DUo2h3TDfxu5Qrsa8vOfibmg2+ITcmDClRCpkkAAQUAGCYQuGCK1x7GY81PAa2ueltl4NhF7iIQ8bo516T9UCTT2IUfLWT6yfEqa4/dx1/0dhy0jOF4Y9sjeWnWdiEgUkVsPIjo+LdKpfj8OrEQ2ist0ut21j17vR5Prps2/ZycyZKu6a1fKNxn3cbkvD02p+0bzh4U2pZ7Y6yTSO2auyZAVNDr2l8dBltiGB5Tl9M+s+HoflZDQiTHe3l59+/vzl67tH7z79q7/+6W9/sCCRl589/+gXHxGm33h6bzq1MKRC4Nj32S5XeLNLjtBnMEoOARiTxhiDZec1WwP5muCqtE3hxZLpt+mTX375xYu37zz8blWeXq/yrskh4/OXFz/7x3/5t3/9936/j32vKTkcXF4Pza3kDACGiNgSs6gmETAGjSVb0nd/8jeU+6ro2QBLObJVzPjjP/rjP/vzv/inf/753//Dz1598dkPf/DhydHZy//5z5M6fvu9p2robnvTRnx1gS+XTstT66eGHBsxGHMOqjmlGKKqKfgAz7pmGFJ4XFxNp6N7Z7M/GB/91u/+aHn5+hcf/fyXLz6/+OK/vv+dRz/6w59c/+WfjPj2+Hhxsbwiy21vV4fx+PhpNZmjtYrCpAgowFnIqGEksJaFJzp9v/OjzB9Xx0N9/sSfVlmqT//740XBj6fjd44fNA10Jr3/w9+J24v6aEoX36Rer7a40elsfu6KUQKDBo01CMSCAOiAxAAysgIU4/loQnW5Kxa3OJ6Y6Fbr9duLrzEPZ4uZN7i5WfV9V0xqx/fMuDT1PJW7BtHPHvhygmBQUTIkUCbDhtWAGCQyQMxF4QF4P/iNP+1cKdYmyYOGD7//IUG6ubk9md1779mj9frGeDw+PY8x0OwhH+V0tT2aHhfeJYM5gYqKgDGEaAQ1G82aQQ0DQlbbptHnl1iCxH4zmYyL8eTBk+Lk5KQZ2pJswa43MlucjEbVze1dmz1Vk/OHfh91099qSTknEUOMKEAIBkAgKUDMwDnlDKBUqFls+/btN5crv3385Hw6X+i4ttJBCBXxqPJtP+x37WbbhWwnk+n9YSPLZQu+SUWKLgqTYVADklB70s7ZIgrQ7/3p32VjyOHExfPZflrlrm13u42kaEBAtCpKstSHcLNaH5pBybmqdrbI4SDdsoKD0dgm7LO1RLU3Fe+P/cWJv5DhtuktK1KWgdQUrJWH2lsUzwjWkDE8m9RZwv6wCSlN6rqeLmw57gNs7zZ9s27usOyWlQwo+ys5VXNGtp7x/tGoo7hLh3bfeu5iyNADWAVMUTP0deUn48qxrcpRVZVDEEPo2ZXVeFyPyJXOaXswVT06f/xku76E9d1j6B7Ww86ENhUVrOdFL5rO5v4u9pxiRCvGUIJRm6poJ6CdErIF0NB1KeVAhIIgKgaBEECj82a+OCqs6QX10Pt4e1ooVXEb3BA6FtsE3ezket0yqapITKYD/9VlbG338D7ZITiOIC1oydZaZTXAlpjJsYmC3ptYuqF1Ht2Yq+QOhlLlWl9oE8xu3769ya+u7TrdN2gUAFOMGXDVT95uiy7AkDWABeSsOSPYomQqCBlEhxBEMjEWjiUNmPqRxcpT4TnkoEaryqv6tyu6bo6gOGPhrAoWM1LG4jjHTvNl6sMGlMtRUWAQccalFIa2dVyAhazJAJIB1Ji1F+y8zZhTTkmpVGNFaN2YDubsZ6yaEQFRcxrU4C7g1TrMnFBstpkECxKJQy8p5RibprFlBjKSU9+1kmNhcysHgQjkSjdJxu37YcjGjUbGjDspOOUMqjlLztmgoeLobbM6bvHxQnOGpk3ekUGVFIeuA9GZY1UIQy8pokoa2hz70XhUT+fIkyGzUEw5liVg1+V44NBnAGBGyZlNROfu7KNPl6+PRjCrUnPocuEJtW1269WV9/zBfCoiXXvQnCTFu+tbQldVc3Y1klfiSo2UaVp2Na0seh4iiAglEs2OxMQceNp1xy/ffP3730LWtN+GLHF1tXz+ySdnp8ff++B7vnCl87umubx4u1ptp9NJTLbAQhRi7FIcDKZFTQ/7JDwwyUaTqjgA9r703ggppKPr7XXS4fR49L/P//+zL7+6XN6+eX0Rk+27UHjHQnc32xcvvtw3zQBuNAllFUIeDt0BDDbRbvcNp1jYin/wsM8CCikkrWxfetPD0NNuMu49mdJh6NsvXt0Etf7odLQ4UkhMJErL69317TBEdD5cXX+taVX46rDvN13YBrvbGmdHJkd+PB0UEQylLJKDKtjumtpf1bDd/QrSJcZtczZfUDFxdHj/vZPQ3jWO9/v+y9ffkJ8dTWo0rcLgnEHR2Ord3eCms7P7R8gzVcfWsiIoojEYjMSsnl3WuLv9umm7EANOzp49fZJzKtKhDpvLV+2quto2Yi2/++xd50cWBwubIcbr5c3tXfvgybcnJ+eDlCFTzsCWrAIoqhoiHgpVosWYfjPMpkaZDYPzkWzcr9LV6u1Xb8q66vJlNMU75w/9eGYMezZGzrp2N87V+D7ev3euVNpMQ8KUEpNDUFQEVSD1CCIAhmbV0bTwnglCHIYhcD3W+VG3XRuihfOCxo8qNUZFCNEyT+H+vUdPFCRlCVE0KIRMxL8GAi2l8YYuROgAAAAASUVORK5CYII=;fontFamily=Times New Roman;fontSize=10.5;" parent="J1o6f_ijlUPL8cxEoB-2-1" vertex="1">
          <mxGeometry x="411" width="32" height="32" as="geometry" />
        </mxCell>
        <mxCell id="LUO2bR_xxj8n7OCwL066-45" value="" style="shape=image;verticalLabelPosition=bottom;labelBackgroundColor=default;verticalAlign=top;aspect=fixed;imageAspect=0;image=data:image/png,iVBORw0KGgoAAAANSUhEUgAAACAAAAAgCAIAAAD8GO2jAAAAB3RJTUUH2AceFygf+WPe9AAACYlJREFUSIktz1mPnWd9APD/s77r2ebMmTP7jB3bsWPTSIGgiLUJRIBSFdESuKMfoJ+oN72qKlVCtPSiCiqhTYAQEhIgru1xEns8Z/Y527u/z/70ov19gx/yXlvrEKYYYfh/HsABKGelAcMIQqABNHjhrMaYASLgCQADhMFrQBgAA2APAN5Z1di2At0a1XocUK2NtRZ5a40NA+qdBDCADBihZC2RDEKCvcagtKyd0ZQyjJkHihDHhHhnwBOEGbAAYYYwQmARxhZhpa2ygjIWIq8IeKDetTnxElwLSIOT3LSEamIAGQlOelkpKTwhngaAA0wDQoh3zjmECCcQQxB7gxBgElLgCQYPwiGrnTOaYmNE4esFiMLbCiNJkEXYQIgBOZA1mNapRskWEUJ4hEiAeYgYB/BGW+0Q5QnhKcKBBwKIIsyttg5xignyUuky08XUy0zkl015lcSEYBMENEgThKCZX1IvwWqnBQ9DhwXiIYpSFEUOjGoF4eFiPgvCbnewZj3FJEIMYY8o5xSMdro1bamarLqaZFeTPDtbX+tzjnrdnm3M5NkzXWU3ru3KuljMpmmv5xnXmI42WIgDHBGCQOa5rWRdiRAxHnfBY3DYIwLMUm+lbgvdZOX8Ip9d5PPLti5MLyJAz06mV7P2t+++Pzu/ePOvXyNgT46P+qvD3nh8/9PDlY3pF19+MYx8GAWgkSyqLK+pp6N1Lq3SrgrijsecIqyVKKtsqpqiWEwnzw4ZdmujoVL6408+e/u3Bx//cRJRv//c8ajfsS4xDf3wdwf//G+/ifvRa988+NpLt7fGo63NDdO6ZlktyTTmHQuk1eC0ZcCp1XWZz0RdEnCUoJAHGNmrq9lyuXznvY/+cJCN9q59/eW7S6Xe/eXHRd0Mx6vjnfHmnbsHzz7/p59/OPn06Id/9Wo/XW1ysT4cI4y9UjxMlNOyLBxLaVss63zOnCTeMEqiODbGzOf54eGh0f6ll7802tj9bDL59NHjq+mSMDDn2drl8vXvvXb97vPv/+od5Nx//ec71LmQoWB7azgaExZEaap9XdUN6Jb8/U/+ViwvEmx0W1R1eXh8PBytsYCNhv318dp0WX38p/sffnKwMEYyaoPIc3o5LU4+P7o+Hnzl3u53v/YX+xuDo88exiH2BMcro3hlRKLUgq/r3BBKtVRKti1Ip2Qr5Op4I0pTVDnA7qNfvvt40sxzDRgsJq0BpzXCPsCoquu3fvHr11+5mUL+5RefH/Ti8/PzpNubZflgh0jrCKXOmabIMYD3DoRQdSsaoYqqqWqRpN0iL3u9XtLp8jC0AEJqh4gnzDmsPCJJPNzcKDRcLMr3/vBJ2BviIC4qYR0IIbWUhNJ+rwfeUSMVRth71Eo9OTmbZwVnYVXky8XSGFvWTVEL48A6561BPPQOIx5lrR4CnTUqXort7RuNARQmT45O1jzfUIYw56ztxGksETVag/dSmeks+/P9R0lv8PTo2KtWVbPjk9OyNHXtrQf0f1OjESHOO2ndk+PTqws4o0Y27ZPDZ2nELCJzYVc3dzc3N5xCCfVxFFGKUWt9WdaTk/OylgqqOO48v7/fDfZ7gzE7XKiHRyezyiFQ3nrnEaLOWobAWCu9X9nsD8drjMMim7Mwzk/PJ5OT4cpqNl3sjgc0iijyXklVVPUir5Zlg1t79+4XvvDiS9TUg5URG84VYPL54cm8kt4jihB4q503rpvwG7ujb3317ou3r3U4puCny/ztd9+//8mDmzduyqYtSw4+pFK0QrStVMrYspJAXZT2GqmpEgCw0olu39hxTg0GucU0jFNKKCO4F8VpFBKkukm4uT5iVom23t7aWF9ff3p0WhQFcXa5LDrxgHpnrbFKmVboWtiklwilF8ssBpEtpoyFexurWta3b+5VQvIo2tvZHQ0GKQ+Qs0o3dbuUdT4cDZyq86ocDQfHp1dVVQcYqNOxcxR58ICU0nXdFI0Wrjw5PXvh+h4nkMZJbzRqtU0i7hBkRUEZ3d9aGXS7XmmGSac3lHbkregloaqp1Ha40u/30snkeGNtmLCONY4a6ywyhrjGOe2gyeXV1XkUsxDTUX+fxVEpRNJJsqqI06jbScOAE+T6wx723gGsrI67ESfeIKBAlsrSNAo+/OD39+7di+/c4dJiqWTjKkF1C1h5bA1QbLVcVkUOKLAeEUoBY8wYC0NgzAJWHhALWZgmvVEQrVrUAdbrDjY4jUCrUa9jtXhydJxpOFtUuG3KqsqEEOAJQ5QgQODPTidVlXlvMUIYYwDPCInCAJyryhK8RxgFYZh2Usa5x9g5DwgnScIYTePw+t5uvlzmWX52eoalLKty2RaVFZpYTAA4ZRhDmDDrpXUaI4/BRwHvxDHDSInWGSPb1lnjnPHIEYYxw4ABY7w+XueUMYS7Yfjk0aPpxQVdLq+y+bzKalkKbH0n4HEYrY5WkjSsZRkiYCHHCIIgYJyrtgVrjZJNVfbSpGka8C4OQ0DIOi+NBkDD4apU0Lb24OHDfRZSraQSQrZC1S04v9ofJlEUhKEwwkjhEcOMEcABZYzxkAedNAXnm6bR2tRNy1wHIbAIrHeASRDGw+Eoy9uAsTgIZ5eXVFuvlK7yolguUx52koRSMl3M0k58dj67tp3wKCWYUhpgjznh49X1VgjvfSNU3tTEGKNVHHACoD1K4yRKJA/jMIzCIMiqmmKa1o2czaac4QDTwSCRWp5ezuwFSIk2NqBVJk0SYwEcIKDWQRR3WiktEBZExkFRtQhhsF5ZAjzuDMm40UUjt6/deHh8SltFWuW63RRbTH036XDtzNHppbB4NNy5WlTOUUCsKkUn6SDElFbeGB4leS3+5af/boGtjde/8/orP//Xt4SCH/3wewePnohWfuPVV//jF+/dfOEeXRnt9VfWGIJByu7ceolwrGn9wZ8/yGo4n9pstrh98zmEGXYeAZNCAEZxJz27mjVCf344f/7W/o/ffOOnP3vr6fHZeH3rH/7xZ/1+9+mz0/HuzoPPDr+xv0n/8ltvdHrtk4cfhSgtM0lJ4LxLe6v7d27vbN0Q+Zk26unhJCCsLNq2aRDGPA4fPD7Y3N0LonBrY3xxejqfZzt7+1vbO2//9/tJv/fG97/95Pj8waeP3/zJ39DRndtfHfxguLZ1Pjkjs+K5W7fifvx3d17oj/YxClQ1e/b44aMHD7P5IpOtBDK9vJzPZ2mabO9f//Z3ultr6R/v/8+du7d4yFZHq1GnZ53Z3N58ZW+7qJtrN1/4X49k4qeXiHbHAAAAAElFTkSuQmCC;fontFamily=Times New Roman;fontSize=10.5;" parent="J1o6f_ijlUPL8cxEoB-2-1" vertex="1">
          <mxGeometry x="283" width="32" height="32" as="geometry" />
        </mxCell>
        <mxCell id="LUO2bR_xxj8n7OCwL066-46" value="" style="shape=image;verticalLabelPosition=bottom;labelBackgroundColor=default;verticalAlign=top;aspect=fixed;imageAspect=0;image=data:image/png,iVBORw0KGgoAAAANSUhEUgAAACAAAAAgCAIAAAD8GO2jAAAAB3RJTUUH2AceFykRB8DCsgAACZFJREFUSIkFwVmv29hhAOCzk4eHFCnpSrqbfcczsT2eTBy3KZIgSBMURYsEaF/yF/LL+tCiCNDXIguQIAWKiZNp2hnYGW/ju+hebZREiuvh4Vn6ffBfP/s5tMLzxCAW+1WBezIac0/4WQtbF/7Pn+cvPl/UG0CM9VAZJA1PwOn5dHYWFt1tMnKTIUx8Hgdhq7r5Zl1IMx7PEhFRh4tdhgAkZQMJ1j1o+oMejE6BDHotbUGtHHzx5+WfPmvz7dAqJDim0aRXSqf9y1Xx7qvl9ATjCwq7gxEODLAGyhhNSWh6rjrUykZK6VFCAPWwz1pp6lKVVcmADYmdRKMvv0yf//pdURlgQOiRscCTIZ4lyXQwO9Tlcjf3atBv4aHz/XGwb50noOsJgF7X4JB5oaB5urSG4Sd/f+Rxv+tAVaFGWojNZBRkq/z3v3pRbImSuY+Lk6gf0WzmF2deeS8AF9MJ7DGyAsPxPserm043gVaBtiEiXFtDEUxiQbD2PI6nT3EQRM6ydFOHEQuEXd4Uv/iXX9KWnERB6IOYIwFaWm+OaT82edRnZ6NYBNHm0OcK1qW8enttFORsgK3POGaB69pcdrmyrZSGfPzwScgHdaWcNsVm367M899+nc+773w7PhEW4GCbF9fvF321PzifBXLAxkCvIoGDWL5fpcAha/V+nyWxsMqPjsKQiaxJm6YjDJV5RUIvJI4Q6wiAMjWXf1msX2w+PvnowTAc06pX2+xwow63AMBVKTsLuNSibt5ffnFdQ8KnhCWT45N9uqjLmiGQ3SlrUdXaJ58+ijh/U70kbWZqU+WZbGqUXRVX/7toM4cmMPJJQMz13U26mtedKhVo0p4husqjq9Vie2hrP5H+NkxanyGBnC3y4TjCtatX6vX1vNg1P/vJP90faYL6CBgXoHCxWn31l3m2rZllu7K5WS/I1N6k9U1m5wewzKXUjgF0u1pfTPSnn37Li4b+ZNSbrG8OrtodDc/OQ36zWjeFIza8fL2++yh/9OhbhMMkK/LL14tXX9zUmbYWAc5TY3775dcvRN9U1opZvd8YYDn3CIG2185DBkpiWoFYFB/7R7NXu3QAqxm37+smq9xgdmwt+vxPn8exTyjy1jfbF3/8Kt+4yAsD34NRWFhw2KlX7zb3p/FgwI+Gk/vniccjKuB+vcRtGY/kD/72sQMjWfeuBUPKXbUZYHV+Mp1fLWzRiXCgqXx7+xXJiyzdbIu8CthRwDAkutWyaTrUNWMRnh+dqM4IL4hHF9KSttwej8Y/+N43/+Efx2f3a4yD5WX4X//5cr2e16RI0wzpICFYdooPPD8UaVmi69vF5dXC9pZTIHzn+rItdwzaJOD3j49Hvk+NxlrX+aEt63pXwk4+fTb58ElL+XOff3bxuHjwMbeoX++LxXaPCR2KKASsTktZ9gZQDCO+vN4Q6+IAxQFoqkOa5QgjHyCBwPGQXJyPGbWq3qlqTfomGcBn341n93bIbEDfQUGj5IPnf3h7t0oH4xEMRvPbPXEsS/O724UYRWS7qIGllBnsaUwBgtLZrjxkvrDx6fT+cTybRpx1Vjaq2skeYziGQANLneEWMA0ahToQMCTCZVE2dHe3zkahlZWty14XgOi9Br2RuDsoJzhgHjYOdH0/SAZJMhCURB4eDlgYMZgiY80+XS2uxn/9Nw8s6yyBzp1fvm9vbzOI/U16KOrVNmvW6Y4xhhHnLiE+JbLprdVFpTmAIR0wJmWjjGuB5xat3N1Um/Vqt9kPPX52wn1fcgPrvR7eO3KMpBv85sWmKozPgrJqlGm6rm3aJooGAQ/S5ZogDCgjADij+822RMOJ4Fwq9fTZk2Q6ev7yZb7ZeL16+uDiycX9AdEAbfP1fHXnJ/c+VAqvrtVuKQkKVC+xJxrZaasQBgg5LrxIBKSVFaXE83zVd72RpZTDUfTTf/674+nk17/53fViF/nBeZgcnz94/MmDrrg7lCVCQ2tO3rzSRVNtrrzdqtBaS137PCyqMgojIYaU0slkFAw40VphjCHEhDDgAwP1j37047PT2b/9+39czVNlmQ39k8hf7PdfvGkOm7VWwDJ6ufnaefjoeDRNgjDw6/rgxxgQp22vlDo9ORmPhwRTAzVGCCvVGWMIJoxSp6xpzNuX75eLLWPC9ADqXnBEffD26t1+t5uNhm0rry/nbdklIh4If7lcv/n6horw6GyWVfVumweMYqe324WEFYYQIoQQQsYYoy33fFl3pncQEwNh16kw9EPBKEPaWmTt48cPEWUe5+cXHxBKL+c3L19dIi8aHZ+GRyGLYCHTql5rlIkjxKYQRlFECCGEYIwhhEfjsW27vu2k1Z0zsuujwB8NgoCCJOK6LWLuT2fTR48eOwfWm9Xl/BqRAQtGjgHHJD9SrUyx7kVIh5PYCkbiOJZSWmsppQa4Tb6HSiMHlLMKWIutRtYgjP3QIc7iWFHYkPjuoA7Z7vr6OhyO4+Fpp1wtMyVzCvLZif/wwYfJOCx1+fLdJREi8DzWys4aYyGo6wZbJ3zuHAQIMUqnx8eJSJJgQCBOs322PxQdlJZghxwVKBhL52VV5pAZThJHNDYUu6DI+1ypQ16Sqj74nhhEcV1JqzujrdY9Roj5Hvc9wT1BWci9ZBhZYw935Wq3k1JyPzBt2/cEYgGcG0e+T/FxEjS9mw4HEQr3VZZu9uXugLXu6rpBiAKHEcIQgrZptVIMo9loxP2grloIkYMAEewF3miUqFZulsvDdu8R1hsFVD2L2TdOxtMw6NqU+YaHwfv5Vdm0Huc4DP1eGWMcwczzOABAyRZqTZ1lCDpMASLGWkIYoZT7LBIeMma7XKi6drqVxRJ2h4f3pj/+/l89/ugcUZkWa+ixXVlbRxxgZDab7XYH4KgDTmuDAYtF7NqSgl6XhQiFhUY3NYp8VZt0se+61kjFCXQeDgkYCvPBafDDZx9+55MLDGynLxZFVkqgLJNNizEmQoiuNXWtAABGW4/5gUAW2thHEWdEUGU08WlENHa26OvDbms6lQShc4gjc3/ofe+Te99+eMZhWxZFd7BdJXamxDSOwsCDmvReF06Z3mjdIkq5haDT3dCHH50OR0ei1o0vRpjxZZrd3KbZoTUODY/GGNpMlW2jxAbe3K3m8wVF7N3rd//9f28uK4CmE5aA1f61hzXxJjSivDjUroLIUQ17S0zok0cfTAZTvsg1pLiU3XW6nG8zq/AwiuNpTH3bC+VU7zD+4+vrXfOr7z59hg28W94VZiDCsx6XBBkRef8PZnPpl+KwZQcAAAAASUVORK5CYII=;fontFamily=Times New Roman;fontSize=10.5;" parent="J1o6f_ijlUPL8cxEoB-2-1" vertex="1">
          <mxGeometry x="315" width="32" height="32" as="geometry" />
        </mxCell>
        <mxCell id="LUO2bR_xxj8n7OCwL066-47" value="" style="shape=image;verticalLabelPosition=bottom;labelBackgroundColor=default;verticalAlign=top;aspect=fixed;imageAspect=0;image=data:image/png,iVBORw0KGgoAAAANSUhEUgAAACAAAAAgCAIAAAD8GO2jAAAAB3RJTUUH2AceFygxJbXTOwAAB6hJREFUSIltltuPHUcRxr+vqntmzmX37N27tjdOYuemJDIKAQRBAsRFAilBgodI/Hm8IB6RkLiISAiCIzYiUSQcbCdx1otjr3fXezn3MzNdxcOcdfLAw8x0a3q+r+tX1dPNTndRRAC4eyxit9Mt8oVZppqxncxScjClNCtLMyti1srysqoAkAwxVNVsMpm4e1EUIYSqLE/PzsqyBADAHYHkvGO2srZx/WuvdTvLR+Wku9haiRF1TWFKaX9/fzgcXryweWF9YzgcAgghdLudRwf7R0dHIrK6urq0tHRwcHDjxo3Dw8NG1h3sLvQaAwLd1ZXNi9si+VAQcw3jUS50NwDT6XQ0Gi4t9DqtdkrJ3c2saBXDYb8syxhjlmUxxvF4vLe3Nx6PGyr4qkGMsSZq4/LSevfihcPHj0b7+xlhbg0Qd1eQ3gyHmZMOurufz3fefkIFYHjyzswgXoTIVPZPjmajfisKQYeykYErKCDcz11gXuOJGNnofOW9zw3mNmYpTfuzajoUKjIzA40EHGCjZ8450MbJHXA4ziWfSJ9HYHDMPUCIw0nmAB0OmtCFmDMgKGLihIPuAEwIuDX6nF/+ZQSOgAYZzzNNOiAEnA4SQVwc3owQgnIezXyyBARwNt1z+HMPMrgSfCI/fzoxVwQ5/74h404QTsDNvGk0Yx3/xwAITjYZcHc0tQUQMHdRdTqQQLobSFCTucAE5p7cTajWZIDwBra7wyFN6hieZPir5eXuIA2oRDREEXF3cxPJyGCpglcOUMzMfZ5vOowkQAd4jixQBKSIgIB7g5YOEBqLpUsvLK5e6HY6KaWTk5OUyqPDh17NxCvRUM8m6qlhDXe4kPNQ5hzmv4qGkoibwUioS+n0vLPy7e++ee35l7pFUOVsNpvMzu5++u8In45Htz65fX9v14fHUicDXZzmQLPSzguBHsQD5nEJCTcFc9eqFmh7/eLG9vVr1y6ttjqtoFlgwGzyRk4OJ9M/3nj/17/9zcHt93OYiSRlrE3c05dFA3cPFEUQijhJc41SQzwWJrq8sfXs9sYLT69tLhVRHYSJyFI3mCeyivnfbvz9wcc7mVNEqIRRRcwTGtKkklosrUoIEiJV3ZMILctSzC5cfu6tt3751g+/c2mtUwSPkqK4gmIunkTQ7Xam5eyjDz8sB8Msj0lBUEUpKtrco2oUl2BUhMgsZ8yTSgoI7ZXvf++nb//ize31di610ARQuFqKRIyqRK8Vvnn9+ura1mRaWUogTJgoLgoJISuooXZIIk3EyMrMJGdsJdUsLD6z9ezWQjtDLQQYnNEskKE/GN26/cnZYOA1Flud5ZWNZHBPFECDhAyUZO5Acjf3oFnmRO0wIkjuyhD9pRdefe7y1byqY2BlfHB43MrzVghnJ2ezVH108z/XyvL69ZUs5r3lddWgQlNJFJHgNeBI5pbc3INrpIoI4QYPyX11bfMnP/7Zle0t+IzMR8PxP//x3osvvXx21v/d7//w+je+fmHtEiuiqlu5FHl01M4cWlAEgAhJNfem9AUxC3lLY0GJThh8Y2P7ytPP5p2YJNUuAnTyuLjY+e/B43d23v/Xx7e3Nrel5vD0rNtpdVuZecWYaVxwjS7UmDEEqmqMIcsDKNbs4CETSllXg9GwPxiAGw51t1areO3119pLK52lpfXLl0qaFNnq5qZJTmYXN69kWUdixzSH1U7OagdjyDUlMzPNtp5uVrKEoBopOprNeovr2xc21nstuDkACkKYufRWV1955cWNxYW1Xm88mZ0MyoOj45333q0lykIPTKC45BJzzQqJmcYiiEZVEVGSlhyqonJ39+7+o1dfeWb9tD+M4r2FbmW+tdL70RvfKgJWo6bB6b2bd9hdrqf9opWdJI+aCfJIgWRlWSZSQgjUAIpDRIOZQYRiCak/7E+m5azkcJSqcT86iyyst3KnqFXl0Rf3bn4k42oyfLzz3p+Gk8e6sOEao7QD6lldA9akOHkdKARR1bWqkOJEVdej8fCsPzw9m5C5SHsymAzGp7QUGKSclI930+G99d7KncOHdz/5oLJhu/uUFy3OUl1OYRaUADxV7giEwWFuKqF2NxGnDIYng+Hp6dmk280XF7q9hawOePD5Zz447mEaq34vsi5Hi928117Q2AvZQumWUFOabVBElBAnQ13PVFVI0gRM5qIyGp31xwOTmFBl7UyKsFSsa7CjXZscH4yGdeVZpd3Pjo8PjidZe42hPZ2MoljM8rKszSAmqlkIIaSqJiAiqQYsMSXJYlXx3v37Z7PJ8ko3uY3ryoOH5cV2ePnw4eUTftHudsaQW7s3hiHXLJuUU3XkVDdzMIQISHM80mzjEh0wT3XtVenVzC0FDbXJytpmK2REgIbS2Z/Wdx4ef3DnPvNea/XSvZPROzs7B4NHHmNtzFUlpSqlRIkxS+YUVQ1BKW4uKj4/DYKpBsuDwy/+8tc/+/QHz2xvtzs5kPb2Pn9358ZkOv3Vz9+GKpSmXsccFJi5mwPUEEJIoIQMkGQe4B5URcQsuQS4CBLrWZr17+3dunf1WtFrP7578OntW3t7uwcnD648dTkv4vLywvPd7atXr3y8e1OEIaZ6VrqoiaQEVQkxSwme6v8Bjc5BxxBIFJIAAAAASUVORK5CYII=;fontFamily=Times New Roman;fontSize=10.5;" parent="J1o6f_ijlUPL8cxEoB-2-1" vertex="1">
          <mxGeometry x="347" width="32" height="32" as="geometry" />
        </mxCell>
        <mxCell id="LUO2bR_xxj8n7OCwL066-48" value="" style="shape=image;verticalLabelPosition=bottom;labelBackgroundColor=default;verticalAlign=top;aspect=fixed;imageAspect=0;image=data:image/png,iVBORw0KGgoAAAANSUhEUgAAACAAAAAgCAIAAAD8GO2jAAAAB3RJTUUH2AceFyc1pUAL7QAACStJREFUSIk9lktvXPlxxavq/7j39oPdze4mxSZHfEjUiKNYI80DMWJkEAQJ4KyyycYrf4R8iXyMLL2zkUWQlReOF3aQGcnSZMYazVgjviRSlJrs9+177/9R5QXHOajlOcDBDzhA4b/9689smia1LKvVk6ROhEopa62xhjQREQAwC7MABGZWKlWgoq9ijIgkwt55V1U+BFdVZVGMhqM3l5OvDr83a/UHn/yVtsZam2RZliZpkiYAoJTSWpNNSGtCFAANKIwMDrhg8QpQsRIRpRQzRgxEZLQWZu+9Tk2tlqz1O68X796cH2ljjDHaGG0Ta60FAERERCIiUiwizEprpTSBSKhiZAC5tomIiFybRYSIkNAmNsnsYNAvr5ZfPf2jVkohEiIppa4DSqkQAhfLJMs4RhEBDoJKwBNA9BiExYfITIjMzPKDmBkJySogEfF39reLotSIiIQhBOd8mpoY43W74CpFwswIEANGgcVi+ubiXZq0d2/etJmeTieexViLhF6EWUQYr8MEl1fD8cXIV1FXISrAwDLLFwJKEyGz1TpwdM5pQgSYTKYvXx4Vs4mp9/7hpz/d7mbT8+d+cTZdFiFpey9ks0hGQAgjxKDALOfuxclJmtU1IDjvssQSQr4YN7IaEbFElBDZkzbKmOHw8skXf9i+0f/nf/qXhw/vP//df5599RsFhQT99eEz0Xb37kEp1nmnMLKINTpNUqOtD6yBgzD6qmg0a6CkcrOIWmySGOuc9yFyjBcXb/PJvLGzfWvvZiwuzw6fEo8SDZM8iC+rsJyMzz1kQlZbQwqUYcCQpmkZo47BR46LxWI0GjZqCbNERmGUIImxNrWVK79/8SdXFsvlcjqd1qws5yMbvCFECbVEvzl/XWukW3sHDtMIShuQ5TJG32i0B72udmXBABHYR57nRVnF4dXs7OxidDWvp+nHDz+4tbuBEturrfFi8egP//d3P35QxcQ0d9odO86Pq/Iqnxajt+PtHa4109yDcERQaVLvqMb23r4mpWLk6TSfF+7k/HIynQ2Hk0leMaYYZ2Xwa72mIjapUUn26nz42//+vePmfAH9Xmt9E07fLIDtfFyOL0f9ds+gCaVnLvv9waC1Dlmif/nrR47j1eW4rGLF/kfrjftba49eXw3nVab0xeV0llc3t7eff3e69/59ZRrPX57f3hk8//LzdrZ7sLnaa2ZE2oe4WFY9sQkiELJoFlvmPuSl/vrFWUQBQA2sTHj//Y8++vCTR7/4d4hFpMbSyyR3e4M1Q2edVkeZlQ8ffnxrf3ttqzuoV0lctHv9wc0yTajZbhmbQnAeBZHOXp09/eO3ylgNAABSr9WajUaYD3f2bp4U5XwetCgWrFhenL7dXG8b4GI2+ewf/7a9vjHYvZml1fybX8dy1t1Y/0n7hlVxFElIiIRQgH1VzMr5CHRNIZIgCMNqp/tRr9c46B3VmunxtJoMK6SIZlkswVV7Wxt37t7bvXNv7b0tZYCnr/Kjz4ur18rWdWIBvVMZ64xiyJf5dDpdzGe+qohIX487hDB7e762v3kR08n67b+///qoOv2vizkZNZvNJ5P8s5///ONPf0JJHTVZQ05pD9lk7srxGWRNMQYaHdRpOZ/l+UwrPrizu7O1sSi9BkAQQaLcuWfL0d+UFUZMd7q3X6+Zi2mQCMBpWl/bfj/r3BDCKFxVodZ9b2Xvr+3K4O3J0XwxWRYl13VrpX/29iJNdC1NQNDX0lo+1wAEIiJQkX3XwMb3v80UPVnfaZq+gz8xsLgqkJhanVEApFiWATkztrP3idl7sH4wOXr++Nnzb3wpdwdbXBVnR09Shd6xFyUMBAIoCIA2RB7P3lVXMvy+cP7C1qMQgAZUc1eOxpcgUTgE550LLkSdNiFbTfo7zffulrqVNlZrzdbm7m1AWiwW3rsoYtIaAcj1IYTRxD+DrF0NPzr/pllNLCIIoU5fnV8cH59UVVWWJQCwiNImzbIkzUhrShol2P7mjs6ajU539/adMvJwMrGpStJUESkBAYSowAlRTW+3Fx/EUZzkh5eLuQcknRfTu7f27937gBQZYxQppXWa1bS1ZeVneW6yxns7+yapA3NmRFC9PDwCjr3+uiJCwWtMKnG4mpq8rht1eDhonQwXryclKc0QlciHP7rfbDazLEuzDIlskiiti7J0MdzY2KzXGwCoCctlkdbbF2/fXZyd3uivEaD8hRJEzYulfPtt7TdfRkL32YPVW5t1i9EinR4fv3p1WlWVsCAgIsXIZVlpY1a73VZrRRMmmlY7HVSNWS5FRcu8KvKFAqVQWAkIIitZVqFcwGRcKqnu7bf2u+1wVZGDFZS7Bx9s7t1uJHUFEIUVEQgkNjFGSxTnvNEmS5KTo6NHj54+/uLzWE43+22lSQkICooiiCgCAN4Dnyz8ajdbi743x7vNtV67OQu+vbXZv9FfadSrquLIikhEnHNV6ayxCMqH8PLw+Je/+o+Ls5N+U290W9oyl4BMICgACAAAQETLaZhVPb2/YZfvro6Hb2Z8/MXjUZpu7mzXarX5fK619t4jkQhG5iQBFh6Np89eHJ6cvloxqt/rGmt1ClACCTAAAygAAARE7Oqkbjsnsf75aHE+Gi2CCojT/3366cPH8aFj8Wma1ut1pXRaa6ZpWrnKueLk9OjJkycQqlY7a7VWvA+qbUzO18UZgP7/8bIrySjk//Pld8dnyxK1M9YgGVfVBfu9Xru3CiDOOWZuNjvtzmpVLifT0dHhi68ff1GO3210m62VOoFQvZaKCAmgXOP5AdO0jC+Ph9UkpKgJqr4vbxn58f6N9S5cXp2WZWGMEZHlckmoQuCiLJ2rzk5e+sl5x8S6Rmb2Mar9zsq7+YKvH0EAREFEBAAmg9ZGslD1GvBga+3T+/v7B9vtG20xGlRyvdIYQqvdLlxRVnkxHV+dHg9WUotREdtGGjnoZmJTlDkKCqIwAAIwIgH5wFwz9tba6scHO7s76/VWU9dSSkxvY9Dpdly5eDO83NwYIMR8Wbgyd9PhrV6LVu60bfp2Ml4iM1eaEDUqEPkLoR9EwOurK/d3d+/vb+/vDhqNrApOtBKFxBFdno/Gr18eDnpd59wyX4Z8PHr1XX5+NJ+Vi4XTlEGAIPJnrsN9hJPS/akAAAAASUVORK5CYII=;fontFamily=Times New Roman;fontSize=10.5;" parent="J1o6f_ijlUPL8cxEoB-2-1" vertex="1">
          <mxGeometry x="379" width="32" height="32" as="geometry" />
        </mxCell>
        <mxCell id="LUO2bR_xxj8n7OCwL066-52" value="" style="shape=image;verticalLabelPosition=bottom;labelBackgroundColor=default;verticalAlign=top;aspect=fixed;imageAspect=0;image=data:image/png,iVBORw0KGgoAAAANSUhEUgAAACAAAAAgCAIAAAD8GO2jAAAAB3RJTUUH2AceBzsO7hoc5AAACglJREFUSIkFwdl2G+dhAOB/5p99wWCwgyAIgiApWaJKS7aP28ZVU7t12uPm5KIv0PfpO/SyL9GLXDSNTxKncmRT4r6AxDYDYPbtX/t9wn/9539ACNM0831P17QojjWzhijIK4TKkpGq127JEEgQYiJgxtbBJq/Knd3B1e2946i9bvOHP/yoKPYmiQpO7x5noR9AKtQaTmO38fHDB8lfbyRJRghBSVE0rSGrApRwkiqSyBUZMRKliSwCzigmBFPKBJDmESZtBgCi4sfbx3tvfTBpnLx8ffXwkE/vsMhUWWu6jqZI/UFHWm9DSZY544wzVTcM00qTRJUlU9dWa9/Q5dHeIE+i2ePUMBXTVCrCihxmccQwubi83cShZBq949H+J5MtLQQVGjUTx0VZZEZT7g/a8OTlkayooiQRyhVNz4uSYCQJQNPkJFqH25VrayJFIkOmKjTrdqfRVKAUrLfz+eLdu5+oCF9+/qq7103KNCly27YFwnCWF0UeVIHeMKS8qkCc6LquadomCG3LFDioqsKxtZoKJBPKrOi2G7Su+KuFJfLjyVjlcHE3pVmqS5IqQ1kRS5ysl6Gs6W9ef3pW8tIPZAs6Q6c16sNv//nruuvmec4YT7NcgmIeBxQVEkW2Cl4cjw/2dhUR5HFQRpvD8RgwYTb3dF1/fXJomdrd49TpuG6rEUVJs9VUJBFUhCESlfHoaKRrhuS2mxAI3nKp26rumJAhhDJKK3enPuh2yiK7vrhI4kzgZKfZlAXu+d75zXWaZv/+b7862u9TAd9567VpCYDjLFUtTeBYUWC73fUevB23C3/9r/9UM3UISL/jQpLhLMBlXLO0w8nBfLl8/9PHD+dXdr1RbzYlSWSCyCWFMFqV+bDb6fV36s3G5cVF4G2G3UGRhPOnBwExSvjM33ACTsavpLppAF7VTDkJ5pk/UyXxzV+/rjD93fe/v53O87woymJwyO12TwIkzFJVIYOdpq4IV/dPXpiWlLx98yorqovrqd2uTfZGP59d3l9NH7z14fiwWe9J640niQyVxWrp7Xdaezt9y7Qv3v3l7MNFySAFvNXrEQFkBPVazYLg2+mDwHGeFYtFIMuyZemWqZESoTDIcDp5/bLsdi/OriVKLdV6mi7hL/7uNcHsj398560iy6xdXt//7/c/XF/eQCgJssY4Gw77+wd7bsPmjGR5tg0DhLFuGWmRx2ksiIAyIkJZUlRaZqzMB/2duutGYRxsU4qAlOHi4Wb+w7tzkYnzxbZIo17T6TQckVNKKS5LBYrdVr3Xbmx8n3OiGTqmqqAosiZaQIeKbDZcQgBNi95Op26ZIiGvDifddve33/98/7iUVuHaC73T0wOV0surR1XXgCJFZQEFKogqQkKac8zkijBFUiCQUMUIA2VZpHFWFgUQMhkqYZxAGU6OjrpOk3E9jPPDXmd9PMzyEgo16tSsZ3vNL1/ujXZ23v/lLC0SQYEVp2GUe370OFuttxsgsJqihevt03TueevA3xZJIUPNMmutRms6nfvbXBLlNA63UXB3d4uqojceffvdd/AXv3nLMYmWy3wTPn82brfrT7N5nFZhRtIykyRRhiLARRmt060fh0EYBAhViqJqmiOrhiAohIDL68WHq/Dm6s5Q6O7QaXTqWLYWafa0DaTBaDRL8rxit/6q25m+ON7Ps/y3f/iQI7Hdqw/7/ZZpuwZsOrJjqoxzw7SLChcVfVxE/npbVcipWUGSE5HvHx0cPn/OOHyaBT8+nEeUEQFKAJFoHUTrmBXo54upqRsnzw7igv/3799HG1RTZBMIJlSqiiYCo4wXFZmv/IW3WUc4CFMBCKKimI71auIc7g29bX5zNbtbeLPUd/sd3TalF7uTpPmwunxEGN4tUsd8/PSZ+OXpYYHx2dnF8uGJZ3nR0FY+kSSNcrFCpMAkyErEgCCLw93dnUG/KEtC6fnZRbRNn5YJAlAz7XFvtDfehd/96peuYVycX0cFQQyiNHZN8WC8c3r6otdsVVkex6FqSLKuqEYNynpeYgLEivC8qqAMx5MJZXSx8FbTBFfErtfURs3tdHRR/eL003/59h/hN19/ZRh6VZVPj9OkqBABgiA6Nb1uw4al7zRrsoDyogSSRgAVGZWAyAGAuq7odUphkhQVo0mBF/Oot9tt9ZuMqnGEBZEfDvdajRb8+3/4W8por9NJ4ujuYYGwQBARAG66ZrvuKgLdH/Y0zfA2IeIACpIi66KqSYYZpNl2vSEYaaYhaYq/8scHB7pRKwsWR9HusNdy6llewK+/ebvdrB3bZpT934/nGDGBMQ6oCMXdfr9m6pTg/f2RvwlWYYm5hIAYV3gVbmfevOWaR+NdzEij06zbRlXwp8cNQpmqM8sycYkkWREhlKuKrP3taukBDgCAacnmm/zsbvnz9ZPV6idZIUPx6GC/LNkqyO7Xm3kcpoyYDfvV6bNvv/lqOOh53urlq8OyKj5+vPDXy9F+D6MyTiIOOFyvveV8TjF2nHqWFZ6/YYBjQKkoJFnRajRMXdN1TdGt3707v/O9TCCj5+PBeNjtt11NtkQ4XwS1Vl9gmFF2cXG9t987Op5YZo1zlmYhbLUbDdcdj0YC4Jzz2WJJBU5EXgGCKdyu15ah1Ws1WTP+fH4XkMLoOqqtFKTIslLMMwXzu/v16edvqyJzG/rKn3Y63WdHJ3XbYQDbjgx/+faLbqtOqhIVpePUGKVhENQdu153irIKg7DMciAIoqY1BxMqwZimRMYVq0gJ2qpeh+pyHu3sHhumpmis7mp5jrbbbLXdBEU4+WQE33550nINihDDQrPROjo8WM5mMgefn/6VbellUkhcNkwdyhKX7DjLoCYOjwZAERM/NxnYqTsqNCXZSEkeJtvj588I5bcPj+fT+y1OBgcD+DefPd8d9N26m+elqCrjycH+ZMw4xQQ33fpkdCBzsWkZk9HwZjYP0vCTk2d74/0K0ae7pVgVX33x5tM3b6gkxgDN/MXTavW08nWrhjGNUdof9eHJ4S4hbBMEs8XCj8Pl2nNcpzfoP81nP/70HnPQ7nf7g/Zwr5exikuCv97c3j4ACssCKSLfG3aZQA9eHK9ROV0ubu4ebqZPNceliCBA3H5L6rU7UNUEigZ7Ow+LZZonH88/iKLAAJUdM5KZJxMdVtR//J8/fV9gYthOq9sXuGTblikZm7KKyyWo1T6e/5QkWZbimulKsiJAwVZtjKgEgagphut2oAYGe8OyrBBCq+WSlGXHbYhNV+82nMMdVCYJZ5swHNZqJ69efLy49Pz5F5+9Gb84DTz/5v7RNYzGYQdksCrLmma2D13N0pv9tsQoLUtkSpLbtDVB4ZTHSVKlGSkqWuDtNkHdEmFSsyzdddOFt1h778/eJ2lcr1utbh+Lqh+VsqB+9nJMKkVI5e12gwUkW+rBwVjV1f8H12ciKEPa3SMAAAAASUVORK5CYII=;fontFamily=Times New Roman;fontSize=10.5;" parent="J1o6f_ijlUPL8cxEoB-2-1" vertex="1">
          <mxGeometry x="411" y="32" width="32" height="32" as="geometry" />
        </mxCell>
        <mxCell id="LUO2bR_xxj8n7OCwL066-53" value="" style="shape=image;verticalLabelPosition=bottom;labelBackgroundColor=default;verticalAlign=top;aspect=fixed;imageAspect=0;image=data:image/png,iVBORw0KGgoAAAANSUhEUgAAACAAAAAgCAIAAAD8GO2jAAAAB3RJTUUH2AcTCiIb4nUamQAACalJREFUSIkFwVlvZFdCAOCz3XPufm/dqrLLW2x3291tJz3pToKUjNAAQiAWjUZCCBASz/DHkHjkgTeEYHhBGYimM5l003R736psV919OTvfB3e/jNNJbAXwEEvHzsnZw+2cs8DOMgYU7Ormyf6aBuZx2TUNqNt+OnV/crQLIK7bDiLycL9IpnQyS+8v8jQa316sSlP98V+/nPrsX/75TT5XRErBCItD1ixLn7L9vVmvr4JUeRg6gAa+j6kcuFFAZ2M3G6EkJFYUbhB5kyAv643NJFnzAQEsoEVVPC6XZEJari/efRCNiEOEDAe6RxAsXn5mfvpl8nTmP9tYn3h+FEYYU+r4GLnj6QxhYFU1CeVO5sQEDPkywBgKHlEUMxcbB1mna/qN2fjoaD8IEyEcgtjTg5g4GHlU/uLnx4e77nf/dero+IuDZ/f16X0nrbRaYwfHvhsRiMY+frmf+QBQwu4Md203DQhQtTOQxAmBHwRrdjqeOBue5zJkWRgHB8cpPv6K/u3fvfzmi+e//Pcr4r56/fqPPn+9/+VPo7cnZ6cf7zzmQgvv75dG1D97vfc7zzY8U48ju701otREAVyPFAE9xZABq3j3MJ/3oBTQ1I8miNjuoSYvjsdPnkT/9I+//Hjq/vlfvPyPb7/n/OLZ58ANGcSKixJYq41yEZwl3tQniJpoQjrNozR9KAcGTRRFrZB53vuUIji0qitub1VPAYSEjfHRq8nH3y5/+G0ulJMmo9OLN17W5UP1w9t7jzCkgDZEyPb5TvZkzYH8EWg5CDBwME3HkI3KWoq2i31JHZMkMSBWA0sMODrcr0W7tbuHNw781YPopJZaNDWnyfzrP0yvLvn/vVtijZEhkoOxj786jsrHJSA0HYe8JRcnS15Uzz975gYRVEqJldFGG9pxlaSZhwA0qiPqsRR451WsDe0HW9RV3eWvvomA0/74ayV71pZ95MajaBIovjlpbq7l+wtnspGNvND0Toi7ZKwIo3s72x4WXc3n95VQSgu5FgVtuaplfXVR4E//YHr6sb676q3Fe0fx5m5y8UFffUDQQATwwd4hkHJvTX71hYvh5FffPTru0FdLo8A3X227mb6bl83jcn3iRmFklEVAiXZIGN2Z+LMslg0lrut2fd5UfLq+Bgj7t3896wuXV9SlPaWuNnbo261X3uYus1r//u+GUQJG8WhxtTpdrMZeZpSwqqPYaUSTMJ64jBol+xo7HlV6L4vxaNdf3DVZ5G3uxmdX1eOdQlhS4jACICS87yxvhq4nJjFt9fUXO4rrfCCEsbwY3p13HoJPt2IHV1J2DGgHKkwosAAD2PX8Jl/idCMYWjUdB3lRVoUllmEim6ZH0JNcA8G3R7FU7nyhu0b3ihicSki40f97Uvzm46Pi/dFuGiCNLORDr7VtO4scBiwfx0TTiDzbPcDi5ubmhnkORbapK61JGHiPy5Y6aHtv5jLv/PaeUND06D+/fwugs7URpym5ztvtg63RCJ/eta1rKFIc2EGjVSkdDzNHTyYhXNvDfsrOTm6HTm7uZEGErQUYA4cgaAllFGB0cnrVC5WN0jhiy9Xq+qE9Oa8f5/lf/tVP/uHv/0ZL9e2b99eroRfGUn9RKceLyqYNIt/x3Y/zgVyePdT5QKlTLHvmYWxZUZTBesSYwYwoCDsLQ4euyjaJsigde6LiwHn9avZnf7rz5BPw4xt2WWljyGOlNwSyJLDlQJHdcdOH+072DulKDiTEFDWl6iojuO65qVlPGFTQIELWN2dN2azKtm+4saAVFhLz6dH6yO0e794GYZZkez+8vygxen/7wFw0cs3nzxKC3fvbfF62WGvjeW46CjDGWuK+HYxWceo41Om5chBez9LVsgqD8H6eLxa1dWgUgIPxsJMhJdC3v26UDKIg/fb704tFW9X8YD872AmQEFfn9dWqRxhjBJHRplgW+XIFsRyvEcaA5CjwAj3IalkZZYQyG1vrlDlW48h3p0nw8U19/qHte5p4cbdasSCGLInieG93poQsqvKqqL21MdECtrIb+hYgkE08PzaeD5taa2ugUNDCxaqKQp9gUOVNmnjhdMzVSmMH+bjqyc1jcTNvTi4W2xtbAesitNoZjbB1LueXZOQevZghC5QxGmM02xjHaeg42CEupa4fwL5vtVEW6Z63SRoqzQGyEEjGcNXLStlC4B/fn18tln6cXV1cXl9cImy5Ar3y5oUYTVPiuDiIsevhMPAQwULyyTRua5kvB+YjwYVWmlKqlIDIUEYgsEqrwyfrQHRlzQvhvHm3WC5bJXVRlNSlYeJyLm5uHqRR21ubZ9ct2X+aZeP0fl6fX949/3RnPE4vTh88N/ZYML+plTDCA6OxjzGejkdVUfp+6FGmwPDu/KEU7fyhbmvuYPTJ9lqYJhoO//PuJvPYdKTbTv/qzTnyAmd9I2EuWJ8F44l/dXkHIHxxtFutGtkbimhf8+VDyzkE0Nn+ZPuT3Z2q5twyGs24dpnnp6PIIShwfd6IPB96zW4fOj6o//7uQ94MeGs30aZvmm62Oen6bnFfHhxuGztUZbmzO52uhUoPs60dh/rnZ5eexyh1LSR5WVtL82IIkjCIfGRQtaybamj6gYXh7kb2e1+/uH9UORcEYZgXlbHYZbSuiqd7U88DTdO9ON7QWtwvcowNRIhzCTVpKwltAQngAmgpHEIFH7QyWZbe1vO6GKwDnbH69HhfKNMKO/ABH3wWHr44qOvBarEzmyKghqZen46NsavVQ1UOfYOVRkpK2cmuHkZpfHR8qCWoym7oRN905aoeeiGEFoMxSj4/nHoeev/xelU1hCLy5Pl4f282n8+RBQCZsqySJCnL4fouH/hAMEEQp0mqtW7yui77i/ObQfWu6wqpbm8XagBGgR5xo602Jh4xP3RXZb8sVF6IySzGP/uT7bc/nojB1FXddx1CsKrk6ekKQhzHvu8FRjmL+eNqmTPXscDmRV3UJaF4lI2ElH0hjLTAQGtAkNKnxxvSSgPoctkJ0SejAPuZvruutXIwQpTgthNNreNoxJgjBrVaDgjQoR+UHlzPYZ5DXYqpo42K05APvKkahwLqwjTzspkfZW5Vtbe3eRDSyQQYoHCUOU0FrIFaW0Ko1HKUTbtWPSzKoui6RjgOTVJGHCO1ikfs+fEzPwi10RABrQ2AajqLR2vhaMqYT/qOGy2lGIIQZRnL8wY/f7lmNARQVcXQtXK6Ho/H09+8ORt6paTGiFBKxmMfQE1dh/owCCOIGB/6pmnSNGI+DZMAQKChDLwgf2g8F6+t+RgrPliMvP8H6ejP2eqcw4cAAAAASUVORK5CYII=;fontFamily=Times New Roman;fontSize=10.5;" parent="J1o6f_ijlUPL8cxEoB-2-1" vertex="1">
          <mxGeometry x="283" y="32" width="32" height="32" as="geometry" />
        </mxCell>
        <mxCell id="LUO2bR_xxj8n7OCwL066-54" value="" style="shape=image;verticalLabelPosition=bottom;labelBackgroundColor=default;verticalAlign=top;aspect=fixed;imageAspect=0;image=data:image/png,iVBORw0KGgoAAAANSUhEUgAAACAAAAAgCAIAAAD8GO2jAAAAB3RJTUUH2AcTCiAQR5GhkwAACchJREFUSIkFwcmS3MaBANDcgMRaKNRevYtNdVNcTJEm6bFkz4Qj7IMc4cM4YiL8AT76Opf5tTnN2RdLNptqLr3W1lWFwp5AJpCZ8x78n//+W83raFN8+PgpiiNKqW3bVcWU0nXVFCzDuDk5GJwcDTue6TsOBLg36tm+d3u7ERzFcX57tyqZ5FxQE4W9YDwam9TKihIA1en4RCmZxEmc5HmeCyE8z7NtGyNdlYWE7ZPTw8nQCx1lEj4dBdSkTDYnp2FdV0G3NIE37gahj2erZDZbY2K4tmsadLfdEkoJwQQjfHQ4+fzl88ePV0XJMMGe50GImoYjIKfjwenJfrReZ7t4NOmXrHl/MfdD/+XLpwYhsqk9ixRpZJqo47u2bTZNa1ueRWmaRo7t2BbVqsFfHe9F0a7IWLfXo5aFEWasFA3XQEEAPl1eNCL77b8/e/zNXt02P76/s2zjxfOnFvZt0/n67HGcJVorKSrTRI7nNVyZJqEUK6k7vg+0xE+fnCZJattefzDKiwIiKKW0bFsjlMSxaYA//+dvvv8NGU6q0cSdTAbEhIHXHfWmd9e34XjUn0wpIbzMWZUZlt02EAClFC9LHoaBEDV+/OhxXhTj6TBJGGO84wdtU5tUW6ZpIvnHH95+9+tw/+SiOwKOdTQMx55Dkx3rdDpMlHez1dnZE6R1FkcmAZyXdc1LJpK0oo6HMVRS4KOTPcYEwV6cb7s903dd02hfvpwAlZ497v3+9480uARgRe2DSfgnnhm77eLni1vX95zAm89nLiW9oAe00XChFKs5KyvVKssPg/EkPD3dx9O9zsOyMCg/PF//+vsDKaDjEK1SSlC/66wWV18+fnJpL3C/0ryfpbvb2ed//PhpOh1jZBIDrNczUWvfGSmpuSgBxHnJTEprwYeD3tHhHh73B16n/sOf5Z/+Qn0P9NyzX3zzOk2WQJVhaCBUF2VGiO52vSzbSr1FpqaWg0ljEBh2J1lWRdvIokSrBiKYZkmaxYZhcI5ErRbzNT47C3/4L/AfP1ieq/Nds99/u52BzcN9Xt+fPxv3RnarWpM6RV6VRcZ4hU2jP+giyBCQNp0Q4m7WdzVfa80NkzZtLThrmxZhryrBdlviv/7t5M1v8ef3uk+/N+T00z+jq59XHy5/Dgb+q7cvJABc4cF4pBsoaslqmqTcok7QsUCr1hErWIFx8/Bwr7V2XNc0kWs5eZZjCy+XEReQvH23P+ock4OpS4ZJ/vn2/v8ur24wVafnZwqXDSiJrQXMJWxszyJGVwpqYq8uC9cdbpIVE5ljh+PxcbzZLtv70bhvmNh2sO+rvCCzeUX65rOj8DvY8F3ykTj5szfD7lgTHPTHXtNWhkF41SKJso2wMN4bIUMjExraDDrh9BDqjOv7RSYYwQhJIZJ4Z9pe0Au4yMZDulyVZHG7MdGcA9LKxA2ak67XG1ostyBSlgU2203F+G5VNwx1qJUZwrWgVLXtup1uRwHW5nmWrqoEeRYejnubbSRiNh7saZG71NBKk13x98v//ak7eDba8yAwFw8b3brUcrsDTG0JIYBQawC0bhEGWZZryUWbnoZnUraMtRVTFFstUZDCxW5Zl2J1lyHhhqHTSqylxu9+hZxwu0sz0+gMwsl6tV2vdghp24cQKaBhUdS+53iOSRC0TEMKYTvE9twsk3khpORlypOkQFTzlgMJWaFvvjxw0T5E7PNNjB3aff4GDQ/J1cdob7Q/Hny1WF5t4hvTMjnnsoVZyiDQtmkEXsckdlXWB0cTx/MrZvjBUEmebNK72QwSpaQGAFdc7TLx/nJ9NYvyQmOWdS233T9jLCPxPMgiJ02T7e5eAdWIdrlYty3M47rMStfqImnzqu71/PF0j6AedYKKJWWaJ1mBCJK81QBR2yNWcPcgNknpul18MDm8/Ljq7+NOx/vp72yzEjfX90WRHOyFSKnPlzeGdgzt5HGFFHaoraXo9zqW5Q56RxVjy9VVkmzyjDcca4VMEzecQ4A0oXFaDXtT/Orloy9fFlmujk+8u+vdxY+rOEqUrgPPQYC0HEFJZQuAggYiSrYEQc93RNM6drDZPszmd7PZKkkKgjDBGsPWd+xBvzeeTvJMeF6Izx+P1uukKuwsYYf7oZIVy1slzCwps1RATaWETdNAACmldcW10korxuuC1XEapWm9WqRKCdNoRn1/f3/05PxsNOgNuiEXsOaAEGy4jilbO5pRVSdPn3ktV9ESUKO7XkQVj1zfcH0zDHyLWgSCJClqwaljXd1sAITLeZzGvDc0jo77z8/Pu8Egy8rNZq0BdS0kVUM8x0KwkYATbFM0Xs+F0pJYdSstKQHBBtDQpHZZ8ep+4VgUqqbTdswGL1fbeJcUeROG/rffvn79+sxAOI357d06SbedsC9UyzgjEBdHh3uLeam15FxYHBPkdzrEtCTluKoEQtj1/CJLTdOGENqOWXO53u6yXGjp7e25b96d/vLNa0LgarG4+rK+v3uQmleQ7nK5iSIi2sZxbIAYNGjViGQeHUwOJ+ODIp+ZhoDAQEQXWSRq7pkjBJRSEhNzNAn3Dm3Xtt7+8uXhyb4EYLm6u71dXF7O80w4vrO+zi8+rTiHBONgufxkUDdnpe97RUmyvH7+/JwgLsqkG+DT88e8TufzbRaXEMt+n777t9fj6f7n65uTo8l3373bRvW/Lt7Hu3US55v1zjD94fDo+qcvm4csCMf49HifQIPSbpzmGGETWxijoOMPQuPZU/vRY/+rk4PT4z2t4T/fL+tG/+53v3r16ttttOuPRmfn53lR3Fx9eVjcbVbzu9t5wfjB0UElxIfL+6LkmFBkm86Tsyee6wa+Zxmm6/oaktl8mxUFofz8yQioHMFmNApNah0eP3r16lWapoyxF89f5AW7uLiY3X/ZbRbr5UOeVZPphNjG7XweJbnUEGhAhsNw2A+2cTod97K0MC1HQyuvGBNOnOrZLCEwqJSE0Pj665MX377o98Plcj6dTne76MO/Pszurjkr6qKKo9y2fNfvxCm7ut0WpbBtN+h0yN4kYOXO84Hr95dQ163CpoGp5/WmYe+4zBNWsCxfaIA9l46Hbp6lAIAoij58/FQlxXa+kEDtIkaQe3hwfPuwYtJMc6WhEXTCQW9AmKjrVlBDEgNaNgEC2Z5XN/zqenn9c/b4ZNINw6vbxS6KbMN5+fzkpk5u7hdZXopGNiWvWFNWFbW652dPi6K8u4tWEe943cHQD3yfGISsY25Razxy4ySHUHZ8HxETI5Tz1nSGl9cpuU/CoPfodA/KuqpqUQNW8qpqZN2mad00+Pjkm8FwIBX88eLq/r4YTo6G07HleoZhsLL8f+Mm4TszcvcRAAAAAElFTkSuQmCC;fontFamily=Times New Roman;fontSize=10.5;" parent="J1o6f_ijlUPL8cxEoB-2-1" vertex="1">
          <mxGeometry x="315" y="32" width="32" height="32" as="geometry" />
        </mxCell>
        <mxCell id="LUO2bR_xxj8n7OCwL066-55" value="" style="shape=image;verticalLabelPosition=bottom;labelBackgroundColor=default;verticalAlign=top;aspect=fixed;imageAspect=0;image=data:image/png,iVBORw0KGgoAAAANSUhEUgAAACAAAAAgCAIAAAD8GO2jAAAAB3RJTUUH2AceCAInqXBODwAACVtJREFUSIk1zEuPHEcdAPCqf1V19bt7eh47s+v12vHGeRnHeSiBRAEOiC+BuPDZuHHhgJAQFxAEQVAACRKwE9tZO7s7s/Pod3d1VVcVF/h9gB9+cZ0jZB3HUUrKYSBAMYZxHI0xlJC/f/7nP336277Z3j45QhZ9c3Hp+5Oqlh9+9NGdu2d1uZN9F8XJW48+yJanHicEIYsQQgij/8H7SmitjdYIIYwIsmjURo8jAHn21Re/+dUvGMV1fQBQjBHRqyybX7y4lMp+9MkPJ/NJke8CL0DgHt9+9f333nUowfj/ObaUAPnZT39SFXvR1GromrYpyqLrmrar2775/LM/qPbgcQ9ZdHK6PDlZba7W+WF7enu12+5fvFyf3XvbC1Izoj9++qm25vTWKXc4AEEII4StMRgQ/eIfvzcjRVi6LsPMzctWj8j3w0H2m6vnVX54/PizMPSJc25NvD/k291ul1eeFzmc5Zvt/ddeXZydeC6MGm2urhn1opAwh2DQGFtjCZ1OosBPP//778pyHyYTIFwK2K1tWZZCNG198Dm4DuzW17JvLVCHe0oM3333nSePn/z6lz//8vzc84FzvlqdJpPZpFsBMNc6lBkAhDCQ73/48MWL52V3Mxp9OByKMkcW0nRy9+7dvjnMYo6M6dqu7RqptEHE5TxgcHqUTWJvenx89/xsGJqXLy8IYV4QZ7OFyz1jLQYEGDAm5PsfnpdNQRxgbrq+Kgj2ptNVnhdArJb1dn15eb1zgtQAVxZC318s5m3bP3n6LK/axepkMs3CMEiS6cnqTIyjF4RhECOLCSEIYQBCCZJJxPO2BTmeHN+jgOr6sF5fF8VNGgXCkE7pk8Xi5eUNBWoxXF7euC5NjrK2Rd88X/uht91v6np0nNQQWpZVk3WEqtFy33cRAPnRD99xXeowakdpVG90s9s912PvsbDvzDDaUcsoCA7b3Fo1WQTPv7rgFAcBYyQu94U2NXd522OgtCwL34s8LwLiaGSNtRgIbTGy4xAHhDMhemQt1ZEnehMFzvVNvdvny9USA1KjQMAChychV70IeYpD6VB0erwYTaykffT2d643337xr8+rsn7zrfemsyW2msBA3v/4/HDIyzInFK+Oj6bTzOHBft98/fSF6yeDNIvFfDpN66aSA3JpNE2HB2/OkwS8QPkucz3ied7f/vbPPM/Pbp9++eU/83wzDC3GyPU8yji593qkNUHYCaJsMpuGceL6k0PRVfWQZkdV1QxDn6TpMPRXl5eMth98NMkys10LRlejUpgUwMbF4kwI9PXTr/N8mxcbKcu2OahxDOIJ+eB7r0klu0E0XWesTdIknUzqut1tC98Lq6pqmn5UZpBDL4rzVxZ9X3LXk9aTOkzjYJpB3/Q3m2F1emu9e3mz3VGg1nRG9VI14Gjy6P0zl4echUazoZdykHGcJlHSNuJwyIdBhGE0n89GPThMzzIWuBB4flV1s/nKZfT66j+E9Q5nBCIzos3VN4wizsNeSkoNJ5g8eHivKsXQG5fHruNZbRmli9kcMNxsNuv1Jo6TMPTquphm3iungcdweSh8zzdI1XXRt31THaKQMQgcMLdOSdsf0vROdnRclhvVNpSRxImRMZYQBMCUMptN7nsB40SOIgh9ztnjx48tUmkchp5DNKv2OvCc9eGKMJeRxEpMERHdNVj56GHi+POLb9Hxydl+/3K/P5CPf/AOdQCoxaAxIRaYkqiqWyA2m6ZdWyIksLXHy9m9szhCNUG6FZK6bl7Wo1BJQF2uCLUW0J27i7YvEHGMZUrRoZMMLEW0thpbZJElgxwwMg7lspLW2jTA06yfZDYOUtFITnUtJMI4m6XUoa+cLvVozCgA833eiRG3HS1rJ29EnldhNL97+7XN1QU5u4+F6AEAY6qNNnaQQ6uUBMuGpp4l+njlTLPodHlrtz0YwpjrWqspoAdv3Ve6r6qibYZxpMMIm63c5WZQfBwdACeKs+v1hrz6ltv3nRCdGgVzMVBVltuyyDkL45CnCWkaefE0L3NBmQkD7rq87btBjUVVSd1xh7mO54e+JRazGYLZ+iYftSHUNl1RdyU1IzbaWNNr3XX9gTG3b3urOAGUTY6ePX2y3ZUuH998I0ynIaEm8h3KorZTvRqpoVo0nksYw7gVz579p6gpZsxag8yAMOaUAAAxGgHGGFsAI4fO5SwOPSFKY9Dt00d978XpJI7c7c1GqF5pAVhjbOSot9syjOI48atyL9pBSl13AlHHj2LGOSWYYksdB40KI4QAAwKMQQ+yHe3oMPfi2yfEhoyjUYu6HDgdZdsKjDFi233VSSz7VilvHIlSepDWWB5PJo7nArOIKkqQxzBFMGKwRltjkZbaGmQNMlYfDrvDrgy8GcHEGAmYttUBIFKUbfe7vBqpPzHIVPXB9zKMSFkUoifU930eIKQdwhI/iAOHImQAsDVIjxZhrA1CmmfpURJOARkK0DeNR03o+l7sIUaquiurTgwkcC0DV/Tmer3thVwu525EesWoyyj1JlHsc2BsoMZYQgFjQAgZa13GF4uT28erLHU8By2nCzWIzdWLzc3VdBqGjEmlgdA4cIxqrdZdx8pa3rm71Irn9aXvziezbDJL15ebkcB8HoDRGFmktcJYg7ZZkJytlqlP5iljuFrMmO+xYTQkiPK23a2vksCZT/wkJBS3UaJXqxXWWVNRay1g29YdRloOtbUtttJjHrUGU0oRwhjjIGZpSBkFQIGVSRR5rZRPv7mUijqOb0EbCet1BYwGYUgddXS0KnZGCNl3yPNjBiwJIyk6xkUUWGKGpj6QNx6mlBJCwPNd7rOqaYw2i2VSd9c8xLfOzv/6l68e//vCdahWshe67bVBTiPM5qZSPfJ5uFxOqmY39DrLTu6//vbyeHW0TOKQU0BSdOS1BzHCxljDHZ+5btOJ/a4wo13M5rLdympLbGAQVoCB+WHACCGDxIMkoySr2cTlpigPRlOEggfvfHLn/DyKHdchnLrWYqk0ZY62FigJkmg5mc+juMs3u6YVXTe6hPVCJVPy44dvVg3Ob5Rj+6oqatomWQYARX5T5W3dNa4fnZ0dzY6mDqMUaNWrvm1EUzNsKRBkNEIWM+YBxPPFIvLCcns9X01l46gRRNsavOVsGvIwi4NJwjEFIYVB1lj+7dUNpijNsvP799MkMUoNfVvme630NMtGNf4XNHOAcQEt+QMAAAAASUVORK5CYII=;fontFamily=Times New Roman;fontSize=10.5;" parent="J1o6f_ijlUPL8cxEoB-2-1" vertex="1">
          <mxGeometry x="347" y="32" width="32" height="32" as="geometry" />
        </mxCell>
        <mxCell id="LUO2bR_xxj8n7OCwL066-56" value="" style="shape=image;verticalLabelPosition=bottom;labelBackgroundColor=default;verticalAlign=top;aspect=fixed;imageAspect=0;image=data:image/png,iVBORw0KGgoAAAANSUhEUgAAACAAAAAgCAIAAAD8GO2jAAAAB3RJTUUH2AceCAEjhTDZ1QAACR5JREFUSIkFwUmPHMl5AND4YsmIzMqsrO5aupvdXIbkLBxrYMxgDrYlQAdBtgFfDPhg6aK7Lrrq7wkSBBmGFs8YBjjkkNMke6muriWrcontiwi/B7/+7W+MMUabQOgoPyLzmle0FFwUxbPHzx88+eKmCUzxftg1h7tEXDAanaOUtod2uL05rUbO6Gaz8T4xphLa4LRt29BZZ6xH5BnNtNeMcl5VspqEshgdq1G0TEQbzN1+S2Wd9Lq5vRzMgVKk0WHfY6v9vo3tdtCj4KJb7yOCtYFCTCFE7/SgvUdjDHcedacNCfXiOLBEM8Y4FRhHSjT77UBLWej719+u72+VEqOR4iw2t9f6bqswlTwa3UYLZt3RSJMPLkbvHBMiRHRGm0FzjYgp8WpUjoucMgTkPuY08BQ5he3yXb/fZ7otApLBmaEfkje7dl4dYdOZru36FjWCTxxY3/UJmLHOhWhTGIYhhMAdgKzG8vQ4z8UUWFBMijTPip5QwNBcX1I3cCaHbkAMHmMgpMrrEKDVAQdiu+S15YT46F3wPoFL0BkTQ2AEpFQ8O64lp6JSR7Mj6DvFcSIzCLjd7pvWkvaQZ1y3XQwxExlJBJ0bOtQ+db2hGKxN0RMhAoUoBE+IDj2nhHNFgERCeHZUj48Llryqj7uIeWYEic2h0f0etM88hgDeYiQO0aKnpuuJpzwxN3QxOkJZIlTwJFiGgY9H6bBvh0ADFYOzBh1XZZVXI9c1ztmzizPSrZrV3aHtCqWSjUj90B7ag2ZUj/Ms9Mj7GOMQg1OoEpcWkEBMKWjtgSqRsTxX1to++sHbwVvqnXPOhRjnx+OLxWJ5fXf5w/v5dHZxep4glaU6X0wfzmbn4+rLjy5mxBfGnBbxrHYleOocB380UWU14iKz1q7X6xgiE3zTH1qrfQg8ea1YkddlLfn7l6/efXdZ0MgiySjPlGCIseva5WokMRwkczYnJIthclRTR4etFQKBoEcaEzDGuFDW2kiER0xA8kzyWtKjkSgFXb97+39//t9+uecFe//67fTiIgFRStyuL/X9mpf0B93r1lFWYJCbXeqcUzmrJ6NIPCI4YwkJjDGjnQ8klwqA5lzws9m45KRZXn3333/bXTezyYKDN+1w2DdqIgWJx+OiPJn4gDwT2EdKENJED2FvNoXgeVYGEk2ilCIhBEMIIRJCpBAcWEYot9Ztv7m6evlqv1rPZ+XiTHQtXHz0xAsNAoQFybwo+8uleP78xAubDqaQSkJC2vrOL69WKUVrmLGRSjoqj7phfeh6LiVEpIyzH339o5uXP5jVnvhY1tnnXzz/cH2HwJ589lEkhEUK1lJrvr9cVxNRqWLEZJaJvCaU8egZoylBIoknAgliIhR41msTaaKEMADaXd+7pgUf+ra7+rCsquOqqv7y178dunBy9gS5RFWrfP7lF+eV8KGzs/nFo+enXLWPn1yUdT06HtWLMeQxUkwpGWNiikVRAAFKKQCwTx6dY6fR2K4fNs32aHr01VdfE8EjBUIoFconmobd84/LcUn7Vt8s9ycPZ5MFDyhjLKxvgSUhBOcZYgyJREKAMu0MECAxUWI8idGiTwAx0t//7r+A0l/84t8fPTi+evNmPJ6ePv1cV8XKHKLIF0/mHXZ/+ONfqmrRNNuh7aKDzWrLgc2n01ExiiF47513IUQAAgDsyxefWEQfQ681ANNOd8Ph4ePZ6aLsd8PNXTt9+PGua0kEN5RRBC7kzfs+hGTtcPNumxwhwXvjvU/GocNgvdfGEgpKSk4Ze/H82aAHFzEEhBSFyA77w5u330OCx+dPL9++a9uOF2Nn4no9aHTRBUmzTNLdoScgUvScAiIeOm1cIJEAZYO1lDAlMkYJ+/TFp812Y4JNKZAYIAFJ7N271avvrk4WJ9MyG4m4b3pI8XZ1RQgzu04yXY3V+hBuN6t6onIpMREPlHMVjGeC+4jEBc4oY4RW85kcVz4ll8AnhoSGBJwVXYvfv7psmt354igd1ofl1bOHZ91+bfUQPXZtn0sFUn776vt1a5CrwIRDj+gYBQ5EZmmUC045++m//XNZV6N6THl26LULPsbgMWBIJNkHZ9NJrXbLa6/NuMxVBiOR+X5Ah5GKowfnPtG3bz58uF0tNxvJ2fnJibPGB1tXigENPrFP/uFrqrKzs7Nnn33KVVaMpFIMII7rESGWs/DJx49VBiNVrZf3p7MJIG5XGxLBYjh59lTmI0Yol3mnu/lxfXI8NUMvpShyqYcBCPBsUnddU1FyXJf/9LMfU9Td5m44NFIIEtF03b5tVS21DsNuaGn06CihkJi3dt9snPNnZ4uPno3z13KsRNe3MuOEgrcuYZRKsH/51S+Z5Iddc33zoZwU5+ezqpJVxcqSjcej+XTuAza6vb3avfyfl9EMAMkZNNpP5jPHUlmWthtSwPqoAkj7u3slMvRoTKCUFkXGR4Wa1o9+6K3e21cvb11MJ0c5CywNSKzN80JWk+aOvHn/+v1u0wd7akFlMnJSLxY6xeAJkNTfLY9PamQmkigz1Xe7wBgAwxQ5Bd8fhhRTno8Tg04HEluzW8mAR7Jw3g7boWncu9v7nXEih6z3qdXjepQibXZ7kFlW5CzrGEksJQzRhoSQOtMXUihV8bvl+/26p4EnyrgQCRPkIlL5zTffpd5Gj6217YC77TYk7ghnZdVs7oXFZr1PQI8Xp1xQIBDRksEMLr6+/hDRVmWZ5ypgYH//83/kVCCm9WYrc3WymCdID5881b3785/+enO92u37ptMxEArMGNcbLVVOAQ7Nfnm//buvvjp/+vi+aYZ9iyaoyexus67K4ovPXxyaxjvPfvKf/wGUM8ExEaONYKwYVy6Fsqw2d/f77Q4Yg0QYIYwAhGi163vdHA7rZrdebX1Ii4sHxntvfN+Z+vR8MT+ZjvIYnTWGEcY++/m/uuAC8ZPpNPnIEplMZyb6XGXDbn/55i0hCUIoMlEqyUmKCCkRTBEZVLJcrzYm4McvPmMEdvsOipJ4r+9XkfgYEkTgAUnmkjFuMT8mOu2Xy812zyqpeJouZqXMojGC0+moyLhEVTREO0SaUVmosSxICPdvL78txINHDyYP5kMgmLzXNkUWQ8oz9f+2jUx+EENJTAAAAABJRU5ErkJggg==;fontFamily=Times New Roman;fontSize=10.5;" parent="J1o6f_ijlUPL8cxEoB-2-1" vertex="1">
          <mxGeometry x="379" y="32" width="32" height="32" as="geometry" />
        </mxCell>
        <mxCell id="LUO2bR_xxj8n7OCwL066-60" value="" style="shape=image;verticalLabelPosition=bottom;labelBackgroundColor=default;verticalAlign=top;aspect=fixed;imageAspect=0;image=data:image/png,iVBORw0KGgoAAAANSUhEUgAAACAAAAAgCAIAAAD8GO2jAAAAB3RJTUUH2AgGBQEwHqvj+QAACPtJREFUSIkFwVlvnNd5AOB3Oed863wcDndSNG1Koi3LgRoncbPVBYICbYMgFynQiwLpT+tNrnORFEWBFnUbZwFqwJviVlKkyhKpheTMkLN9+znv2+fBm//wc5dmnCR5FJs89WnWBhRjgyU1pCgOyFHCce6iSNt6BPqzb7w7buCfHj2IOKYoZmYFJWRAEpSIqYgTJkNMImI2Dg45jimKO/CGjDfcZxGFpAug0pACs4uAvA89dSJ+7sOiruJ4Dcn0gKDCgIhIBIqiEGJmQkBQ8V5VifKBLYbeRZXvDtfWd/MCxEfqdzHcavutuk+i2BN6FfEBvDSKs3JpLNs4Y5MgWQRDaAEZiJiYFQ0QAKgCABiKEo9WUU+G6zuz673N9f18MD19GcrJoG2lx3RrNHZOla2oEglyDQg+xNb0xACKRMiEhEjKiLmNUuZGgkcFABPIoMBeHP3trZvf2V6flPOt7X3zwbf+8/f/9tn9zw43DleL0m5mAZA1dCyErkFTWBuDbxGM90AMwAjEAg51ADqQIOpFERENMhXQ/eT2yb2d4a39g+2yHtdXw7Xi53/395vro8+ev3Jr2RQdsyFtLYggI3McRZYYFQUBVUkVgRm5YByZKJKwBFRRAKCC9S9uH373eG93wD10TyevX756Us9eStt++MEPtaovnz7M2jJBJWI2MRlbtw0TxsYCITCqKilaDVbaLDLgsHWATIiEiEanF9Py8ittl03VD/e/GE+PcPX+yYkXyePs3q2TZ7/7eH13Giy0lAJFQoDMzMRIAKJEKMKIGwT7BkK1FEh97CAogKiCKZerj5+8PuV4aeLZGHub02hUi9uMclH68Hvf/fLB/bPzr/NsjYwRpI5dqYDGDk30rPNWjXe6zv5O18Sz61Jg0W36zf0AQTUQEe//5KdmZ3fsspWNJU5QzICaH+yuF3EGTHmx9t7bd/um601yLaHmDiXEUh1nSdU081Am3g9QT3zPD//nDx/9a5Ync7Qy2vagCIoEJpBTJAEyoNpXjNqFruprYzzbGMm+sX/0jz/d+ezl+efnlysMkbF7qb23Obh3sPM3EubL6k9fv/jo1/88O32yuDiX+/fN3Wjvzj3fKxMhouFehMihV1SPiuSXQRadRNYhk4APonFif3hy/MFbR6KgRBELhwqC3A4WRvvvJen587uf2GbQTk8fPTp+864VaLwQIhGa4MSjAgUACooKuOxhVithXLd133c2SgxmgN4iKiMFkKYpdQ5VqZXXYn0v3/rrv/yrl3519vzJ7ibspWle1y2oJyJkE4IAB0WDCAzigazHOI37vrleXjm2Fo3gytgiSNf6GfvQdeX55ekoL5wZ9Nh3swvb6vrOYfvOB3k1y6y0X3wyuPnWfLDRd2RIQVQRkCky1gbiTKhtXo8vr9HtROlgfHWaRqbIt8pyuawuvcrs4qxerm5878fGxKtyPJvWF03cuDS7c+/q/x60a+vQEl7NKRkSsgFRRABRDcBBrVHDZrq8nEB7uD9CqL64/1859nfefme5ml+MX5b1rJpevX3z/dCsTifPLifPPQ+eNvlSMlwbDd//fsMYeaqqeQ9itDcaRCEgM4Ze+6Y3cI38fBbecXx9/Qym/ae///fttXY0mF5eno/Hr33bXczcSndq89V0OQ59ubDla9nFKKfQtUA1MgBIXgQU6oOB0AEY8GiYUMA3bWvMWSkm2SBfP3nxarpcSD1+/BBWdVVrujQ3pwcnZud2cNH6sJi8Xp1+/RW9kVm7KeIhcBREKUCPhhRDMBIaEGMIYzBKcevF9OXBTpGzfzpZ/PYqmh7/aAGyBKH1pIl3lljMuYB8FEci6EuXTWb1fHG/zKbJW8dic+pFIoOArNiDGhAF1OA9NXXJ3rv42NKHu7vj2atfvVx9usrs6JuJjVZO0cUtx+IXncK88UscAi3atIhu/nl6+Xr57Evv2B/fFnXGU1AIKl7EaAhILL1v1QfjEwo/euew4PYX98efQwQRxVrl0lJnRUJiGtdhp8jWn9bKy6o5n2H+ZpHGVsvlcHitiAIA4kUUwAdvLJICILFayJ3bj5lmj197Z4cjnCpVnWYxI/VqQiAkWZH4ENoOBBzHw82t9sV1k6drUuxMs3VqGbrQ2uAVQhAPYlhUSABEei1SvGHwwZOvz7aP33937+299sXFeBaklzCWsoXIeO606dFUvTdabUf+4QyHQ7ch8CK/0YPr286rdh69CACgCnVNp6IatA0Q6mozXTW2+PiV/5dPHpl+fuKmB6uHCNqLBBRVpJa4UWpr6cZfPnryuIx9FDmqK+gWzbLyZeNr31Ti29DX0jcm1doEUO0attsUZ7AQnznk86vZLz9ZsHVktjZhmYN4XzkToTCL3N0u1s3qKdlAdjK+ODD1QZG/nAdCJAEA9CKAoKrmkMaJyY2JxMG3txmW1UF+OApalgs21tjOmSajGhGNNaBAzsZExxHVr852OUmb5x7adr5KzOQE1nuvVdMGgS54kQAAxj//qo8cRXb/DbfBWkZbmQ8w6QcgeRY5teDBsY04pdqoNh66jaJI57Onj5+EoBGAkF10gNJuKXjFFqgHEgwIAZD5zm6OoY5d+eZRbFPe2N1myh8/Ph3EevdoLTFtMRps7sY2MlezFqjfWIt3RqasJhs3jsmmg0FqMVg2sY1BOqudQRAfKFTg575rTRYzs/FlePj52XvfuD3AUT2pbmy44zeKrd1hT8mys3ku8WA2a6tlhcXeII58jAw5Hm0cFvngan79v396FnqO8izSFjTUffAh9ZJ2Acxu4RBMVfn5q/rRavzfVx8tytXOvqXrjbMHl8venp5Njzb4+z/YLLq4XcXV5Lr1q9l8edlcmp7+7M5JlCSuq/7jN59mSfbht97NHKeM3pOAab03R8PcWOvswJhbve/FawgBQQBgdt056Y6yyNZ+8Xh2PfWTxrz6o7cCTds/u1o5kP5sPJ2vLiZNP2+SA8bZgrOUgCIQNrYFMPnAWWeT2DobWRc7x5F1xiSWEyAyloDIK2pXE8Sdgu869KBKnowihL71XlSNjSMyYkgR0AdRFUTsQ/v/JiVpCQhCBA8AAAAASUVORK5CYII=;fontFamily=Times New Roman;fontSize=10.5;" parent="J1o6f_ijlUPL8cxEoB-2-1" vertex="1">
          <mxGeometry x="411" y="64" width="32" height="32" as="geometry" />
        </mxCell>
        <mxCell id="LUO2bR_xxj8n7OCwL066-61" value="" style="shape=image;verticalLabelPosition=bottom;labelBackgroundColor=default;verticalAlign=top;aspect=fixed;imageAspect=0;image=data:image/png,iVBORw0KGgoAAAANSUhEUgAAACAAAAAgCAIAAAD8GO2jAAAAB3RJTUUH2AgGBDc15h/sNAAACYZJREFUSIlNi0mTHOWBQL8996Wytq6qrmp1i9YKQoAIdhwOzxznNof5A/5hc5nDXOdkHxxhh40DMAOIQYBQuyW1urprzcqsXL/VByIm/G4v4j149vKzqkp3aVVVOwP3bUPiuDdff/7946eMypObN/725blRQGP23Y/7fI8xVgxiCwE/sBspk8EgjDqG6+FoPD6YfPzOh9PRCCLBCAMA/vzijDQ84ypjHsibDKC9F3e4WqXpy9V2SRiBFy8cD926c/zs+bUyTcUNRtoJYj8OHJelry5Ua/GqLaW0a8bWJN+m81oQalxGqW2tlysiQF3qElOrNDUyimDAGBscTAZX1nyZnz3dqEYOBmOLkX7i8badX14wqVtOAGqN1C3fzAYHUNLS1KgpP/+/x7PuIKC4Hzi2Y4u6JeeLi+V2kRUSUZR0CIVQSG2HfScE6x/OHt2ZYWWgqlSd4boY+Z3pvfuR0zk7SxG2OtHhcd95eDJ7vi0fP13ulBEtyuvCU+Dh8WSAE9UIcnZ5cb3ZZAWMkpBFdrNbQAEnQ8f1Or1gQqU7HYy6k3C3fQWW15sUH984mfQPb4cXWNuuHYYh69eW49Uisv/y+Fm62FwmUcdy7x4NmqridYvvfHJ/XzdKEoBsg3Uh2qqRqHHyp7U557fjWZ8kcIesgvRpbxAeno5fG1iRZ0CxSHFLbO2ghnTc6N7hPUvDH5/9tNqUhPMP3rwLiZ+VLckLdbVcqtrMbt6tMwYgtAR5/N3z4sn6dmdgFtVmmSOMAteNwqjbHYROT+wLlziiFa3MHergwOMZCC38L++9d5Wuv/5pHmplAZ30xxnHhAuNEOFaXF1f52uQsLB+UVVPspnfi+OOEBWA3HV8x2au57lxxGxqGhgFThQ4+1wX5d52aOz0pNH9XvLozhvZQvneHitFIEKYEkxZdzCIj+OrVVale7RV6Y/lGB1MDo4I5XzfEKIoUEpwhJBtW8IIAKVnk2E3MrIUEmy2W4BJ3PVtKG/0BqCUu2Zb183l/LpoBOGSuyF2fDq2hy3rP/n9zziz4tOjeDIm7bwRvBV1tddKapPuQBgxxyIU8CLXoqIEEMoqrpq2aTbX2d9TUZBNto8OIstNWki4qEjDS541SHOI/J/+fF6ey9dHb3W6XWhjJBDGWHPZVgVjXst5XZVe6Couiv22rfd1aZzATXoJwJBvFtsiq+OjhmILedCOkv4oVwoFrt3URZVXYsFfPn6BGuA7rm0zJRuHQs+1MAIWIUALqLkFjSr3+WaRrq4tDLRoG94YyoCCm/Wc57kRoDZIQsIhboyWyJAQ0KA7GnnHn/3Pt7tV2kl6AuRts+GFFiYzusZU2w6hRCJd4DaTal+tXkHe7LatVDTfpZXAsG1BPp8c3Jhn7TatHty7yTDJ871Wknx4+hayUbOmmxd/1Lpu+Xq7PsdytVDlwKd3ToetLvKmYBwx0TKGu4Ne6NqbWr0qNtKJi9WOLmup9mNXtL34q59XWd7KTObLbL6/xjYm495hzeXnX315fr4mgBkNtFJUIV7CArNdia7neV2koc0iz48bULWg5WLRqO7bD0i3+/XvvoKbXIrdcS/Yhf6TbMEFuVpmi+0W+IGhmEBkay3Wuzqtmz6LMXIRc49v3K/y/Nnls5efP95tX8WBOxpFy7Sxq5W3k5Pj0+HDk+DeIafw6uXu/PI73kged0s32mxrpcmmqkrNCdPUoeRoMDOQjgePMTCHB2Og5PTmTCCDfXb3vTvrjcefVu9+8OH7v/74cnFR73NqhcPZLTuKsIUHHdf54AN9Vq1eOWV3kARDvZUWtHzbPejH4fQgKytS76vtprSVmUbBqNPBPvrVv73/9e+/dSz4H7/997JM/+s//7szmkzvvjZ+cKJ4m++bTd7Ml3OvsgfhjdC2oiSRHEEn8a2AtJACPut3hsHAtXxZ1cTtdr7/4cXTb5/cG00CwMa3Z8cPpn/7wxNsU78fJtPucPb6arPz/NjtekqqEURVXc+vr7u9oWeT7Dpdlfl1mt7IO7BoVSvDED9886TXn0jEsQHI78aT2WFTV+P+sB/E0/4kcCINHDuOsUdJ4E5PTyoJGwWRbRlKNEHYpkEcdLod1/emJ0e1FD+cvXj5cgkl9CmbjqIgQUW9K6u91hpxo2peYUbXm61FLchRtixqBeLDIQksgVBy2K2NXqVlrSWHujayUgJTWpRlUVfEZsR3FbZ2RVsW1a2Tw08+fvDgvVvJQeAENkSQaKMHk8HkePbt8/91aYrnq6vLZaN5OIqR5SgBB4dd5tsll4jgqqmV1ohg23WMAq2SWCPiOv3DqYS4NeLT37w7PYq8xPX8KAQoLTKipOj04ofvP/rys+/OVgt/NrQtC7tmeNQzhmoDBgfRyc1DzjkmBGGCsGGUYm2goa1uqCFeHORlOZtM7719vxMmrdgYwrg2AChtFKIAS60evPvW9NZrgjnjk2nc7waJGyV+XTW8aTEBt+6e7NJcCeXalBGCAEIISy0gNI1QqzTb7lPqksFkaMfM63jUcgHE2hgADMKIGAM6Xf/0zqkTJOPTYaUB83zbpVqWRjVSqM4g2aTFbltKVSklpDBcKGVaivH11e78YjmcDZO+TwAzSmFoIQAQMBRjhDCSRgrDNZYntyeHx5Hjs/PzKwMUQlIKLnkrhWA2XSy284uNlkBLo5WUkgMNgKY///BccnDj5tHBqO/YDoYIAWwxSikhhEAIiTCikY2o5eio8+m/3nd9909//N7yTZ5tO1FiNNZKIwjqqin2LTSMNy1CGkGpFGr2zY/fn92/dzvq+MODnjEKQogxIYRgjI0xCCFiW27RlFLyOPGSd27vM0gZ/Oijt5MwggYbA7UUbd14DnEtYqSBGhsjDdJakcuL5Wa9fvToXaHk4eQAQsMYo4RgDBljSikIIbGJ6zuBBSzgKARRUSzffOv0zu1joKDSBhhlVKukODkZWbbSShBsGQMQAErAVy+uHrxx6/U3jl6+WnWSGECDEcaEUIIwRkopAACUypS81EICCbgwu7QUIg9D12gEoAEGQtwazYymmNYQAmh8iAwCMl3X11e74UHcHwVZZmzHthzAGLUsRjBCCHHOv/jiCyiEbNpaK6211hooZQAQxhijgTFGKokgQIhAhI0RSikAMMFYGy24IpgiDCDUBhCMCaWIUIIRMsZACDnn33zzDfnrXz/bbrcIIQCAMcYYA/4JrTUAAEL4i/5yQgiNMcZoCNEvDYQQIYQgBBD+fyylZIz9A/U/nYddN8WWAAAAAElFTkSuQmCC;fontFamily=Times New Roman;fontSize=10.5;" parent="J1o6f_ijlUPL8cxEoB-2-1" vertex="1">
          <mxGeometry x="283" y="64" width="32" height="32" as="geometry" />
        </mxCell>
        <mxCell id="LUO2bR_xxj8n7OCwL066-62" value="" style="shape=image;verticalLabelPosition=bottom;labelBackgroundColor=default;verticalAlign=top;aspect=fixed;imageAspect=0;image=data:image/png,iVBORw0KGgoAAAANSUhEUgAAACAAAAAgCAIAAAD8GO2jAAAAB3RJTUUH2AgGBQAW1b1XRQAACR9JREFUSImNlElzJelVQL/7TTm9l2/QLLWkUkmyauqhysZt40XjYAOGCGDJxsGSH8APgx0L2DgIiKILQ0fb5a6uWVUqlaY3Zb7M/IZ7LwvjPecHnM2JOPDXf/cPeZ5IpU4OD//i53/88LMj8f+gDfjNty/+6Z//8d3lM9A4vW5844ZjZgFnp1W9CPePT968O53PZ9JYmE5uXLuYXH/4zdOn15MF0h9gJiIkmi+qtuuQiJkEE3O0Sm1vjIb9cnrlPrxdxNBlBbUNXl801aLJshSk0BqyHLRvmtGw/OGjL+4dHWytj5btMs9MlqYAIISgEKOnrvVSSU1ELJDo8mb2+vRsVOQb/d7WYPjuQ+v8sreRz5dhPnWuQ6KqbWsANkbpR5/fX9vc1DJpq1jp6cHuOLG6a7uL92dlv6/Rf/f0O50Vg7Icr6ywFMtmuZjXSahs6O7vjYfJozfvPv7m7fPz2UU1923jQghd13jnEXFyU+mtvduubc5e/PaSw+qwV12/Wyz92/cXH07Pd7ZXv3hw9OTJry+vp+Nef3dv7/DOyfHhzu5qspwCUbuyu7mzveGrWTUfNc3ytLohJA5RCBERDYu66jQJePz46ye/+peHJ7u3dj/51b8/vryZ3CyWkYSx6l8fr/i2dcuqyKz65puTp8/+9Ksv7z84DojdYhGni6p1k9m0J+FobfX8w9VZN1dKid8XJCIivZjc/PfX/zmdTH77nH736gMjeaZAJDC2Nc2ub5SEIrM+RsGqffr92cXF3te7WoMiFESv3r431t473oxtd7yzXi3ddO5A+Og7QZhoq18+f/7+7VsLVFW10sCCSQiQUgMIwQKYSbhASIFIVW17fn31P797hoSJ1lJQ572x+tWbl4N+dri/fbiz8fj6FQui6KQEYKFfvnjhXKusZAbBwMRSCC0VsyAi7yMhS5kCAEbpggiIEoQAgb4zSjKj65ophaXrMMbNtWGZ6rNJHZEzq6QEZbPedHIpISaaFUD0BCAUSGAhiKPvJCATYiAmCiEAoyCkGARGLZkpUnRaATC3XSuBsyKRfWmNKQdm/cDq6exSACEyESJhiMTCEKFSSmstJRBF55AZtDbEkpiZiIXQCmJkIYiIEFEpDIGu55XW+t7D9WKoRgO5+slYu6aVDIKIIoGVAnyMJARoraVKgNk5H4iV0IhELAULIVAqKQDw99+A//sHIs4WdV21ahR/8bfHwxEzkmYVibxOVDoAI5jQuI6EYMTYtUzsI6GWICVj9IKlEMDMLJil/IM3hhBiRCJ0Mbad+/hGdle3ZG4psCrX+03Vagsnn65RCE1NTCxAKC0PH/R+9CfbiYFugRFJCAFSgGIBggQTCyFEjBhjQESkqJRqmgYRKcDGenl4sEoB1P7tYVNhmoh7n68mSXb66kprgZE/ORz+zS+/uPPp5p27Gxs7IwbyXfRBOI8eo5AiUvSBYkRGFEIoqZRWzbJRACFQb5h++sNtKUHfebASHI/GamsnvWJkZkIoSvPVnx+urpTChTSDk0fj/bvDxZW/uakX8/D6++mT/3jDjFKj1YqCBCGlknlP1UuFkRBxOunqZauNlEpR07giM0Vq2zYAABHcuj3e2yu7pgZNQkkh0Ji4tm0/fbT6R1/t7B2PEWMvT/7sr+788u8fPfzJLishNH72482t3YEQBIDzebtoOilJG07bOrg2YpDv386YSQDv7vf7fdV17B1qLSUqq3LnWhcoej4/nWHEH5xs/Oznx72CQdhvvzmXytw92ojLcPZmKhW5ppu/58XZjez3LSG3y3j5sX1/OiGBkVFZzQxJkgFYqUApywgSQIEyyi6rmBT27sMd53zT4ni90FanedIbmc3dvraKALzDr//t3XweZUueOCwW/ttfXza1j8SgxXBNGysRXSTvKAYKQrMy1lrrME7m9Xg93z3up7nWicrLJMmsSZXq6/56Py+MlJJIzpZx786mRvB5llaL7vpyqVTK7JRSWuUUE+/nnfcak8QYBcBSKgU3N4uri/reZ6ujlUIbg7ED6fLCek9InGd5kqZjXSQ2u3v3Xlms6DLrJVY1wSFFa4wAScT1IrgmukhMnOpEAysO3lM0Yjarycej22tSQOi8VTpJddlLrq6WHOR81pTjtSRJQaoQo2+jHOZZWZpe34KA/dvl3QebxkJWRGnqfpYmSS4i+s7VrW8diahii2vr+e3jIbaNJaJIWuutraESDCgW87qqGwFgrInYaNHJjdX+wd6wLNMkMT/+6caXP91NlDFGRgKljc2UZ2wCEoA0RrC4OG/3D1cGo0xzYrX26Ju23dzpawPBN8OB6rr582ffv37+cnJ9BeClBlxd0b3CJqnc3ir3D0ZJZpoZDfqF1phpTrWwCo2iIscQ/GTSHf1gkGYJa902nWEGwsEQlNVV3e3v5n/5i0MruZovPp6fz6qJ7GIYruZ5YZRSIShtVFbqi9O5DcRt10xdqDFlGyqkDkUsbu3tb24Pu6Wrqpu6arjDVNrxILu9fzDobQ7y9Msv9u6frAJIbRJBLBuHg2EJAqwxEoRRemOzOD+bTz867XLZAXdgqVSk24ZmH93Oar610g/LWnmxNuz1ijR4TEz+6PO7K71RoNb24OTuhlYggAtl5KCXDso8RsiLJC0Ucbe6lp1eNM9eX3sS5agcjXIWASAwO8ROgSlM2k9SmygvvC1cmUNhdD09m84i08q783rauvHYHO8PjFI6TdAx9IpCWisgxhoGab5s3JP/Ot3aWQkkCDuTYuCATjsnnz67HK5u93ua/FJlej7r3CKA0KCb09PFfNF7+WpuC/ujL2/vrI/KItWGpJJ07/ZwWmt2ioNZzdOf/WT32cvJs+8/7h2UzrtAGFmlKr7+UM2a6WJmV3prXmA14/cX3auXcxYqSqb68uhgdLDbG5ZqUOoIoo1eT66qgJE0zRf+3Ut9uMPX83a4XRz39MK5715c6sTOKl/XDiCGoGwmX5xe30yjMbLpwnTeMXOakTV6sF4c3crWxgMGIuPaGLEW+u0lvjuvlku/qKK90Z3PIurxXtkbY9M01EkNYtzPNMYgk2peG1D9lcKHuL5WHpRFdKUQYThUhe7rnlca8wRA60CWhOyq+n8BxOb1rSnP60cAAAAASUVORK5CYII=;fontFamily=Times New Roman;fontSize=10.5;" parent="J1o6f_ijlUPL8cxEoB-2-1" vertex="1">
          <mxGeometry x="315" y="64" width="32" height="32" as="geometry" />
        </mxCell>
        <mxCell id="LUO2bR_xxj8n7OCwL066-63" value="" style="shape=image;verticalLabelPosition=bottom;labelBackgroundColor=default;verticalAlign=top;aspect=fixed;imageAspect=0;image=data:image/png,iVBORw0KGgoAAAANSUhEUgAAACAAAAAgCAIAAAD8GO2jAAAAB3RJTUUH2AgGBQELr6AK3QAACEZJREFUSIk9VlmPXMUVPudU3bq3t+me1TM4HnswCRgS1hBAifKCksco/zRSHpKXCCUWUoSBEBQcY0zsGQbP0tMzvdy+a50lDz1QqqevpFP1lc73nQ/fe+0DIo/gwdAADBQAiEjVRFlAANEURVDVVFTNEAAADAHNyNRUzQxWIIiBqJqZmgGA+bLMEZ33qXeJARgYAKCCGaipAhiAGQEQAAACAlyXMzCwHzdc42pggAAGiAAAvm5K7xJEJCIAUFMAICRAIAQ1U1ERMSNEAiBEBLh+MsKKDCAgIJiZ2Q8oXh95QBXjNlaRW1BEQEWgxHnvCMkoFVVFQyQzJBJAM0EEBFAAVTBFADQAUDQEwBVXUDMAM58N+0TkiMi5xFwgLwml3Szz3hu14MumBcQkBEQkzwAGEkxRtVFtWZ0qqKmpqiqIGq8YK4sIs9+9u+ec994TEYI6AiTqJZkvpbiY7mysDbf3z64meWxGO5tJ5omAyAGhgpgxsQM1UVURVRXVyMwcVVRUhdl3BikhAiKAAaiQEnpwePvgoHvr5c31g6u83Nt+dVouj89OhGNnw0HCGIzRzHwQMlVmUyURc4peScQzsyqqgO8kuKpP5JASQ0QKb/3i3T/+7g+z76/uf/TgbDz23qVZ9tLOzbzNwdiwYqsUTcwEzMDYWFREGMWM1YSNmZklsldtENF5TwRABOQd2J1be8O14V8++duDLz/b2dmc57OLbyd7e7d+sv+ykDdXLepT1Ylh1Zo3pdiKGgNGVAIBFVVREwU1r8xgoCzqCFwEcgY+uDC7KpoG79w5KOtZUeeU4uHxoeJg/85rW5t3Bs2NZXv2s3s3B8NeVcnR0fHXj79aFhMgUTMDFTQhUDLPRVQ1BHDO+QyX1fLeS2+/cvf1xw8Pq6pdlvPz8dH3z49CEtIwODp83OuOhoPRsHtrNNhf8+uvHtwOSbo7OAoyevjos/P5M8YaERFwJURfTgtmJiSfJIBsBO+8/sFXXz754l8PL8bjo8Ovi3KSZTSfX1W+7nfgYnw4Gq4PhhI6nWdPiunpYjgcGXDfrQ/88KzilgvEldQQ1XxAMFUAEeG6qTfWd+rJ/Onzp8+e/e/47LgoZwBtpxNeuLm7zGNTF7PZ+eTi2HtX1TRcW7ucNGcnp2aMru2EvizjcjYxNXJkBqbqtzb7KmpmiKCwkbj0wcd/bYrSPG2u23B9QA5Dkr77y98sF/bx/QdNG9vYmrJEHpdz8klZ1xxjjDFNk7XuMMDGSsNtG+vY+F6/DwDkHCIomaGBaGfYDVm6FQKYQ6BBf/jhh7+fT3k2bfN5NVofEVlR5bPppNPtNk3Lwhy5KqDXT4ejXTPjyJFjZPZFU4lIkiTeeSNBb0CkDhAiGa4MGnA4Gm0Mut2f3n1ZFdcGmycnzyeTk3x5hTiqyqpumqZpEu/AzZKsVTVTFREx9VXbmJkCKECi6JQaMjYLgVAhWqOITVNfXU1BdHNz5969e2XRfP344eX03DnOc17M51VVx7ZNgndZ3SUyM0ICAlMljqoCzNq23LC1ityCMcZoZStNNDNaFtWjR/8drfffe/+d4bCHxMwVoQHofD6ezk6L8jLKcr4Ys7QKoGYCJqai6kUUEQFWniuK1/7OqkDkXADANraPHj984433jo+e37//D0fJxeR0e3uvrorx2VFRLpxzkVlEbvRGzrmoqiJmpqrknHNu5dZu1b9ERETMXFVV28QYo0icXJ4+/uaropwffffk08/vD4bpa6/+fDGvJpcX+XLWxqqq8sGgM1ofhhBCCIioqqrqEXE1zhBRTUVgRUh1pcQVOY2xfPDp/W7YTkPPuYvNrW7awXw529vdMWhEbTbVEPxqKqgq/LD86nMAUQ3VDKFV88F75wCQkEzM1BQBxpfPq3xsHNY3tljj89Ony3KSuGZjvV+37bhtAUFVRWR1gfdeRTy5INqaivOI6BNKE5+EkBChAbRgLEiQeIdpCmmWTCe1GBl0fZr96v13FhffJR7HF5Omqh2SJ2fgPTkRiTEaoDcCIkwSTrM2uKCNRxRSQSUzCwlmqRoWSdJL3DDJusi0zMut9VFd871XXnnq6rYpN5S7Wapti2DOORUVEGZWVV/FOiHe3cvefHN/On1ycAB1VbeNZmmvqti7buhK2guPvzk//HY2SPd7mTs/mY5PT74/Hu/sbhd1Tsi39l9YTO/GpgneVaJIqKqImCSJr7lRjEmgTpfzYv7r377Y1Gk+bzhCU1PiJBvwcGt0fjGeXVWcDrsB22r59NtvTEJT1UWzrMrFzRs3XjzYH5+ceaK6qFet6JxjZu+FkfhiXJyeFIPBnT//KRcx71NhUzHvHXok1xw+GYDobDbt7m6//sZb+bx+8fbds8nJ2azMF4vYtN1evzMc1Bydcz82kqp6a1Qczi7t7x89EYbYgk8SME2SJM1SsRqRwAKCR3BR6sWy3N1Ziw20sVwsJnmRpyG9sbMzHl/M67KOLYuoal3Xq1nv87xGtDTzIXjnHaG0DTvnCKGpmQXUxBOrKgDFWAdfpGnY3NpKvTs8PLxsZmudTl6Vw831xX+WTWzNTETgOnypJ2dm2rYxRjaLhgwACOCTxDlvlpiBeDMz75OyXB7cPtjc3Do/vQhpOp3NCyiV28///UWv28vLInKMTeu9R0QRQUSfdZwqqSizMkOW9rNOh5mbuhEEIK6qigjW1vpN26SpCyH55ME/h4P1LHUuIRQEomdHh2BghMwMdh2EY4ydTgc/ePt2jJxmqb92JLLrlG5N04qaiFRV1ev1+v1eFrLgk7KsQghNXS+WuXkCM2MhBTBTBHTknIsxEhEi/R/BQAUusWtLfQAAAABJRU5ErkJggg==;fontFamily=Times New Roman;fontSize=10.5;" parent="J1o6f_ijlUPL8cxEoB-2-1" vertex="1">
          <mxGeometry x="347" y="64" width="32" height="32" as="geometry" />
        </mxCell>
        <mxCell id="LUO2bR_xxj8n7OCwL066-64" value="" style="shape=image;verticalLabelPosition=bottom;labelBackgroundColor=default;verticalAlign=top;aspect=fixed;imageAspect=0;image=data:image/png,iVBORw0KGgoAAAANSUhEUgAAACAAAAAgCAIAAAD8GO2jAAAAB3RJTUUH2AgGBQIBZFiwAAAACNZJREFUSIktlllvHFlyhSPi3lyqMmthFUmR4qJeJFDizHi6Z9CehjWAbcDPhv+Hf838nHmyDdiYh16mW+6RRLWl5s5iFWvNrMy8W4QfSi/xdIFz7okDxId/+vd/7eUkUZ7uPo86O4icJHHTmKurq7IsmVlrrZTaTNLYTuJOmj8+ONR5bkGUACFaa4uiyPM8VgkwIMl8/lCWKwHQhtExkAAHz8EDQQjMzCICAMzsQwAAERERYNEIBq0xlmNrRJRoFEDUnXwQQnAhCDMpCSEwCxBoh5GXEAGE4FUIHHjjSERCCCEEAGBERBRhDmytq7larVaaQ8OcqEQhEREiWmtRAEWYXVWvq2ptvdNF7RLyMdNaZlgLKori2DRNURTL5dJaG0URIhKRUsqzbcXxsDuYTMZXr8dJt3O0v68QldKkyFqnIdIUsbj5fF7XlQtON84pjLO4vXYhKNfq5rFCTFR/qwdaKVJZq0WIhIJERGoxX92MF/0tchZaAUgBgAh4DqBRCMGDBwIPknXydrutGcQ7VqJPn/8qGR407H9+/UNZLr2OmyB5rJVSwIEQkXBdrr/97tWrNz9/9vTZr0+emrIcje5ZWAMpRGARoUDkSdZlkanI1EYHxlXt2x0SpRfL4mY0nj4UxjRBS2kcr+vQTgKAs85ZF0fK+IoiWDfFulnFcdtYS0jWGm9sJ8tnk3Fl7aPjw+CkMrZc1YQqMdSalPbP//Gfo/G43crnsxUzJkk7TVqRSCfPOltbjvRsvu72hienLw6fHANhUa2BqN8fdLv94OXhYQ6Ai8n0/uo6VXErzoyB8Xihu73hwcHhN99+c3F+sTB8fHD8/sPbfr8zODharKqkKqt6rYfD+WpdN+Hs7DwbdFaFHY0nsYrzVp5ki6pc393c1kVpKgtVEzFMR5PKw/XlyNRW7+0fe9QXtw/TYn3/l//5efj6qy9/fXr6fDRf/uo3p4sP56/O3o7vbu/HKzJKE9bir++nADSdFhHeDLa3y6I0jUnT1ps3b/txpJTyHy5aveFoPLWNV51O/68//u+6aj797JlzZnuYvzh90coy79zvvvzi8MnB4+PHIfjb67uq8kVjHsoVIyKEXqb7eXR8fGBMfTe66Xbz8cP9tFpP1k1hfNbdEtKBnXq001WKt7f7u7uDfrdzdHC4vfPoxx9/6m8Ne52ejtO0lQ6HA6X1clU8LBdraxlAazzcG+7t9E1T13XlrDW2abXSJE06nTxvJ7GCvJ102lo//XQXEZnZN7Osle3vHc1nRdbuJVH77nYy2OKyWjixn3xyfH5xcz+fVz64ECKt0jQlxHK1BMQkUiEE1JioWBMRKUU1eiMiOgYHAoCAGk2zvry6CCFYY385/zAcDBXRo/3t3qA7mszStK2UBhBE9N4bYzikWSsZDAdZllVVNR6Pi8UCQkhiBeCQAIi0rWsR2Wisa39zN+50OiJiffv5i8+fnRz3Bz0X+M1/vXt3djF9WAYOSCrSUZwkp6cvXpx8fnR02O12lVLn5+ffffN9sSomD6PlcorIQKhBBESCD6QoS6N22nLB++BRTJ5FvUFHJfH15f1//+X72/u5DRgEOZhenr38x69f/vEP7SSJotghMdFgb+/Lr//QTtPzX96/+vF77xulSL/840tETNO0bgz7oFEDUQBh4IPDfYqixsrlzfj+YW5DEKQ4SpqmGQy7v/vqS2rFD4sSEdtZlsSJdeFqNBLvnhwe/PP2vzRVScB6d3cvTdO9vf2LywtTm6a21tlWmibtVhSnRVHNl9X5+cXDdBLFWiG5YJH52WdP93b2JuNRWZTtdmaNC56bplnMl8v5rJvlkUZjHIrX19d3HLiu7HQ2BUFjfGMbamwWONtyLcXecxzHrVayKiohpUieff7p11/9/XpVje8mpHS/lwjjbLkoVsV0OleCZVm1kogDSGD9w19fzeeLTifP81ypiHTcytq7+3uPj590e/2qCstF2W5nX3zx22+/+56UfvnyH774u9/sDrde//Tm9uaGIp22siROggdj3Gy27OVZtTa2Nmdv/3Z7fa0vL6+U1nVdz2bzIPDk0893ul2to+nDbDSaOAtXN3ei6OjowDp7fX2lUNjbD+/fTyeT0d3dslylSXJy8hyR7keToihbcWyM8SRlWRbFWqPSAgiIXsAYU6yWb/62dNYBIQeOdVoaq7KMolgDRxzOfvph9XAPAKZpqmoN7D68ff3J4WEryxfzeRzpEGxgp4iIRCvUgZmIkjje3d19e3Z2eXkRx/Hm6CtShEq0PtzfrRs7XyzyWBGG5fg6iiIiSklQqdnkfjy6fXbyIk3iTp63WzEAIAIpBSg6iWMWieO42+3u7uyUZRlFETOHELTWhAixerQznE7mC5F2K9YqIKB8xAwUVAzw7u3r/cePnxwd3N5C1k4JhZRCRBHRSITM1tp3794BQBzHAKCUQkREZOBIYRJrV68j4YSIkQmRWQAQaaPDs8l9VSwV4mz6INxvp3ESK+ecs04zMxJt/HjvEREAEFEpRYRApLRalytnGmIWJgfIIQgAAhCiiOfA4sP1xXnjwocP7weDwZOjQw6urmtSpJmZAAKz935DQZuImBkRtI7rKrw7u2qqOlijmESTMDAH7z2RUoQiyBzenv2fD7xYFle3d86HXidfFYZBawBwzm1CR0StNQCEEEQEAY0JjtUvF+NeN29H6JwJFpjZ+0CESrEIioC15v0vF71+P+3kAnJzezeLE/YeWdTpZwcAAABEtOnGxv6GG7N26+nJSVnVwqzAMwcB3OS+eSDCwnxweNDrdY1ptreHh4cH62LlrVEACkFvGHTDfhslRIyiaLMVljCZ3EcRgYAi1BAFIWYmIhFhZgDRke528yhSRbGyplGaFAIppQARBf/tn37PzBs43NR/I/bRnXBA5TEilIQYgQJ//KIACAekj4z8MV4EDowCGhABAUQrpREZETZ2lFKbjoYQAIglECkFJBIUoogQQaT1R9ZmAuQQgkKldYREiEgRSgggjAIA8P9+d+A3oOaigQAAAABJRU5ErkJggg==;fontFamily=Times New Roman;fontSize=10.5;" parent="J1o6f_ijlUPL8cxEoB-2-1" vertex="1">
          <mxGeometry x="379" y="64" width="32" height="32" as="geometry" />
        </mxCell>
        <mxCell id="LUO2bR_xxj8n7OCwL066-68" value="" style="shape=image;verticalLabelPosition=bottom;labelBackgroundColor=default;verticalAlign=top;aspect=fixed;imageAspect=0;image=data:image/png,iVBORw0KGgoAAAANSUhEUgAAACAAAAAgCAIAAAD8GO2jAAAAB3RJTUUH2AoYFBYWHsdYGQAABjtJREFUSIllVk2PJEcRfS8is6qrp8es7QXsFf5CQr7AL+C3cwZxAYmDJQ4WSIvtNRa7M9M9XV2ZEY9D9uwak4dWZXVWxteLF49/+OtXeFoEDQCgd6/yx7ufLiH1v3+nSJAmCQAYZTyRBJBUgACklAAKyneXgf9nQEz99A1okCQBRBZJ43YAPTMoAMM8JCABYRx4Z+y6DDDF2+gFERwPIzApS+8dgJlJ6lA8eSmIAE2ZCYAASZq9dTVTAIi8fkFCIk1KiYDMTEB5/fo1ycyUZKXQTRJH1shSmEpJZgZJgJGRKanWukV3ppHn81nSsiz7Zdm2jeS2be7u7kXSuq4ZkZkRMVLdtkajm9EAqLfuxSVlJkkzi4hlWYQIXZ6Sr+PxPnqPHvNuzsyMTKm8uT+u6xqZkCYvxayUcnp4TKW7FxfIrbX9fpnKZLLz+ezmrbdoQcPDepfKw+EQEefzuW9tnqZ520opEXE6nco3JxGzpIiwlk4pLyh7kiZ5bs0Qk2/yeVMtNScPCWU5tdZbV7mV8m5lRLY+iXYJ+przzHXt7nN5bAJB0qwqO5TmZeDKJE81UzgDJnFt/R3uaShVhlEkei0VQidhZp0oh4OblfWyXjFnluqpMLOrAcClCKTRmV1GXhuLhJvTmIhEDqSZGwBSUGYmwdxa6RlXxHbBRAcpUgAoOm1ACrDNCL0FuJhhAkwaEZDMlJIEDaRLCSslRneYORGMoIyICEkEixVLOtnUwwxM8Qn4EgVK1ybXlTvMyATUB0eUa+9w2CARkor7tTOpSpvcW+iiwKAP0IwApVRc23DwiIRMpcLNUoJ6odvwQYSRJuZgJ0iQGC4cpt3a1VoDnDIQlAEwmDmvRAUBpBuJiAAIJJGl9Q6ARtGkgHKUWBJNxXCYyge3Ny9ffZt9dV+YJuVAXgC6EtSVz6Ru9sQDKaNKMY8IJswxkpqQgVBOcNu2y2X19w+//vQX83757uX3t3V5/7D/+uXL71vbrHpeKz9+qgGZHMyVKapE71ccpIFB4ma/Z8qB3OLu1fl8Pr365u7D58+2bd1PM3fzoR+eTX7M7RJbgw90Zj5lWiI4UJuI0lobwI8Ikk4+3q2xtdP9fVtD2zTPH/bOuze1lN1j9v54nI2fffHJTfa//eOfD7HRKiCjMhUkSCAjwuhSFEm9dzPLTKb1rj//8U8Pb+6K+zztDe8BqtWF2O0mcP3ls/l2/uL56bTsd+9Pdb2/R98ywsyUiTLRnWQhpVRmAa6ol8SEmX/w/PnpeNq29nD/7y1+oLFWA2UGSt/+q//9q7989uLDj1+8+M2XX/7+t787HG4fH093d3cCvvnh9d3DMSMERGtuLABqraMVI7VeLh99+vGLX338eDwdHx6O67G1CxhmiOxxYSUX3+p7i+/2reH1qx/y3J49e/bR5z+fd7tPTqf/vHnzcDzWWpbdcrPflYhw94gws5YNM6apqsfNfLO8N/+s30Y0MIHovVnUarYsfnuzK5y+P52/e/iapLuXUpZlUSGc67q6ubnt57ls2yaplALAKtfYanGvhi6WssQU0YQAUkgPTNVYlfNsfnO5tF5sTI7MvOvn9XwWr3OJAN5E6cpBgWbsPShtvVX3vE43oVDJUidJ2hprteoJP25bz86hPnTlinlaMiIUY+qFUGzMQqlFv1wutfrkJSMzlBle2HuXVOiSkgjQ4JlofQPkab23JzIzI5BQAEgHJ98Vkq21kcRaK5C9d5KllNZyVMiexEQpRdL5fB59487W+luYtNa6Mkc/uWemmZXMnKZpTPzWWik2gAtgmuatnQeTtdYy0wE3HweG0nG/bq/SLbL3PgaypG3brrpoeOfumfFWPYCISDNGtN67uRdzXuVMkSRFrVXKdV3HFDKolDJ8z8wyNk+xp6RpmrZtGyYzBzziyo6AoMvlMjLWWl+WqbXtx+ITTzENBuq9lxHdyDupiBhWW2skWr9c57MZyZGBeZ4HSMaZzKumqrU6cInLk9TjmF0+NEvvvRQDclQ1h9gT3G2UhKQXm6dDRkRmaw3QNPm4eiS290ZgmqZa6xCMpfet1pqZpRipbVslRYaZuxmgt22YmS2ilkJhu1zaZZum6XJupKZSnQTlpQzF2FqLiOL+X89+FB436hi9AAAAAElFTkSuQmCC;fontFamily=Times New Roman;fontSize=10.5;" parent="J1o6f_ijlUPL8cxEoB-2-1" vertex="1">
          <mxGeometry x="411" y="96" width="32" height="32" as="geometry" />
        </mxCell>
        <mxCell id="LUO2bR_xxj8n7OCwL066-69" value="" style="shape=image;verticalLabelPosition=bottom;labelBackgroundColor=default;verticalAlign=top;aspect=fixed;imageAspect=0;image=data:image/png,iVBORw0KGgoAAAANSUhEUgAAACAAAAAgCAIAAAD8GO2jAAAAB3RJTUUH2AoYFBUzfu7fnQAABuJJREFUSIl9Vk2PHcUVPfdWdfd7b75nYAAHbIP5SEgUK6vALv8gfyFS/lKkrCIlbJCIokhJVpFYZEkUCxIw2AZj4zG2hxnP1/vqrqp7Txb9ZoY4mFq0qkvV51ade+65LSTdHU8ZJCH6/kf//s07v//Fm2++dnn7jdd//Pql1764/tmf333v/s2bv/z1r65cvTpcaT6+e+tvf/jT+OD4hatv3Lnz5Ys/vLTx/MbhnYcKQET0u8bpurRdx1TWRstd2x0dHLaz+YcffvjKq1dCjPN2vvfNnrUpOrrJrGnqte2t1e2tpZVljWEwGi0CfOfxz9ZVRLINYqUqcH7y8cca9Cc/u1rcqli9cunS6mhp585X4/E4lZLc4nAAVRfEptYFD0+niEBVVdFRUzY3t3KXPr9x8+dvvQVVo1d1tbm+svfg0a2bN194+WJbUuq6OkYEdVCroE+DXlwCANDlJBDVUNyuf3r9woULL758OcMzGWJ0w0fXrq1vbGxf/MG85NLmRivVIBpiVcfzwwJnFxFCCAiECiBHzyHcfbA76Hjj9ueDlWf++v4/dh7cPanrT7746tHxXz741z+3r1z+enf3cNo+vLcbq2qrGS5rI0YhSbKn29lTfxqMFKcG/fu1a7/77bubLqsXqnv3Hp48ToUIDetRFevq8OQwW7e0vHZwMJ7NOpWYiq0/tzlYHjy7uhK/xQcVvV7FAQOCAOIgrCQPZerFacc2n1gugJivpHnD2HXzBGgqOZdSCt1ytv2Hj4qXbmsjAnB3sieFZhZCIADnzr2dx492a9XJ7RuvrmiVkNGlGtsbw+TMaKNCJXq9dDTt8iS5u4hABOT6ylrVxNVBE7uuc/qgaShagOS5CrGGqGJv//g/128N6qCh/OjNK3Xb7aWTGAaDsFqgBfPigd7Mpt1nn906GB91TCIhhAAtqxvrFy9ftPkskhTI7u43H938fH8ya9tWRZaGw9FodPv+vdvH+88895wubbTT8ezBQbW+Pnl2Y231eWqVOA2uoQQ9Oprcvt2CZiYCqIro45Mj7FahpEiBqH69+/CdP763N57llM0JStU0s5xmlkbLq00ctbOJTudrW1tJw/rGvBmOxtNjr6Rqap9NT2itQKAg3Awq05NZzg/VPc5Z6LLx0oWV7c2d42ODZ/PSmcyyu5eUjh/PQwxt2wqwf3BYioV4s2kaulsdmqWhdTnNW7qKVH0aYozqtElKZvGDG9dNOFxevnDppVt3dqaTcUrFMsWlr2SnWzIRMTOSRitd6bpOVX2OdjIVI8y9FMJJDyHQXXxRVPHT+19RpR42o7W1jfX1/b3HZnQHbIFO55mXkKRT9dRgjNZlJWBOuImTNDehhFMHijmbC1zDcDh86eLFL7+8m1Iihc6FfE+39k8BqqoaDAY5Z5BeLBDdbO5EqKObFXfQCVnQdbx74AKt4yw0blZV1WQyhyv4pAn2Bu7uToYQ3N3BENRTKWBVV8OlgZnN53NVDcRsNgMQj3YehUE93Fw7bE/u73ydkylCMZdvgZ/fgARZUhqfnJB0EBAhHTT3dt6CoFFF3K23n3j04JvlzfWl9bWj8bhuBqNmqZuVzK6/gcjCrP7HX52W8kIC7gBExIp5KgTptGxYuA70eD7p5vOT/cfd0bihrK8sS9SCRQKeQO8DiEh/urNJb5EABE/2Lp17gcrh7n7j7I6O83S6sbEWYuihz8I88dl39qizqP2WRQBUUUOom1pBcQv0F7e315eXzjz8exD/D38x9HwqcXlpqSu5tTxrZ0OJwyqkw8OaEDlP89Oa9vdH6yfxZDzJdUYdOtJyks5nk+OULYiS7GXSE8zT93MUUimnq/wW7nku4qTLLlEJkcajztrpXAVVFbpSShEIIRAhQJAQqgjgdNUQHJYzAAEIuPZ7FQR8sRjTrKTpWEQgUNWcM0knkpoHikovfgDO8/8zgTSjxtqcbSFTCrgglQDE2UeIuYW7mTlRyBJCcKcDohpU+ysTAOiUxazv26nQii6UKhCnSC8GWZQkSMZcDU7VWESZ3N09EI0oCVXpaxUQhMU+6dNTGNAw1L04SQMdIETcXUF3AoxvvP22laJBSylunlIyM3Ers1lKSURABmhfsX3PUg3ujh6CFBVAvGRdqJkgert293j56k/dLMYoGkkxs7ZtITSaCMzMzWqN/c9AzsndQ4gQuC0sX1VSyqlrFfSeAFGYAShmEeaqoaqHLnD6cFRrHTTEejgAUUohGSAQVFVlZu6uIYhIT3GXuj7JOediWRwsZiW7F3dz9zhqGgOGg6FUAlBUl0ZDQkOszDxLijH2eVTVviZ6ozczK2XBYQjWNDkXluKpuEZDLiWb+X8B4DMox3UyfRoAAAAASUVORK5CYII=;fontFamily=Times New Roman;fontSize=10.5;" parent="J1o6f_ijlUPL8cxEoB-2-1" vertex="1">
          <mxGeometry x="283" y="96" width="32" height="32" as="geometry" />
        </mxCell>
        <mxCell id="LUO2bR_xxj8n7OCwL066-70" value="" style="shape=image;verticalLabelPosition=bottom;labelBackgroundColor=default;verticalAlign=top;aspect=fixed;imageAspect=0;image=data:image/png,iVBORw0KGgoAAAANSUhEUgAAACAAAAAgCAIAAAD8GO2jAAAAB3RJTUUH2AoYFBURq46eeQAAB7ZJREFUSIllVkuvXldSXVW193l853vcl6+v7QS7SWglafUUCRgzYsSIIUwY8CP4GfwjJBTRSaMmIjTp4GvHjuPH9X1+j3P2rloMPmfQoqQtbW1t1aq1aklV8mr30iNUJYkmEZNQUAWE4I+DJADKhztBQgkRCAAyghEQpwZJoBIeSBCDCEQpEkIVgwAK/D8AkADxR0cFCoAgQwQCCgFCQpwgRdJUyYAqXGkiVIRSQ0WEACNkXyIRJChQgQgZhBBCAEAEQQilBpziZNCdDFiaajCoClFJJiQ1aBKiyn1SUEUBxL42AgJSADgR4B5AgkIGxQknCC3OGky1BkmlSDDIUDGhCyQYDJICAXyvAwCEQMAgBL4XhIwIJSXghAecIFGCU420KwCgSlEYEUoVqqpIDZ9IVWvJuu+CQLhvRQTBgO4LiCAiZJ894MEAJudUmHZVyBCtJmKiZlClGkRc6kg0AqVzbysRIYXBfTjCuX+MCAYQAYZUp4PFOZZIm8lJV8Xeo2ZiSSTCJOA1qBIhP/tnL04EySAB0xrcu9ZjTwNeUZ0hWpxjZVqPBKiKJEwqFjBSVUxcAx4B+geDEhAIZJ9oz8Pjg2Ie9BAPemV1BqxUGSvTZoKImIlJmNAIDaqiUTdGkB5BBEgRkZ/9SgLcSwGSDHrQA+Fwl1pRian6rkxpM1GVFjBhUhigBvUYfUyYSLhOlnQvhKqQjPhAqPADQLh7SFBq5TRWiE11GutUUdKuUIVmMA0TlxKqELhxM+8t5ey07TQKIkiKgronAIh/kIvhESEBqSWmEgTH4sFC8zRObgpzNZOk0qZsZNbcZGxub549v8yzxRef9J0WR7qT2Wb06uHQCpmqCU281oCTIEqtJSYng2jFjVOaeAdXhDbej7fT62d/8PVVinJ6krpWv/7yWb+c/dWTP390MNuU+l8vf7i5Ns3DdqpiTTs0EhWOEj5RXXP45FEQNUVlRoGnGO+k6QIpZNxt3/747Lfl/YsO49xXv/js07/4YubK90+/5U95ouyu62p2sltfTJttP8wH6ySium3vNs3ycETOjJfnT9/9+HI+pJPPPmXTyz/8878cnJ6dPHyUe5+l2wO5fbySXuL64tW8bS4v3XprLNfdhprQzNp5e3l1QdLUdpuJRUPamntZrraVUmJ7eT00XbOYPZ2m2+jkya//9vTRg2aYufm89wO5/stfPZp3+fzp9/dWi6v3203c5lk/DENumqvrmzqhb7psqNMkVstutNShm93stoeHh+potVkMq1e3u9+d/3TpfbJOxUZFGZoZdtu249W7t+ucInXd/OjjVbeeLmaL7vT+mdfp3Zs3peS+G5Z9G3Xcll0plaVOEUPnZ/cbhiL08ubNxevX0/Of+v40/c3f/XUW1vHyzbMXM02fPDp+eJBXR8OOY6coU1lKD8/l9tbrZHUMlpura4sFwiuV1FJrjXpytDo+WogkD2mHfliuHt+7V9tV+tUv768v3m8u6zfn36DGm6fx+Oz4s8+f3G6vJTxJWgyL5bAodZuyzfqZ5eweXdt7ZcomCudQwlNjbTevTp/q0M+6Fo8f33t1s5N//Ke/P1vNP39y//DBUTufhU99lw8O52BMm+KTb9e7OpWm0W7WqEpwDK/bzVRrtE2udaqM9W57cXlzfPrw2fnzcawnxyeNxS8+efxug3R21M/qVdxB78ZhdtTM+txJ2zDldrU4/M2XX//2q68i8NHHp6enR5ZU3Jum9RK7qdZxWi4X3Wx2sOi7Znl3Oz46+Wi3mzbrzRjjl//2n9/84af05Is/ra/Pf/8/37041+XQ9cvl6cOPTj5+mOfLcXPXpuHzX36+HXcPHtxfHSxEMa19fTceHR7d3Kzf3r793+/fHx5LCNa3dy/On/fdcHV1c3F5kxaz2/X4w7u7tHpwf+j1N//6u6Nuubut7779fle+la4pksc1/+Tj0ydPTv77u+dvHlyenh1v1uvrq+3LF68PD4/GsY7TdL1ez+ZDCCEiUF2vvarNj0fT4d69X396mC7e3n7z7//x9Lu33/lVcBrH7Xa3reFZm66ZX715/eqHfrPTzfXuxbMfRUVTEpW3FxcREmbzo0OYNjl3q1WzWJpmiNVaNQsseZvT778+//6rZ3cumqTNs8WiPxuak5PDw6PDJrfr9dW4W6+kXx4MlhMkmWUxQ5NDhZahqjlpstz3qZ9VZ3HSG0qimDVN2k5x9uTPDj56FO6YpmQxH9rVwTw1SUQir2zXtanpF11qs0cSmCSVrmFWkSxqIbCUUttoTnQKhCWCKaCAptWD0/bewVi3MZbt1bWhZqPDphE5m+WhS7O+b5ohaU6GrJphIjkhmdBIgYokEzOomUh4EPs9CURNi9Pj7KXHxLGmpukSOG1K8QhJXdfkLCKaqvWqyTxSaBJTmFGRJAslFDCjiIiSsp9L+8WjMhJMw0yQPYC+G8u2bVpTd4d1bWralCylkOQhYpL3ACISERSlqCMYFBEFisdUo9QIqoM1mMRUNCkoIdp3pe4aNVVlqS4RCZWuDlVoUmqCGQFT3a9ZIQjRIEFK1OIsPwMUZyXSfojv94WCEEtNVpjUXbWcUm5AWhJTocpErXX/WRgaIiHwkBAFxN2nwlJRqgRRKivl/wBLwpPV85IqKwAAAABJRU5ErkJggg==;fontFamily=Times New Roman;fontSize=10.5;" parent="J1o6f_ijlUPL8cxEoB-2-1" vertex="1">
          <mxGeometry x="315" y="96" width="32" height="32" as="geometry" />
        </mxCell>
        <mxCell id="LUO2bR_xxj8n7OCwL066-71" value="" style="shape=image;verticalLabelPosition=bottom;labelBackgroundColor=default;verticalAlign=top;aspect=fixed;imageAspect=0;image=data:image/png,iVBORw0KGgoAAAANSUhEUgAAACAAAAAgCAIAAAD8GO2jAAAAB3RJTUUH2AcfARAOJFv6WgAACSxJREFUSIlFVlmPHUcVPufU0t23+66zeGY8nvGMHRsSx1kBEyDBVggSTyEPSDyBBP+An8ALEogHXkCIFxAREkIkxIqEgAAKCELAW8bEcRxvg69nvXfmzvS93V3b4aGReCuVqs631HeqCr/1nW8TURInRBqRlFJSSgAwxhRFMc7HkdbtVktHESKGEBCRmRGRUCARACBAYB9CcM4hoVKaEISURIIQpSAppSSSiFiXCCEQETMDAAkKHHwIzMwhBOb/wQC44EjKwIgAzA4REBGZrS1YSgwQIcZAUqlICIFIITCzo5oUojHGeRdCgMDOOWttDcnMUkoGCMzgrEDgEBwAIgohmBmQkQCq0rnSJQ3JjNZ6AAKAEEJdBQCc88EHa22k9P/kI9YLnLOAAkkJO47QSCWrEAGSc04IyQGkr7LSCI9Oaum9r6qqZo2I3nvvvRCCORRFAQxE5Jxz3gkStYIQAiMFtsocuMON3tSMkV1AycwRSc9CQ0jHk0Q3tgNLay0RGWO894hY02fmekYp5Tlg8EQUvDPGSCFCYOuM1mqwt3/3X5ceeeSMWIk0xsAi8B7JbFRxoyqiKK6YZFVVUkoiqrkrpQCgNgQRrbXWWiml1loIgYg+BACQWiHiRzc++vvfLt+8u/vSV9rdXtZuth8/u0KBHmzu55tyxznnKsnM9QFWVSWEqAUJIYQQdaLqQZ7nAFDDAIBn0EKGvESOdgc7vHMva4jpZPqYbi8sLjx7Krt0vbrVD0WeSymltdYYU8fg/xFyjohCCHEcK6W01saYyWTCDEJQHWAJFYLKYp6nwSw627/71mvXVh9/6pHjM3OpOnn+uas3tuXe3l5dS0pZR7C2AgCstbVLtWNSyiRJQgjWeRVCYnbitHTer0ynS62RGk8iihHNrWvvDu8lX/jyK72unhyflfXm2nfnnDGm1lHn1TlHiIjIBMaa4FEQS4ldLc6tLqTN8r13+4ttlHZDUtN6kGLcAet8OjhEHhxsP9ySQghgrjGklNa6/OAgsNNRTEKRQPSVtWCjQF6RU0tTcnm6aOzfmw69EyE/f6yxfLKL8n4ZgBRRUMG5ALy5OzKqHJaRrJtACEGIHBgAGo2GNZOqnAiSKo4dNWIhNFUL7WQm2j4xnXTUXr59Z/vuncTQ8093qoVltFXSgMqMy8JmvcVHPvU5PXMCo6mN4W1ZGRO8R0QppJJSSskMIUjggMymNAZ4rmeffLy52jnYWrvSMVONKKkQggTD2yfOnvlLX/3u94NHT2anPtbrHU1PPvFZ1V0Jen5zUG5uPJSEiEIAgDWmLAoiAkChEkHK+omS9hOnoxfP9hLc3r17pXi4tXjqjOg2+jc+UNjIEmn9AavTGwPxwY0bX46f+ubLX8tBF9zxLvntWxcrW0mlVN3DAsl7b51zphJu0kzl8vLU02dPLMQPxPD+1LHn1dyxUf93d+9vRpMMtKrGhbAcpay0++o3zk32Fz/30oUdS0BTpLq/efPN//TvdHvTsqqq+pZHxsAshWzEdinz555c/eQzH5udbr/zh8vj8XaygLOPnjx6cHm4fegmlGk1saUbV81IHGs1Pv/Cs/n+/oMhqnhFy+7rv3nz9t2bOzsPGVBWZcHMBBhTUjGlbu8zq/zSly6cOn2anSknxerpZ405tjtY846C0FlrGtnus1NJK+7MLjxxfn7pudv37ty9vf/Y2RfbveUf/+gHt27fLkxuDAid4vMvv6yUAiAKblYPL5xdeumFM73pJeeFkJFIGjpNAlV2vFONhsXE2AqVsMYMhEiTbndg05v3R/nB+MmnnhOi8/NXX11b+xcK2d/YXlhaaU3PSUR0zrY7vZNHG+em/IVPrYjFRRekECppt1FGHBKgOO6lydRyB9BX0jgzKUeb27vvrH04Mcnc/Klnnjy9O9z/8U9+ePPWh0msR/m41e0lWQYAMoqi8XgSIXzxxPHlJC52EeyeaDRA64OxA6UFJSxwUoxHg9294d5h7rb3DvbzfG5hpdVaeezM2aPzK++/v/a97393vX+v3esMNveb7W7W7npGBSCNMUopa6s/XLn80fq/gVRKIIBBKpaSGY+0OwbCuChD5dIsO7a82unOPHb6meOrj6btti38r3/5q5/94qd7B8MjizNbOzvOK+05JQkkmVnmeU5EUtJAdaosKyo/Aq3QCSaNCfvgR3ZxdbWbdWZ6s7Pz80fnjmRJlsUZElxaW7v4+ht//fOfkoaeW5irTKWiOIs6Siejw3FRuW67JXWkq7Lc3dm98OlzX3/llaIwFlRAi4BRFI/zMQH2pmeEirwLgujI7AyG0P9P//XXfvXaxTce9NdXjy/NHT1qjNkb7kdpM221AclY54x52N+Q1loSZIyZlFVrZrXhnPfeswvMznumqBnFEIICTJPYVebW9fcvXb508Y2Ll69cAgjzC0caSTwY7FaVkzJWOvM+NNKk2WwCYFVaWZUVIgYftnd2jDHM7L1nZEIkgGYjjaV01m5tbl5fu/7e1atXr15dX79vrdWR6nSa09Nd7+3ORl/Grflj8xQlIfB4PHbOaR0pJSUiGWOsMQ/7/clkkqZp4OBCAM/EMNodXrtz+5//fPedd/5x586dclyqiJRWrVbWbGXNZiNpxMFLJWWz3SmtZ8WATggqigIBpVKyqlwI4D1vbm1tbW3Nzs4OhoPDIh+PDvr31m+8d/29a1fur697F4TEJFNKiWaz1el0lBKAYTw+zPNJlLWb7c5h4YrJGBsqBIGIecjTNJEcIAQmkvt7o7W1tfPnzw/39m5+dPP6lasfXLu+/XDD2EoIETU0QCCBnU632cwA2JjSeWtMmbbaWXdex+lULCZFkee51lprbUxlbSnBh/oX6kG+/bd/LK4sv/2XP7791h83Hzz0lYmUimINwAxOa92b6qVpXBQFBzjM91HK7syRrDeNJEpTNuJ0qteRh3R4eCAQUVBRGFz6+NMsKQCIgEIEnfDmxvrh1kCREEIQEQMzhzSNe72eNR7Jk5BlYUejYWdmLmr1lI7SWHgXALDZbMZxXJZlnucqioGEtM5yQESigMH54f7QHk7SJKmfTyJSSglJ7XbqvfchADu2LniRtWey5hSTNpUXzADsvQOAqqriOI7j2FgXN/R/AVtCgavh6mEHAAAAAElFTkSuQmCC;fontFamily=Times New Roman;fontSize=10.5;" parent="J1o6f_ijlUPL8cxEoB-2-1" vertex="1">
          <mxGeometry x="347" y="96" width="32" height="32" as="geometry" />
        </mxCell>
        <mxCell id="LUO2bR_xxj8n7OCwL066-72" value="" style="shape=image;verticalLabelPosition=bottom;labelBackgroundColor=default;verticalAlign=top;aspect=fixed;imageAspect=0;image=data:image/png,iVBORw0KGgoAAAANSUhEUgAAACAAAAAgCAIAAAD8GO2jAAAAB3RJTUUH2AcfAREzZSiHCgAAB9BJREFUSIlVVl1vXNUVXXufc+58eWZsx0kgaT6aKoF8OA2EAOWhVb9UiQf61NL3SqgPfeqf6D/oE6qEhASiArUSRVVBlVKKggikJFFDQhMSO3FiO7Yzsefj3rnn7NWHOw50jzTS1b5zztp7rdlry8kXfyhJVVRqzjkFQQhFABHB9gcQEQIAQFVVUQAksZ3EJFg9OnU0UOil2ch8zfkAL6oqACAGkepHoiJu+6wEMYGIwImv8mZGUqqAkFpdoCoCCs3XJfMaaMoymSXSQsicOtJAiKACJwCVoqyOAxMNJEgThYpAQApNqwCNYk7oRZSiiYABEEKNAEEKAAEF8VHxMskIDAKlkFDADARhZiJmmBQNMAl8EkuMo7wQQZZlIkgwkBABIQDJSYcJMQHEYiIosKo0wgRCEqBwwlVFHAlPmpJZCOomzIqgAlpxWD1VLVZREUmWACO+DpIkVUQA4SQpEKEpBACcqk6YqrCAZNVNEVHVis+KUlWt3tkmf/u70sS2okia0ccyhsxDFZiIoUpPCnmkEJEKZkrpG6KEiFS3eu8FYmaCCSAQIH1ZlqHWAOCcc6oEKoCPwBorXqU6a9K0bdTJLKVUXaWqMDoVEaGRRgF9yEL1V4EIATMTlUrJDuJVRRHJGEtLScyMVqoCmmmzmbmpRs0jEChjWaZykA8JGCyZiUEF3qkzMxFNMZpQRFOCqDp1TrVZrxutLAtG5DREzrXbO2d3dJrd3TP7nji45/TJo4haxFiU42ExevVPr9+4vYCaNzCIE4E3M5WqCXTOq6pAgvMhy8S7JJIX4yIfI9nu6faBHd+ai2VH8cTRU63O7iNH9s/NzmSNEEIYF+nTy//pD4cQpJgEIioAvaiIaqXJlJKZZSGATGUUs2SGGPe2Zw7u3ddWlJu13s1Ln335ecTUsROZuH2DotBgXriyvPbe+39bWVuV4JSUStikO3DqBETNSCaamVmZ0jjGFGOA7Gy385XVncgGS8t/f/fs8sMdmbiVzfvnv7h27OiRPfsfGw7G47xsNBp/+eD9dz8+G2WiVScKCkBvZqrqVJIhgQqIJSPardl2aHbD1OLqxpVL17i1pebdzrVZ0Zld3fcvXbm/stSp1R9sDJZ7Dz/85Nxrf37zgZStrAnjZHAAqnR7jj3h1AkgqpJ571y31vjxM8/97IWfPFwtzn9yaX1jrdjsHZhrnzx1+ta9hZuLV547/mS3GS5eu3rqu8/sO7jvXxfO/eGtP15fvjXd6mQum2gaApgIfIxRINUI9ybjvDj9vWd/98pv0ji/89W9i7X2Wsk82sJg2Ikj1jBI01/cWWln/syzz/SL4atvvPbeR2fv9tbh1KunsRoNENBgZp6EkU7FqaK03e25p44+NXiwdf36hcMHHzuw91v3l64PRRd7g/zCJ83u47t2HcrL/ksvvYjH5956750L164OVMZmreYUIcmSOicT4yHNfAghywJEUiyffnL+lz//xY7pua8W7n3+2dWnn3pu/tjh9ZU7cy358tZ/u+12I9NT84dfOH3i3vrdv77z5o3bN7XeCrXOrsbOZqOBJKxmwGS0AIAfDgexzKKlzIfnzzw/3ex+dWMxH47Of3qtVZs6eWL+xpfXH2Irs/wHP/3RqTOn766v/ePyxwvLKzfu3xtJqqvMNlpehaA5p6jEWeGHgJ4cxzGazfbBfYc2t8avv/F2UH/rxhe3F2/K95+dP/6dcx/PXf48f37+1J59uz+8eOH85YsD2szcY2GjVuR5K2s5nXiqCqrTSVYTXgHvXW3HzK5D3z7crLU2+/37DzY++ufZh+t3f/vKr1/+1cuNeuP0meNbcau3fOvtDz5Y7K2Lz5rd6Y0HD7z6VqPdaXdIQAVkSumbkxwkQT/dmTt08Ei3M1Ov17aGW73hhmu6vd39ozTeHG5duXrl3IUPL9389/Jqr4Qx89OdborMi1GjPjU15Zy6Ylwq3P95CWjJBKDAN1vNXq/XH4zm54/fW1raLDandrQ6rea5i58u/35p4dbCjaWF5NnozGaNJpDycXTip6amABVoWRZGY0LlAY/8pwpR+H7/YRrb3r37l5buLC7eerC5EW28ujEs42hx/XYyC92ZKV/P6lqmsWqAwRzyogiuRiDLggPG49LMvnaJSXtIwqck+/cf6HQ7yyt31zZWvXek721uipNme6ZWrws8SyvLkcBlmmVZTUSdqzv1sYyZC+NU4lHbt/2KtIpsP9Vq9x5ubvZ7G701s1T5cKc77ZzLslC5WMEIdTVfV5FayFKMXtQ7B7PJSvAN6CBVFcqUEknfajU31teGeX8w6mcheO9D8CH4quTKhEmGEKrdoNls5nk+Go5SGtbr9ZnO7KjM0cdoNBIRhaQyqaOKmAhpbufhQ3leFOORD75WqznnJosoaWYTFN6HEGCsmCzLstlozczMZFk2LgoKVHWU5yQVUs18GigQwPf7W0wImc9qNVWNMaZkQPWaOeeqNcLMfAj1LAMQQvDeVanBYGAOZVmqiJGWklT0IhnhtJqm3ouq0VK0WJbq1BJJhCyLZaw2qFqtPjsz09/aGuV5LcsiuLJ+X1VLiykaQQCqDkKS1R1CI8W7aL7upIyxKCEQgjHRLAshFWUaj73zkthq1+o+jJ3fHOWaqETdB5BFUYJ0qsmSkdX6A0ApIKjyP+lO84rBO2xBAAAAAElFTkSuQmCC;fontFamily=Times New Roman;fontSize=10.5;" parent="J1o6f_ijlUPL8cxEoB-2-1" vertex="1">
          <mxGeometry x="379" y="96" width="32" height="32" as="geometry" />
        </mxCell>
        <mxCell id="LUO2bR_xxj8n7OCwL066-76" value="" style="shape=image;verticalLabelPosition=bottom;labelBackgroundColor=default;verticalAlign=top;aspect=fixed;imageAspect=0;image=data:image/png,iVBORw0KGgoAAAANSUhEUgAAACAAAAAgCAIAAAD8GO2jAAAAB3RJTUUH2AcfAR0kSk5NwQAACShJREFUSIk11kuPJFdWwPFz7iNuRGRE5KOqsqq6utpuV7ttTctujG1mBJ7VSOz5AGj4WGwRK5YgMUJICCHEQ2A8fnVjj+2uR1d21iMfkRmREXFv3HsOixH//W//x+fPHl/NKwNspZAkArkQnACJrFGgjpQx2gySvMiyPBmN8r1ilMSJdc52XdcFa93szetX5xfMBABMCgAQvGAGlD2RAhKM2AsERGKaTCZnT96eFOPp6GAyKYrxKMsHeQxxrKNIM7KTkCbJOC+01p3TwPrrL//zr//qL5uu7hxJzIQw9/fzQC1glESZYqEREYRSCJ7s2dnZX/z6z9PMBLd11d2u2bBsVttq8WpR1zUxOAjc+ydvPX707jvT6ZNxcfzxRx+A/7PWrqrGaTXUMv78i8839QYwOX30Pn7wwYez+a2UWjAQ+8EgPnl4PBylHz07Lc+/pG6d7x90CMtVCSyOj05GcT7/6dIYMzg5ePj02c9//ismsVxdMTS7nesa6jp7czfbVJVzEKcTRVJJKSQIZGbEZtd89dVXCcKx7U4iLmQU1c5WzWTbRSaRu7tNc2WqNkixXK5c17791juHD572GANoIZmxc34TJ6PA0LR933cyz0eh94gCgAWiEPLo5ODxMCnqliy51bba2nLTuQY8qUmSjvdGSVHkx8dFPtxWK5WnD04fSxUrFQmpAIGRAxEBMgshtArOCyEBAACB0cTRZ3/y2e724uKHV23ZHg+UEqrXFI9SIwFseXi4VzEm08N3Th/e/vM/AYW+t0xSCmFi7YNyvbbGuL7Xmil4FSgIRAZgREAwJp7u71+V9xuOo3yYHCRd24Tg2iwpjBguqrvbzUKoUZSfnEgTZ0U+UlKhVMwEqPq+11prraWUzBwoKCklEQEzSyEQvfdJZBKtfFtP98ajNLpcLt9sWwHYQRjX4XxxU5lksn82jPbG+Z7Wpvc9SCBiohBCoP8PAIhYIaIQgplZQCCud7vLi6sY/PsnRTEUqV+fTjRLwDQeIirXRmRVb0O9DZulIlYqAoZAHhgApBBCCKGUUkpJqZTySqIMyH3vPIUI4Z23T5ry7jShTx8cGW38eguDpB2MdZqXy1Xo3eToQOa5u53/+JsLPpkqHelIR1oGT0SSiKLIaO201lopZ52SBCZLJsV4WgzeS+MP35o+SqPt9bmc30eewTvHbSpqmdQKZfTHH+HpcZzn3/3NbzCG6OHBYr3Im2NllBRaSaM1xAl4T8EFb4NEVE+fnP7qT3+52S0++fAPkl2zOn/Z/PaFqDeWvXXO970Nvg/ULxa2GGbDNN4bV5FaIEWb6gilkCoQCeI0juI4tbYHkE3dNW3/Zr64X6zV2V72NMNl0xwJqx4ebrAu/+srXKxbQaEP5H1AJKnIY2NDs91lTdc5WGqe3FVYdcVwGJukGBfBh6rerlfby4vrFy++/+abl7PZzHuvwpvrF38/MyJ8/dvfTZ9/Gk4PVnUzaCwLQUyIyqB0ga0PwYYjPdA2oPcIDIFvLmfd0VXtMIoj7633+Oqnq7/7238oy129a7z3AoXSTKpnZqq7e3l/c/D8mY1jBIpVMtof6yhSge7X90uUy2q7+td/z4dxtj9Wy3Uk1HpZVlezf/vvr/cP9n/27OkgyxeLxfX1zJjMJEZ4CQBKaGRBDIojL8lnJDVJo+MoT6JRVnddX1Y9h+FRgUl7d3uLlWkWpQmyUknpef7Nt29uln/42aeRUdkgBcRBlhFK551JlBRSGSb2VggtheiXK7HbjM8eHSTR8v56cfUKVKQrMuTyJOwbFReDTa++r9oFk0AtfGcEPEFtsO+arZhMEdXeeFRS1yzavTSN41SpKHUchIhUCDez2eF6EefJdbcTSWzqXa6lMYgcz4W5WNeLxvXC5Q/Ger2Z9rBu+v0sPR1m383L18ntch1ml6+fnBzPdst6URoJiZYqCRQxGCDtyYewejNfXl0me/np6c+2//gvZtcaJoiTL5fuP24q1pQm+EdBPS8eDAb4kkO3uIuF/faHu/n3N5GGaZE/me4fF8WlEFqI4WAg4tBFTDF5CD4ZFn7XDIhMYjyDlEoCg5R3KF7WdVkU2yS+6cW3i+1uVFSJTgdxEScKIhGUbULbOq1EbFQaJ4iSGE2cqltERJkLjNklo8wA++XaVqVnuet2jBSZ9Itdyw+Gh0m6ubkFF9bBlspnZaWYLUQt5lI0CfQkwfZtNizSbMjif+u2P7+aq5cUEEm7kDd2vK0rXDe7JjNFV+1qgDEI0fgLR+9//MF2s4Lh4Meb2939snW9jYydpJ//cN0t3WvwvQ4K2BHtCFZ3a+eh3FpEr9oIJ+MRgvzd+dy9uTe3K0NMdxtP6wnJRwKpaXfjgqUc7/wRmujByefLqi6m8PCkw92PL1/XLZHSjJ4Iu168OL++X5TIInBEgZRBmUYwGESzK7sDWwbMfYSttYJqpFd17ZxDMNnV9fPSQlsXj47laPDd6u5isxBZwiIRWgD7QL4PtN30tiut7aVQiAwQ5C8//aSbzw6d3XMhKYqNYJ1k3JMn3xKXgTlK4p6nBJ+MJ8Vb4xXzbNcSSRu47XFTOmYthBQyQjTMKpBC0AzMDAio7ste3NmkpX3Q77333vzFF2vf2tD5zjJBRHKYFl67nokc6Y6LJNOsQic8y+WuDsGgVMAMyEIwMQMAUWAOAAIRJKT7fe+CbVTwaZyUq7IptyIIJgFMABxnhlMZxzprvHQk3n38Pz9dL2+7vpMkUgANgAACUBIyADIiAAAHBmBiFVDfMm6cve58/u0LkNEADRN0RIGhF1zbdo/jFvvXaTY+e/d811StA50wGB+YiZAABDPS79cEMQQmBJakTBarVEGrtYXB674j65kaAPi9YEZg2bW87a1R8gJpczG7tutYpYP9iVIJSZSoBiICBY4dOe561/Zl59i1RLWPEq3eff/tQF3ft87atu3qum7aBjyxoxACUbCBLPfBdsHdl+u7aL/4xS8+Pj58ZGKdJpkyyUB0SWS2Vt3fbuc3N/PF5e2iqasqGqzut1dqUBgARRyHwIG4d846R84H24cQfN9vq/rZQ8FUdnU4mEyS0XC6H6J4GUc0wAGaiXZXuRNIQ1Y7lVeFaDOgG1Rn++lik/8fcnHcs7uKSzYAAAAASUVORK5CYII=;fontFamily=Times New Roman;fontSize=10.5;" parent="J1o6f_ijlUPL8cxEoB-2-1" vertex="1">
          <mxGeometry x="411" y="128" width="32" height="32" as="geometry" />
        </mxCell>
        <mxCell id="LUO2bR_xxj8n7OCwL066-77" value="" style="shape=image;verticalLabelPosition=bottom;labelBackgroundColor=default;verticalAlign=top;aspect=fixed;imageAspect=0;image=data:image/png,iVBORw0KGgoAAAANSUhEUgAAACAAAAAgCAIAAAD8GO2jAAAAB3RJTUUH2AcfAR4qhtszBQAAChJJREFUSIkFwVlspPdBAPD//Z1zfOO5PPZ6fazXe0K7u01zkCZtWlJVmyiEpKqqtvAEQiB4gPIAAp544RGJF5TygEBVUWkTVQg2m6abhZRkm2SVA3sPr9f2esYzHs/13d//5PeDp575ouHJS9/6o7W1jV9d+4k7O7R4RqcFDTngUmYFLvIOtGhn6f8CqkreT994I05EgYWl0NOXn/zt7337L//8+yGVG/Ntm+up43YPDhOREgWhNggiEmeRTMIP3npD310Lel2586BmkM4yo2U4nRVFUbZpudMiMH3y8nNbswh6biJGljYlRs+uLFxoNBmA2lgaMUG4wshAaJQRQGMIIATYKtlzlr0RlNcNDMIk3d7tEKcMqYMJlMZ33Kpltyi91F7GgAz2DkvHMxUfayWIDW0exzs7e4NuHylnrgyg0pYjh6HOc8kAJQQajX/z6adW681lz/W7Y3U4QRImSd6Nkt0kO1Z6IFUqUBWVWW94//33PGY97jUfs/F5v75OrLbilSKP42hPprWy72ZyxrlHLQgNN0pLRTEhj62tQ6njo6M3t++GaZEagBhOkS40lsAURvmY7Ne8r8p0LEV5xT175gvyHz/4HKkHphpiEANULtXDUDuR8HLYK0a5b/sn6n6cK6kE5wRLjiAJkfMp18Lxc4gIMUWR6EIZCBEmCSLKs05mydTIimcv+IxCsENEHse0gGGkzhn7PHZTg0qUysHYddue0UIoDIxfLRMAtcJwTOzIrjbmT3T8ajToDqJHwUJtNBoBQst+4FLbja1Zhmch2Z/m64L9bzoZUY4l2oumv8sapUa5fWkDJ/wczhyF5TQfSMUhMEoRA4w0ZprlEmANjNZc8FwDgGyiYYEIqraaQSlAe48SBKLD43FrphAwAGYAlSVMXFbYZPVzp/hKRyfq95ZOLBeKE7Kjs4NosnfYI9feugGYO6QBACYKp3kyFXlitElnIYEQGoNdt3AtwUWmhSUULgqFINEKa40MhpajLQZ99yhOCaT0wf54bw9ZTicoL1b9K7V50p+EmYqKCgKUSAggQhpjiKhUCFm+gqjbO1wq2RgSbsx0Oixt6l8nFCAIgBkxNOaCM7b5sL8buDXPq+aixgFOEhAJ/GiWQUMKgInr5lorIbHrQKi1VgghABGyXKMN4NybRjAXEpjdyYEadp/xKjEoNDJaSRQliChWCYKFdtQfmELJ4wkFUNiWa5gigIRJTgsFqWEakiIDRsIsxtwADJUyGAALiGR6yJBpanBGaE9pxYUHdMlxUVgwo+ta8MA/KATkUOTcL3nQqNwmRiBJAMEIOMbgJCIGQJVRDH1eKC4zXRjjegA2fbTgukuBX0GB71cYNyci4dU913U8Jif1TkvDd8Lhg2G8ZNWMAdqmwCBGCTYYU0DmSm4d0Uqhp3GKMHQdxihBTERKhnm6aPtnFFpP4VwUVatWvcTcobSltIQKYuEK2MeAG5HksZZCUsWNGacpEsJFLFdIuYwwIANMOwjUGOZaBMSmRmFZCKVnuV7V/GIWd44iq0JguwrSZFKEkTHUc1SSZKHKLTrF6uGjnqm0M2YEgbbjY5MzhAUyBQREa+NZ1AXSAhZpBtphlkEOnYTDI9fHjpYlbjwADVKz8cA2alJChuIalBwKZBEGESIsCLwppZoaRKnOtLSs2PcTAq2lBqGep1wyo0zJdG90tIc0Q85F4szPNxqdql/I5M6h4lpAzYKgwMbrY2jy+hHXWkZac6215bSCJkdQalU5s7b8zLO7LNneOUoc+O0/+33yxUudaJwX0s/ERCsKi7RQKkeKGdAQBPbHNkeYG8wtHmEAIRsLA+1hs+Ist2prZ0pra6rVfOfHP1LxFDKz9srzi791de/Wu9f/4m/LzYDf3SdPPXaqO6FbD+Kz5688fLhDxkPEyIpXamA0NGmZS6FFbDl+a46ttJsnFvDaahonf/fDH9Ta3l/9zZ96QSkRxfjtn5Ub3ulOw0l49Ku7jb0UU+vhZ3c+ufcaoY7XdlqYwlyT6dZm71GPumz56WV/Y2O0s93+8lcunL7QbLUd3wftOUwYQPJH//Dajf0e2xm8+N2tpx6/lO7t9+5setWg6ZDuT//D2v/hkVEKzJxJPn96jpz7/HM8Qh92PwAUEAqV5irjiZB2e3HOcQcug5+/iCrBYDhqlAIMUD4b3N7erlYb2cHs5g/+tfrvb47ubp2axFu98Qejo/lMnd6fiLrnceTF5s6oR+rtc73hnc0bN/y1k/N1PzzZggasVYJGYaAhkKNKDnDJuAbi2SztD+/cu7M1ODjOwhjnH71380vCd3nu1CVCwEiBLSSIPKTZRCJUxte9kBS5Mlwl/f5kdtRjaLvfrZdqs/Hg/jvX3eOsubQ4Qo5CSPUOD3buzfZ7Dxyfh+NWqqhWiclYZU5JNfKVP98MsHGIDZw2wkWtPyi1Wvt6Soos2z/oZkqfW1meD3DnXPPm9Q9/efMXtLPQmIrpJx/l/3W9ZWRggORRBVK4clal8fNLq7fv3xcpzysAue5LL79A1zd4vyt3Hl3b3P/lZ/fPLDQvfemJl8+vk082H+bUDS5f2Y36f/jK1xfWvL9G+vUfv+/OrRTDY1/LpgKuRWuUcexqinumQBxfPl8/Gvf3JqPjwJmvVR8/dXFLw5uf7Pz8P6/tdQ+hwabsnrVVZc7Fq+sb9dYcscBoMqEwci29uH4lxJUScQQ0M1gsULeCkQ1hTnRM4S2KZ2Gxyoo0N/cI+uqrL3486P/Lu+/+009e/8XbN0dhpAGAGM016t/81gvVaokMpsMvlM9fuHCqUau0KujezlEI+YXHntio1paCCk7jyu3t9OP3k/3B8SyhVjnHhhSFjuymU9qfTv/ktX/u7j+MDYAIXtpYv3r1ar1etwg7fXJpZbkOoCKlufkkF0U2u/XxR6++8JJXPvng03t3dj89/8xvcKMCym69+fYZzwKdTuMbXy7mqkev/yyXxdLi6naY5Ft3u/HEssivrW987SvPPv/c0ydPLjNGEcBIKiFnECHyYG9yuPvflzcWVjZO96azijOXCRV2D9o2k0UaT6O4KPL6Qpfq/9nZef3f3p8dj9e9Wi/OD5m2pbi4vPy1rz/76tUXl1eXlQ0hBBBCLY0BBgEmREHGsyIU+fFUBQzudg/yaBe73ur6CmewMl9Hvjs7vfD32/duffzZI8khtlmJTGzUR2QzG/7x9//gypOPL68t2QZooCEkCCGEEMEQYKIzSZlDCimSNPv5u++5jpyruEWWHQ4mjk1Tnq1tnPr0w9s33nrrcBJRxIzjYY2xIbEx1zY3G09svPw7r1i2AyEyACANkIFGG8GVlAIoSamFMSZhPEzDaREe81miihDDXAiqFPjs9iYCRippu9bi4sJwNOYy5RKDkEmih5XKd77xom1ZTEICWYGANhIZgCBK8jTLEtdiACilzP8D+wjR//qpfwkAAAAASUVORK5CYII=;fontFamily=Times New Roman;fontSize=10.5;" parent="J1o6f_ijlUPL8cxEoB-2-1" vertex="1">
          <mxGeometry x="283" y="128" width="32" height="32" as="geometry" />
        </mxCell>
        <mxCell id="LUO2bR_xxj8n7OCwL066-78" value="" style="shape=image;verticalLabelPosition=bottom;labelBackgroundColor=default;verticalAlign=top;aspect=fixed;imageAspect=0;image=data:image/png,iVBORw0KGgoAAAANSUhEUgAAACAAAAAgCAIAAAD8GO2jAAAAB3RJTUUH2AcTEigd48yl7gAACD9JREFUSIkllsmOXdd5hf9un+Z2dashi5QsWhRsULAFw7JjwHBGeZu8SF4hLxMgMYwggAcZBOpsS6YsiWIVWVW36nbnnL3332TA8QIW8GF9g4X/+m//zsSCyACtSGLBiEYYYazslhIRdya9CQUWwixgXiE8IiLC3d09IjwCIsLMAyuwBjpSRIgjEaIjYLi5IjohOiJCMsLCDEzOqOYAMAlUotnQJqWICAB0BzOIoAiDOCbLHO6EHujOamJADAAASMgCCIoQjGiRPMAAAELBENUxMkUl7GGJIRABEBiIgRAI4QiI7MhACIDIgBwm71IAF4ZEgVYEXDxAnZ0SAbr14b0rgma3StiHCTQBEQAO7mCBEBAR3uaiEApswO4YboIAEE5grMauPu7zNHDbtc2aRTy8QT0BPw0Ty0q1MlTbhpNHhLu9G8HM3CmiHwdwnLgbuB9lllMnFI5aGWsDdcH+9sfvfvj7Xy7W68eXH50+uaRi4821jwcfRqkT6EApqCVnUNVxGGstXd9P46RaW6L24UBG2pzU/jQ9e4GXz0TcerCF6wnUbtjN95tPH50u5/Pvf/z2vZO+T3D91Wew3y+mQlZnUBVL0yiwA8DKzMyYWSR5uE75rKjWcHnY9UN7+exgJsm09QrH+04sbW/a2+vnj8+STnc1d1ZJ8zxszbgwTeM4E0ABHyuCIZGwsDSlFKoWEXmyxmpquvV8fgPigWogbNmH/e3LrxPW5XGj37/cvfkeJdHJMwICpDTrtw/bRZJE/ZGqhgEs34lByOhQPKWUENG6uo1xSu0ttndpJpimYGGrdthdffM1Y0mQz8Pbhw00HS5hNyqluDpOkXM268yKjdiRN6eODUC4OQTMTy7uNpurq+ux1NlKphg3Pvz0n15cnF0eQcQCIHTzcNtFXki8t+zmmhEo9vv//dN/D5Hvt/fvrxdfvXzpBc4ez37329/Ho59P2BGi1xIe0fef/fG/vjy+ms3nZ7OZE2wmf/ro8aHtjsZykGaX96/9aOTHY2bGX7aLRa1PDvd1rPcIWvT6ZnvsV+v3Tzf58LdNPvvoMaweI4DWCqrSpWF5Ps0XJ6cL63l5vri5/nGi7YxzLg2V0Fdvfxhx6p+s7xm/3R8fMLZRnIfUl/Ony8vnj+tK9nMsF/2up7++ff32/vpwvDuO9+pjYFEfn3/0NLHvtrdh++lw9d5le34KaFuJUagOz99/VN6shml3GPMD4tRzP59vGxiF+qfrR6fnu83i1Rdfvdy+Wp/0P/vk+eWyQH6Vq3tAIN7sH7oYP/n5+fbuWmAPVV98+PGHl/12ylEHERs/eP/s5m/pu2/eEqUDwdfbzQqhnjbWyfXmZT68vp3qOI0B0XZtooPd/jUBtZwotbP5wk5qQvrV80+Pu/uHh410/vzjD1cXK6XLq5teLtezZ2s+/Zff2T9/IigLlAumBRj11CxnBzVL7ah+t90z8bxrz1bz3mvfNMbJSDC1Td8iWGhl/GlqhJIZ61AhuC85yYzjJ49WJz95IaRqgU5Lkt4tWW6aZIEkchxGf3R2slqBuYdmH6RNk+GhqKKBjywUouFWzZuE5oUpIUdqSMLKSbeI3WayA3c9ULsdbHJvQ/kYBOglM2BCch2mcSphvuwSz6mbtU2LgZwSIRCaqxaFw3iYyr6ZnzDjlKsQSQrHOg2H27yjY3ah5uLsfGhoc7dpI3qMFoI8xiJFNUQIe+rm90OWbn4YstbhsLsf9vfj8TBlOAw7oGl9cfnBz9Y5r2SaLKqeCLUYyFSlI2rmfbeb9+W4P1suVhR1t501KbVJA6Lppv7s7b7832dfOhAhC8C020pU0JrSct0sutl8GhWydqmT3bHMmkfPFpdGk5s189NSoqL8cHP/x//40x8++fj3v3ihJKfzBRBOZtF0DxpXDzujlMdyvlqIaeLUBiTiadThfudtxbbr1e+Go0yGJevLr//SHa8SYrXXWslSf7U5Xvpi89m3f7/ZnzY8CSrGUFXn88+hez1ZL20Zpvupdm48HOqwE7dx76UO3JVK9GP/BZ79Wkqtecrffv653PyjQwAQVQqZGS7PxjKzQaeyD2sZlSCrleVSPngWOY/77SK1sR8TwhLMbeoRLxbtWGS0nBHseEirLKIHtTVgmnfdk5kkkmpcjJ4kKHOcNSeLprGcmanr51Mub4Yj3ny3sMpqPRJNU6fKrp1qi0iANVciyjh7PDvJFFKtetNrv9o+wBKQzYvTpEZwbNo0gk1agtAtZMqudgyEyZYpLRfLnrldRYfUIMxT6prEYAGS2/VNzJYfffrlRuXBcGiWH/zmD/TmYom5SZ3LzCEROyOKNCzCJIjsHkyCqX2RuuwgTERgpmZmVsMcIDBPXmJU3h7j+q5+czvJg9JXVw+/evz0yelZg1kNJpdsgKCmteRaSlX1WrWWmnNVdasyZS+qo+ZJa4E45mksWVXbqZLBiM0mQ23XtH4qhrP//PMX/zO+SdOGo9TADI0CUxQKh0AAQqR3EACIAR31YATCLqKE2HYVZ9EKz0RnwYDOzZwa5c6auSRZVM2IpzU1bcOK4tIRNz27IBAxkRAxBEUAkTRJyNxUkVOwFPNiIUCBjMSGoBEWSJIcwIBElBfd+WJ5hlE9vCIjSQAzOoV5oAOGg1uYewRiAUjVgKJYuFOwUAIncLKAgzgkJkDSQISwIlTUDI7FESmQDdlQAgDCGQgAABgCAxABCdA9RgBnJAACQiMwYicOhoAMYAhu6qUKAoNL6OQgRoTIge+KAiEwHCACEMIQCYEgIoACIxI7IARgYAAG4LvrHhAQGoEE3jA2wgL+/0U0umtgoLooAAAAAElFTkSuQmCC;fontFamily=Times New Roman;fontSize=10.5;" parent="J1o6f_ijlUPL8cxEoB-2-1" vertex="1">
          <mxGeometry x="315" y="128" width="32" height="32" as="geometry" />
        </mxCell>
        <mxCell id="LUO2bR_xxj8n7OCwL066-79" value="" style="shape=image;verticalLabelPosition=bottom;labelBackgroundColor=default;verticalAlign=top;aspect=fixed;imageAspect=0;image=data:image/png,iVBORw0KGgoAAAANSUhEUgAAACAAAAAgCAIAAAD8GO2jAAAAB3RJTUUH2AcfAR0wUJSZvAAACL1JREFUSIk1lUmPl2d2xe995nf6j1VFucBgTLAdt9pquaUk6kRRsskyiyyzymfyB+reZNmObXoQxoCFgSqgqP/wzs90bxYkZ33OT2dzdPA//+O/xjER2nqxUUVd1gtjTFEWSqrj9ev+8A6RprknjlLo4Gme55RSCGGaRxbsnLXWaq1LW6zcQkohhEAERFRKcyb18MG9F79c7ttxv3uttfadzTkXRWGM4Rya2illjImINkWk6EtXCCFyzrMvtJHMjIhCCC0EYM6ZlCyIkJgRwBql/uHv/+6rr+Z3N/tXry9zmCn53W6Xcxu6DAK8KEjpHAIiCjCcktHaGJtSskqiYClEzjmmJBhi8EppBkopKSWKOjrH+O0f/ohS+hRDDJjj0B67rhvH6fnz523fHtrjPAeBSimDoHNGIkLEwhXEOfhRSZVSSjk551CgkJBzqOvy7ifnyrXzuFOCdGaWoJyREpzTriqXzrmHD7/oh+7qzdWjR395c3WdAlOOKIRAkWJEV0iAOM6qLKzSRirnisR5mluhwsXds5Nbepyycw1++/vvM1OmzEycSQDO3gNzWVVaKma6Oex++POjR39+1PcTkDBaA3GYvTaWGZqmMlaNU68UmgKrGm9/vH742QMpRXd4TznKf/vXf+76fUoTcxj6Dpn6/rjf3/h5mvqRMjfL6v7De5tbq8Wy2W42QnCMPvrJxzlLQpOyGITxRcOffrr97G/Pzm8vVusGQcRpFkzqxfPvrXNnp2c9AAPGotjtdsM44AGtrs5OL9pJFHWzLFf6rnXWaqWHtr18+Tqk+c3+avIHV9D2dHlysi6tAwjdse/bHbCUWTKxag9vtDb98W3OBEpKrayxdV0DQgjtq8tpngnY3tx0h3bfLKu7d+4sqmZZV/XyYn2yudlf1gsplEfKKQTmZJ2pqmIaJ4lSCaM++/yroiids/M87w77cRpjitMYU86Iqu/GN69v6mKdg8Qk20P/bPy5NHbZNMfDLF1pcBuHiMK4AoUj5wqJAhJYZStXNfUCf/7+CQB82I73YwieiYw1RJyJHz/+6Ydv/1TqmjzNKbLByjqnjUAx+RmMVFIycOFcXTvgWasSUaTch3S0DpqmUtKtckqJSGhR6qoGAkQpZZj84ydPICsFglNiFigVIDILoy0Q+XnIkbS2KfE8hWnwSGyMKIoyk+yG+PDzjy7OT1XIMyOhREaaxzbnWRplUGuSKyd3/dvh7U/LxTawnYTJJL0fkP2idDnHKYKUAoCJOKaEBD4cpqklSFJhXRbASf3Pd38EAEQUiIdXT99evUCtauvWrr6zWZXdq4dbaas8ZL8HPQkHmVnJKRGj0koSITMzc86ERDHMYFWIwRhmDl03qm+++eaDQyCelEYK2Led02pp5J1SnlaaBIh5ME2DiMhGKyuUGXzKqJwzKWUiAgAmphAzJalEjHG5XNy+eLBclsrPnoGZGQBvpLPFanZLZWVL/atpvDweu3kmwRd3zk82Kqc4ZQmqVMUyZhIh/h+dWSCmlIhzzpmZEFQOZZxrpbTi/xexHDyiaoRT2c8jmClxiygoVzMthq6RmlSdFSdKAoCIPgQREVEQEQOnlGJMKNAYjcgqxphiJGJblHVhQ8wSsglBY2yntg0MUlmA1B7n1BVlaZfaKhg4R0AA+aE+M384GWYOIVDOTBlEZMlq3VQnm+16e+vTL76SUr57+cu7X14c373XShhVO/BL1J+dLbc2dPs3PtPYTnK4FpvbAQzmJAQiAiJQTshRMOdMyYf+MP34Y+ulVs1yszq9eHjv4zM1tzevz3iP6hp0e5go5FgpgGlfbNStkwp6uNofs5SlmVmZGUoPLAUCIgISZcgJmAFg9jMeds9fvmxzIU9P7lzedMdfHm8Of1nsny7TwVLf9ftyvbi1Lmv27IcwHDaN/eTi1uH9gUJeClKc+hAnyimFnGOMPkSfgXwOk58TZW21LutuzGpVmmMQctr/eru4kOXVdSdjul3on483IYX7t883v/r8eGyP/bHsZ1c4FHpdyDEPN1dvd6IQAqVURJkBMhEgGm0ypUxQL2XOoMzwRs+wKoOA7LNIxEun/ulv7i9fXL6+vO52O663hwDPXly/Kg/BEyc1dokljj5MkAABAaWUUsqUCBEVQuls5ezcjkqM6uv7233ntyp1EdlJXpvzTbFeZ6uLO5v7v//h9eO//tQL56OZBiJGiECKMBMbLTIDgkA0RghAzQIRDYCTsrZiWXenq0rd3TYfrxoYO0QAKafYv3o/zliAXG2s2Lruu7d7UctVo/3gUTrl1JAo+ZiAADiDlULblEuVBgpG6ULpk3Xz2998ebHd8HRU//3d01VhdU4GuS5sN86e5MlkWNoNDb2QGfXdyl2U6unou8yB/JgB0QJkYE5gNFpDk6MwYBIoKotNpb7++lfGp+59VE96qfoomTEnhkQolBLQvso5oZm9tCjqZdTyOAGLNgMxIEpABAZCRBTMkFFg2aRRTDENw2glkO8y8fbiTH5y534G4Rk8yEk6jzoCNKvl2dnJPsZj0GUyp4p0Ja8StwkyMwEQsBJCZJIAGqiQpJRIUmngxsjbt9aSgglexKT+/V9+d3V9/dcfn7TDIAAR4aPTzRcP7glKw+EQ5qwRd77bGWhDKEEpo5y1SutCKQh+s94s6mpTO2WN257KECrBy4Wrameiv3n2TH35yf3Navv855fd4AWwYO72x++/+1OOAQLIbAeTSkxbvfrdlxelyOfn56enZ4CQpskg3/v4wipBOciiNKuNSkQhjn5MSI2x1WahXjx72oW0XTR1XZ9u1k3pxr6P3iNCAVSsl3JRnKr44Oz29uRMqrTdnhBRSlEJFDnmudelEboyZZ2Idu/f1ovF9tZHmRmQ3aJU//j1g5D51w9Ou3FWUq4W9Tz0tXOcI/q+XlXV6Sb5cdOsdLMRtjJah2nKlIqmPFxe+kikDUibAwyHnUrBOtgd3moyGnB39ep/AcA3oY/WkeLuAAAAAElFTkSuQmCC;fontFamily=Times New Roman;fontSize=10.5;" parent="J1o6f_ijlUPL8cxEoB-2-1" vertex="1">
          <mxGeometry x="347" y="128" width="32" height="32" as="geometry" />
        </mxCell>
        <mxCell id="LUO2bR_xxj8n7OCwL066-80" value="" style="shape=image;verticalLabelPosition=bottom;labelBackgroundColor=default;verticalAlign=top;aspect=fixed;imageAspect=0;image=data:image/png,iVBORw0KGgoAAAANSUhEUgAAACAAAAAgCAIAAAD8GO2jAAAAB3RJTUUH2AcfAR0r2vFQUAAACR9JREFUSIktlklvZOd1hs/5pvvdurcGFosz2d2K0C0jabUGIwOMJBsJWTkJkkV+Qv6BHSD/xv4BNhBo4wAZpFhygsToltTqKJJalMgqFouskXXHbzgni/buXb2rB3ge/Lu//0mSGCnle3/+p6ene+cX54tleXF+VRcN6qzTy2yqJBmlTPBEBIEFIEakwBGZAZgIiBkZgIE5EgVAIBBERERKSuF89fr9B3lfl826qNYqUXuHw8X1OkQ2ivvdNEu6ve5gPl8VRa1ARUCBLEEzMDMzEzNzDExEJCRYBiAgImJmNRgMGJqDg+HV9IoJ7u5ckuq947PG69A4wrgqSqWyNpIwidCBiAQAg0BERiAgIGAKITpmDyARjUAhBBCB90FJKQPh9HoGAa3pE1ptUpCZyXa0KNrQBIHb1gUoYgRMTAIUI0WQBJIQACIH9s6RqwEjsgSIQilAZvLkG9U0bdpJi20LEUUX007uAy4Xaxn9Ynp5cXmuet2d4Wh/77DTybO8K5QsitqTJJAMAIwUnXMtu1opQMTWOd+AVKIoSymlOjw8zPN8uy1ibIWCyJFCTEUI69ti8lV7Mxl/X0/SLDHJcDg6Ob2/c3TW6Y20VASKGZAAtY5SBiLJLBDKelVWBQoTvLdpqkanewrVti6HgxGi9G1o2lp4tzl/3u/Ieie7i7WS7Nry+qqcjM/T3ujP/uJvs9FAxIgkQiBkRsWAEQE4skJy1RogUUo3VRAuAIEwJgEQCrGjua9xdv6VNXzv9QdoDQuUiTk6PXnt4etplpJrYgw6sdrIJFHGSCEjYyCIgNA0DcWQGMUhMBNzVL4EHwsRYbmcW425hOp2VhfLN959AlJqYygEALi9vVFKKSUDcVPepRojCMWgmIhETJRPtPeemUMIWitKoKor00lVqIumWrl227imEVC5aj3+/vjeCWZJsa2EkEoIhRiIqm2RpjYGvlvdpBocCM3MAtfbraAAMYbgmVlKGSNkWbbZbkMZ1ZfPfy3RBVchSAhR+Pre/t5g2I/AILDTSZVUvm2MUtEDUNRK1duVQS+MUMCC1aS4U8TWJo131tplMY8xIPgk0W3wanr5QguQgmUAweIHP3jj8OykDiGJZJNECFHXlY9FYq333rciSezydlpvl4P9Y4oU2lpI4X3QOgEoEFEpxSycb4XAGL3KrRaMSkhuin43e/eH7y7qurmdDwlQiMnkarFcRiKtda/Xe/DgwdHxie3k1XYFygTm1IiD4+Ob8QwRpRQxhCzLnKPlckMUjNFKSW1Y5kkaSRyfneaDnS2xVma7LceTyYsXz9u2BpRN4/7yx3/9h3/0x5PJOE07H3/84XxdpL1+lqXvvPVEGVUWBQhw0R0eHNxt1Hp9RzGmqRXGJMgcm/b45GxwcFi0TZoYq/U3599++NFH683KuTaECCDeeeeH3bz/+WfP57e3Vxffr68v33z0e0bi9fRKG9W4GjigoN5ggFJrbZxrE62FkLJxLknt47ffksaURamVvp7Nnj59enN7C4CIyEzdPJNSXl1NmBkRtVJG651+P0vTm+l1XZbIsbxbubqYXH63XsxD8FVVKaXUarVqNtvff/ioP9odrxZt64LfPHv26eXlhJkAAABj9InV3rvxeMxM1toHDx6Mx+P/ffHFYrUG5tV8DuyXN9cxEvvWe9+2jRDgfau89z7GbV1FJVVit3fFs2fPvv7mJRPQ7/45xnDv3tnxyRGiePjw9UePHr3//vsAgEIwIhNLKZum+ubrL9frdevaq6uJXGJZbvM8UzHGQHGxXkVERvH88y9++z9P29YjCEQkIiHw+PjoRz/6k9deu//m4zdDiDc3N8Ph0BgjBCKgUkpK+eXXX11cTZVSQihUppOlaSchCoqZhZS1a7dN9f14/PS3T8uyBEBmIOIYqdfrv/nk8XA41FqtNyubpM65y8vL3d3dRJvgfd7NlVJPnz77lw//o2maGGNqzenRjtZ6vpiLsqyIoarbLz77/L//6z+XqxUAMHEMkRgRMAY/nV7PF/MsyxDQWntycpxlnW43lwo7mR3sDGyaRmYp9Wq5ns+XRBAjIwrvgiqLUiAC88cffnR1ORFS7u0dGCVns1kdSBvB5F++fPn2W+8AwGAwECiE0Vkn/fd/+9fffPLrvJv/+K/+5vGTt7RJlBCdNDXaJMYU2xKAsixXZ6dHIQZrLYIU986urq57vV4nNS5UuyY9OtgbdDuND6PRqGnaXrffNo0xZrvd/vxnP78cfyeVnK82P/2Hf0ySBABGo1HTNMaYXjfpdFJrrdo/HAIDAAAoKfV8vlivl2Upm9Z1OwMfcDyZKaOm0+mnnz47PbmXpun+3t50Or2eXT98+DDL8/F4fHl5IaU0xqxWq6IojVFZNhyNdkMIijkgYowxhhCjR4SqLnLRizFJ010A+39fvjBpmC8WAPLJk7c71h4dHT1//lxKORlPuv2u1HY8mTCIVzIA4PHl2Bo+PNyXUip6FTWRiNimycnJ0WZzFzwIqRm1MblSKWJhE/vo0aP333vPaF1X1QcffNA0TYyuqqvezu4//+pX+4fH69VqtVoppXq9Xpqmi8USAFTwDADO+RgJQCLywcFBVVeLby+ms+82SQ4iIGKe54vF/NPPPjs6OACA2WwGAFJKRGTiTz75TdbtuRA2mw0i3r9/5p2PMVpr1WKxEeIV9QQACLLbNa2rAdu2WXKo045QqvPN1y/Pv7345S/+abQ7zLLs8vJCaxUCO++JCIBvZjNidq1TWi3ni8yqEMhaq5zjJDFKKWuTbrdrrSUiKeUfvPGYGIqivJ5e1yW5NsToqrKeXV8xkzFmZ2cHUDCjVloCkHchkgA0Qrqq+e7bMaKwNlFZ1jXGaK2lFERcVbWUsj/Y6fcHdV130jTrdMqiqeu6bdsYYwiubdsQQggh73a1SQC5dQ0ASxSIgMCvgBFSeh+UtTbGWJYlIgAwEWVZ5tq2aZpXe29v1OsFisTMZVUG70IIrWvbtkWBSaKXy0XT1IgolUAh0k5iTFKUNTMJqVSapkVR3N3dMZPWSgghhHDOxRCUUs457z3RqxjRqTWUKAAgohBCiNH7YK3Z3x8hCil1nuej0Wi93qRFpbU2xvw//jLUc/AL9bYAAAAASUVORK5CYII=;fontFamily=Times New Roman;fontSize=10.5;" parent="J1o6f_ijlUPL8cxEoB-2-1" vertex="1">
          <mxGeometry x="379" y="128" width="32" height="32" as="geometry" />
        </mxCell>
        <mxCell id="LUO2bR_xxj8n7OCwL066-83" value="&lt;font style=&quot;font-size: 10.5px;&quot;&gt;Airplane&lt;/font&gt;" style="text;html=1;strokeColor=none;fillColor=none;align=center;verticalAlign=middle;whiteSpace=wrap;rounded=0;fontSize=10.5;fontFamily=Times New Roman;" parent="J1o6f_ijlUPL8cxEoB-2-1" vertex="1">
          <mxGeometry x="13" y="10" width="38.5" height="12" as="geometry" />
        </mxCell>
        <mxCell id="LUO2bR_xxj8n7OCwL066-84" value="&lt;font style=&quot;font-size: 10.5px;&quot;&gt;Automobile&lt;/font&gt;" style="text;html=1;strokeColor=none;fillColor=none;align=center;verticalAlign=middle;whiteSpace=wrap;rounded=0;fontSize=10.5;fontFamily=Times New Roman;" parent="J1o6f_ijlUPL8cxEoB-2-1" vertex="1">
          <mxGeometry y="43" width="51.5" height="12" as="geometry" />
        </mxCell>
        <mxCell id="LUO2bR_xxj8n7OCwL066-85" value="&lt;font style=&quot;font-size: 10.5px;&quot;&gt;Bird&lt;/font&gt;" style="text;html=1;strokeColor=none;fillColor=none;align=center;verticalAlign=middle;whiteSpace=wrap;rounded=0;fontSize=10.5;fontFamily=Times New Roman;" parent="J1o6f_ijlUPL8cxEoB-2-1" vertex="1">
          <mxGeometry x="31" y="74" width="20.5" height="12" as="geometry" />
        </mxCell>
        <mxCell id="LUO2bR_xxj8n7OCwL066-86" value="&lt;font style=&quot;font-size: 10.5px;&quot;&gt;Cat&lt;/font&gt;" style="text;html=1;strokeColor=none;fillColor=none;align=center;verticalAlign=middle;whiteSpace=wrap;rounded=0;fontSize=10.5;fontFamily=Times New Roman;" parent="J1o6f_ijlUPL8cxEoB-2-1" vertex="1">
          <mxGeometry x="36" y="106" width="15.5" height="12" as="geometry" />
        </mxCell>
        <mxCell id="LUO2bR_xxj8n7OCwL066-87" value="&lt;font style=&quot;font-size: 10.5px;&quot;&gt;Deer&lt;/font&gt;" style="text;html=1;strokeColor=none;fillColor=none;align=center;verticalAlign=middle;whiteSpace=wrap;rounded=0;fontSize=10.5;fontFamily=Times New Roman;" parent="J1o6f_ijlUPL8cxEoB-2-1" vertex="1">
          <mxGeometry x="30" y="138" width="21.5" height="12" as="geometry" />
        </mxCell>
        <mxCell id="LUO2bR_xxj8n7OCwL066-89" value="&lt;font style=&quot;font-size: 10.5px;&quot;&gt;Dog&lt;/font&gt;" style="text;html=1;strokeColor=none;fillColor=none;align=center;verticalAlign=middle;whiteSpace=wrap;rounded=0;fontSize=10.5;fontFamily=Times New Roman;" parent="J1o6f_ijlUPL8cxEoB-2-1" vertex="1">
          <mxGeometry x="258" y="10" width="20" height="12" as="geometry" />
        </mxCell>
        <mxCell id="LUO2bR_xxj8n7OCwL066-90" value="&lt;font style=&quot;font-size: 10.5px;&quot;&gt;Frog&lt;/font&gt;" style="text;html=1;strokeColor=none;fillColor=none;align=center;verticalAlign=middle;whiteSpace=wrap;rounded=0;fontSize=10.5;fontFamily=Times New Roman;" parent="J1o6f_ijlUPL8cxEoB-2-1" vertex="1">
          <mxGeometry x="256.5" y="43" width="21.5" height="12" as="geometry" />
        </mxCell>
        <mxCell id="LUO2bR_xxj8n7OCwL066-91" value="&lt;font style=&quot;font-size: 10.5px;&quot;&gt;Horse&lt;/font&gt;" style="text;html=1;strokeColor=none;fillColor=none;align=center;verticalAlign=middle;whiteSpace=wrap;rounded=0;fontSize=10.5;fontFamily=Times New Roman;" parent="J1o6f_ijlUPL8cxEoB-2-1" vertex="1">
          <mxGeometry x="250" y="74" width="28" height="12" as="geometry" />
        </mxCell>
        <mxCell id="LUO2bR_xxj8n7OCwL066-93" value="&lt;font style=&quot;font-size: 10.5px;&quot;&gt;Ship&lt;/font&gt;" style="text;html=1;strokeColor=none;fillColor=none;align=center;verticalAlign=middle;whiteSpace=wrap;rounded=0;fontSize=10.5;fontFamily=Times New Roman;" parent="J1o6f_ijlUPL8cxEoB-2-1" vertex="1">
          <mxGeometry x="257" y="106" width="21" height="12" as="geometry" />
        </mxCell>
        <mxCell id="LUO2bR_xxj8n7OCwL066-94" value="&lt;font style=&quot;font-size: 10.5px;&quot;&gt;Truck&lt;/font&gt;" style="text;html=1;strokeColor=none;fillColor=none;align=center;verticalAlign=middle;whiteSpace=wrap;rounded=0;fontSize=10.5;fontFamily=Times New Roman;" parent="J1o6f_ijlUPL8cxEoB-2-1" vertex="1">
          <mxGeometry x="252.25" y="138" width="25.75" height="12" as="geometry" />
        </mxCell>
      </root>
    </mxGraphModel>
  </diagram>
</mxfile>
